<svg width="478" height="95" viewBox="0 0 478 95" fill="none" xmlns="http://www.w3.org/2000/svg">
<path d="M-52.2079 90L474 90" stroke="black" stroke-width="0.7" stroke-linecap="square"/>
<path d="M-35 80L438.426 80" stroke="black" stroke-width="1.2" stroke-linecap="square"/>
<path d="M-58 61L415.426 61" stroke="black" stroke-width="0.7" stroke-linecap="square"/>
<path d="M31.145 39V12.73H51.421V39H48.091V15.69H34.475V39H31.145ZM67.5816 39.37C66.003 39.37 64.597 38.9753 63.3636 38.186C62.1303 37.3967 61.156 36.3977 60.4406 35.189V46.881H57.1846V19.686H60.0706V23.312C60.8353 22.128 61.8343 21.1783 63.0676 20.463C64.301 19.723 65.6453 19.353 67.1006 19.353C68.4326 19.353 69.6536 19.6243 70.7636 20.167C71.8736 20.7097 72.8356 21.4497 73.6496 22.387C74.4636 23.3243 75.0926 24.3973 75.5366 25.606C76.0053 26.79 76.2396 28.0357 76.2396 29.343C76.2396 31.1683 75.8696 32.8457 75.1296 34.375C74.4143 35.9043 73.403 37.1253 72.0956 38.038C70.7883 38.926 69.2836 39.37 67.5816 39.37ZM66.5826 36.558C67.5446 36.558 68.408 36.3607 69.1726 35.966C69.962 35.5467 70.628 35.004 71.1706 34.338C71.738 33.6473 72.1696 32.8703 72.4656 32.007C72.7616 31.1437 72.9096 30.2557 72.9096 29.343C72.9096 28.381 72.737 27.4683 72.3916 26.605C72.071 25.7417 71.6023 24.977 70.9856 24.311C70.3936 23.645 69.6906 23.127 68.8766 22.757C68.0873 22.3623 67.224 22.165 66.2866 22.165C65.6946 22.165 65.078 22.276 64.4366 22.498C63.82 22.72 63.228 23.0407 62.6606 23.46C62.0933 23.8547 61.6123 24.311 61.2176 24.829C60.823 25.347 60.564 25.902 60.4406 26.494V32.007C60.8106 32.8457 61.304 33.6103 61.9206 34.301C62.5373 34.9917 63.2526 35.5467 64.0666 35.966C64.8806 36.3607 65.7193 36.558 66.5826 36.558ZM88.6734 39.37C87.218 39.37 85.8984 39.111 84.7144 38.593C83.5304 38.0503 82.5067 37.3227 81.6434 36.41C80.78 35.4727 80.114 34.3997 79.6454 33.191C79.1767 31.9823 78.9424 30.712 78.9424 29.38C78.9424 28.0233 79.1767 26.7407 79.6454 25.532C80.114 24.3233 80.78 23.2627 81.6434 22.35C82.5067 21.4127 83.5304 20.685 84.7144 20.167C85.923 19.6243 87.2427 19.353 88.6734 19.353C90.1287 19.353 91.4484 19.6243 92.6324 20.167C93.8164 20.685 94.84 21.4127 95.7034 22.35C96.5914 23.2627 97.2697 24.3233 97.7384 25.532C98.207 26.7407 98.4414 28.0233 98.4414 29.38C98.4414 30.712 98.207 31.9823 97.7384 33.191C97.2697 34.3997 96.6037 35.4727 95.7404 36.41C94.877 37.3227 93.841 38.0503 92.6324 38.593C91.4484 39.111 90.1287 39.37 88.6734 39.37ZM82.2724 29.417C82.2724 30.749 82.556 31.9577 83.1234 33.043C83.7154 34.1283 84.4924 34.9917 85.4544 35.633C86.4164 36.2497 87.4894 36.558 88.6734 36.558C89.8574 36.558 90.9304 36.2373 91.8924 35.596C92.879 34.9547 93.656 34.0913 94.2234 33.006C94.8154 31.896 95.1114 30.675 95.1114 29.343C95.1114 28.011 94.8154 26.8023 94.2234 25.717C93.656 24.6317 92.879 23.7683 91.8924 23.127C90.9304 22.4857 89.8574 22.165 88.6734 22.165C87.4894 22.165 86.4164 22.498 85.4544 23.164C84.4924 23.8053 83.7154 24.6687 83.1234 25.754C82.556 26.8393 82.2724 28.0603 82.2724 29.417ZM102.35 39V19.686H114.264V22.572H105.606V39H102.35ZM127.996 39.37C126.417 39.37 125.011 38.9753 123.778 38.186C122.544 37.3967 121.57 36.3977 120.855 35.189V46.881H117.599V19.686H120.485V23.312C121.249 22.128 122.248 21.1783 123.482 20.463C124.715 19.723 126.059 19.353 127.515 19.353C128.847 19.353 130.068 19.6243 131.178 20.167C132.288 20.7097 133.25 21.4497 134.064 22.387C134.878 23.3243 135.507 24.3973 135.951 25.606C136.419 26.79 136.654 28.0357 136.654 29.343C136.654 31.1683 136.284 32.8457 135.544 34.375C134.828 35.9043 133.817 37.1253 132.51 38.038C131.202 38.926 129.698 39.37 127.996 39.37ZM126.997 36.558C127.959 36.558 128.822 36.3607 129.587 35.966C130.376 35.5467 131.042 35.004 131.585 34.338C132.152 33.6473 132.584 32.8703 132.88 32.007C133.176 31.1437 133.324 30.2557 133.324 29.343C133.324 28.381 133.151 27.4683 132.806 26.605C132.485 25.7417 132.016 24.977 131.4 24.311C130.808 23.645 130.105 23.127 129.291 22.757C128.501 22.3623 127.638 22.165 126.701 22.165C126.109 22.165 125.492 22.276 124.851 22.498C124.234 22.72 123.642 23.0407 123.075 23.46C122.507 23.8547 122.026 24.311 121.632 24.829C121.237 25.347 120.978 25.902 120.855 26.494V32.007C121.225 32.8457 121.718 33.6103 122.335 34.301C122.951 34.9917 123.667 35.5467 124.481 35.966C125.295 36.3607 126.133 36.558 126.997 36.558ZM139.134 33.413C139.134 32.1797 139.48 31.119 140.17 30.231C140.886 29.3183 141.86 28.6153 143.093 28.122C144.327 27.6287 145.757 27.382 147.385 27.382C148.249 27.382 149.161 27.456 150.123 27.604C151.085 27.7273 151.936 27.9247 152.676 28.196V26.79C152.676 25.31 152.232 24.1507 151.344 23.312C150.456 22.4487 149.198 22.017 147.57 22.017C146.51 22.017 145.486 22.2143 144.499 22.609C143.537 22.979 142.514 23.5217 141.428 24.237L140.244 21.943C141.502 21.0797 142.76 20.4383 144.018 20.019C145.276 19.575 146.584 19.353 147.94 19.353C150.407 19.353 152.356 20.0437 153.786 21.425C155.217 22.7817 155.932 24.681 155.932 27.123V35.3C155.932 35.6947 156.006 35.9907 156.154 36.188C156.327 36.3607 156.598 36.4593 156.968 36.484V39C156.648 39.0493 156.364 39.0863 156.117 39.111C155.895 39.1357 155.71 39.148 155.562 39.148C154.798 39.148 154.218 38.9383 153.823 38.519C153.453 38.0997 153.244 37.6557 153.194 37.187L153.12 35.966C152.282 37.0513 151.184 37.89 149.827 38.482C148.471 39.074 147.126 39.37 145.794 39.37C144.512 39.37 143.365 39.111 142.353 38.593C141.342 38.0503 140.553 37.335 139.985 36.447C139.418 35.5343 139.134 34.523 139.134 33.413ZM151.714 34.782C152.01 34.4367 152.245 34.0913 152.417 33.746C152.59 33.376 152.676 33.0677 152.676 32.821V30.416C151.912 30.12 151.11 29.898 150.271 29.75C149.433 29.5773 148.606 29.491 147.792 29.491C146.14 29.491 144.795 29.824 143.759 30.49C142.748 31.1313 142.242 32.0193 142.242 33.154C142.242 33.7707 142.403 34.375 142.723 34.967C143.069 35.5343 143.562 36.003 144.203 36.373C144.869 36.743 145.683 36.928 146.645 36.928C147.657 36.928 148.619 36.7307 149.531 36.336C150.444 35.9167 151.172 35.3987 151.714 34.782ZM161.102 39V19.686H164.469L171.647 32.34L178.862 19.686H182.155V39H179.047V24.385L172.683 35.559H170.611L164.21 24.385V39H161.102ZM187.37 39V19.686H190.737L197.915 32.34L205.13 19.686H208.423V39H205.315V24.385L198.951 35.559H196.879L190.478 24.385V39H187.37ZM213.639 39V19.686H216.895V27.678H226.959V19.686H230.215V39H226.959V30.564H216.895V39H213.639ZM235.427 39V19.686H238.683V26.272H242.605C244.874 26.272 246.589 26.8517 247.748 28.011C248.932 29.1457 249.524 30.638 249.524 32.488C249.524 33.7213 249.265 34.8313 248.747 35.818C248.254 36.8047 247.514 37.5817 246.527 38.149C245.54 38.7163 244.307 39 242.827 39H235.427ZM238.683 36.447H242.383C243.296 36.447 244.023 36.2743 244.566 35.929C245.133 35.559 245.553 35.078 245.824 34.486C246.095 33.894 246.231 33.2527 246.231 32.562C246.231 31.896 246.108 31.2793 245.861 30.712C245.614 30.1447 245.207 29.6883 244.64 29.343C244.073 28.9977 243.296 28.825 242.309 28.825H238.683V36.447ZM252.854 39V19.723H256.11V39H252.854ZM269.918 39.37C268.463 39.37 267.131 39.111 265.922 38.593C264.738 38.0503 263.702 37.3227 262.814 36.41C261.951 35.4727 261.272 34.3997 260.779 33.191C260.31 31.9823 260.076 30.6997 260.076 29.343C260.076 27.5177 260.495 25.8527 261.334 24.348C262.173 22.8433 263.332 21.6347 264.812 20.722C266.317 19.8093 268.031 19.353 269.955 19.353C271.904 19.353 273.593 19.8217 275.024 20.759C276.479 21.6717 277.602 22.8803 278.391 24.385C279.205 25.865 279.612 27.4683 279.612 29.195C279.612 29.4417 279.6 29.6883 279.575 29.935C279.575 30.157 279.563 30.3297 279.538 30.453H263.517C263.616 31.711 263.961 32.8333 264.553 33.82C265.17 34.782 265.959 35.5467 266.921 36.114C267.883 36.6567 268.919 36.928 270.029 36.928C271.213 36.928 272.323 36.632 273.359 36.04C274.42 35.448 275.147 34.671 275.542 33.709L278.354 34.486C277.935 35.4233 277.306 36.262 276.467 37.002C275.653 37.742 274.679 38.3217 273.544 38.741C272.434 39.1603 271.225 39.37 269.918 39.37ZM263.406 28.196H276.578C276.479 26.938 276.122 25.828 275.505 24.866C274.888 23.904 274.099 23.1517 273.137 22.609C272.175 22.0663 271.114 21.795 269.955 21.795C268.82 21.795 267.772 22.0663 266.81 22.609C265.848 23.1517 265.059 23.904 264.442 24.866C263.85 25.828 263.505 26.938 263.406 28.196ZM302.987 39.37C301.408 39.37 300.002 38.9753 298.769 38.186C297.536 37.3967 296.561 36.3977 295.846 35.189V46.881H292.59V19.686H295.476V23.312C296.241 22.128 297.24 21.1783 298.473 20.463C299.706 19.723 301.051 19.353 302.506 19.353C303.838 19.353 305.059 19.6243 306.169 20.167C307.279 20.7097 308.241 21.4497 309.055 22.387C309.869 23.3243 310.498 24.3973 310.942 25.606C311.411 26.79 311.645 28.0357 311.645 29.343C311.645 31.1683 311.275 32.8457 310.535 34.375C309.82 35.9043 308.808 37.1253 307.501 38.038C306.194 38.926 304.689 39.37 302.987 39.37ZM301.988 36.558C302.95 36.558 303.813 36.3607 304.578 35.966C305.367 35.5467 306.033 35.004 306.576 34.338C307.143 33.6473 307.575 32.8703 307.871 32.007C308.167 31.1437 308.315 30.2557 308.315 29.343C308.315 28.381 308.142 27.4683 307.797 26.605C307.476 25.7417 307.008 24.977 306.391 24.311C305.799 23.645 305.096 23.127 304.282 22.757C303.493 22.3623 302.629 22.165 301.692 22.165C301.1 22.165 300.483 22.276 299.842 22.498C299.225 22.72 298.633 23.0407 298.066 23.46C297.499 23.8547 297.018 24.311 296.623 24.829C296.228 25.347 295.969 25.902 295.846 26.494V32.007C296.216 32.8457 296.709 33.6103 297.326 34.301C297.943 34.9917 298.658 35.5467 299.472 35.966C300.286 36.3607 301.125 36.558 301.988 36.558ZM324.19 39.37C322.734 39.37 321.402 39.111 320.194 38.593C319.01 38.0503 317.974 37.3227 317.086 36.41C316.222 35.4727 315.544 34.3997 315.051 33.191C314.582 31.9823 314.348 30.6997 314.348 29.343C314.348 27.5177 314.767 25.8527 315.606 24.348C316.444 22.8433 317.604 21.6347 319.084 20.722C320.588 19.8093 322.303 19.353 324.227 19.353C326.175 19.353 327.865 19.8217 329.296 20.759C330.751 21.6717 331.873 22.8803 332.663 24.385C333.477 25.865 333.884 27.4683 333.884 29.195C333.884 29.4417 333.871 29.6883 333.847 29.935C333.847 30.157 333.834 30.3297 333.81 30.453H317.789C317.887 31.711 318.233 32.8333 318.825 33.82C319.441 34.782 320.231 35.5467 321.193 36.114C322.155 36.6567 323.191 36.928 324.301 36.928C325.485 36.928 326.595 36.632 327.631 36.04C328.691 35.448 329.419 34.671 329.814 33.709L332.626 34.486C332.206 35.4233 331.577 36.262 330.739 37.002C329.925 37.742 328.95 38.3217 327.816 38.741C326.706 39.1603 325.497 39.37 324.19 39.37ZM317.678 28.196H330.85C330.751 26.938 330.393 25.828 329.777 24.866C329.16 23.904 328.371 23.1517 327.409 22.609C326.447 22.0663 325.386 21.795 324.227 21.795C323.092 21.795 322.044 22.0663 321.082 22.609C320.12 23.1517 319.33 23.904 318.714 24.866C318.122 25.828 317.776 26.938 317.678 28.196ZM337.466 39V19.686H340.722V36.151H348.344V19.686H351.637V36.151H359.222V19.686H362.478V39H337.466ZM376.293 39.37C374.838 39.37 373.506 39.111 372.297 38.593C371.113 38.0503 370.077 37.3227 369.189 36.41C368.326 35.4727 367.647 34.3997 367.154 33.191C366.685 31.9823 366.451 30.6997 366.451 29.343C366.451 27.5177 366.87 25.8527 367.709 24.348C368.548 22.8433 369.707 21.6347 371.187 20.722C372.692 19.8093 374.406 19.353 376.33 19.353C378.279 19.353 379.968 19.8217 381.399 20.759C382.854 21.6717 383.977 22.8803 384.766 24.385C385.58 25.865 385.987 27.4683 385.987 29.195C385.987 29.4417 385.975 29.6883 385.95 29.935C385.95 30.157 385.938 30.3297 385.913 30.453H369.892C369.991 31.711 370.336 32.8333 370.928 33.82C371.545 34.782 372.334 35.5467 373.296 36.114C374.258 36.6567 375.294 36.928 376.404 36.928C377.588 36.928 378.698 36.632 379.734 36.04C380.795 35.448 381.522 34.671 381.917 33.709L384.729 34.486C384.31 35.4233 383.681 36.262 382.842 37.002C382.028 37.742 381.054 38.3217 379.919 38.741C378.809 39.1603 377.6 39.37 376.293 39.37ZM369.781 28.196H382.953C382.854 26.938 382.497 25.828 381.88 24.866C381.263 23.904 380.474 23.1517 379.512 22.609C378.55 22.0663 377.489 21.795 376.33 21.795C375.195 21.795 374.147 22.0663 373.185 22.609C372.223 23.1517 371.434 23.904 370.817 24.866C370.225 25.828 369.88 26.938 369.781 28.196ZM389.569 39V19.686H392.825V27.678H402.889V19.686H406.145V39H402.889V30.564H392.825V39H389.569ZM411.358 39V19.723H414.614V34.634L425.418 19.686H428.378V39H425.122V24.385L414.466 39H411.358ZM432.137 39L437.613 31.23C436.355 30.9833 435.344 30.3913 434.579 29.454C433.814 28.492 433.432 27.2093 433.432 25.606C433.432 24.4467 433.703 23.423 434.246 22.535C434.789 21.647 435.541 20.944 436.503 20.426C437.49 19.908 438.637 19.649 439.944 19.649H447.862V39H444.606V31.748H440.832L435.726 39H432.137ZM440.166 29.343H444.606V22.202H440.536C439.377 22.202 438.452 22.535 437.761 23.201C437.07 23.8423 436.725 24.6687 436.725 25.68C436.725 26.6913 437.009 27.5547 437.576 28.27C438.168 28.9853 439.031 29.343 440.166 29.343Z" fill="black"/>
</svg>
