<?xml version="1.0" encoding="utf-8"?>
<!-- Generator: Adobe Illustrator 28.0.0, SVG Export Plug-In . SVG Version: 6.00 Build 0)  -->
<svg version="1.1" id="Layer_1" xmlns="http://www.w3.org/2000/svg" xmlns:xlink="http://www.w3.org/1999/xlink" x="0px" y="0px"
	 viewBox="0 0 512 512" style="enable-background:new 0 0 512 512;" xml:space="preserve">
<style type="text/css">
	.st0{fill:#31D8B0;stroke:#31D8B0;stroke-miterlimit:10;}
</style>
<path class="st0" d="M80.9,495.4c-20.7,0-41.4-7.9-57.2-23.7c-31.6-31.6-31.6-82.9,0-114.5L333.8,47.1
	c19.7-19.7,45.9-30.6,73.8-30.6s54.1,10.9,73.8,30.6c40.7,40.7,40.7,106.9,0,147.6L258.7,417.6c-4.8,4.8-12.6,4.8-17.3,0
	c-4.8-4.8-4.8-12.6,0-17.3l222.8-222.8c31.1-31.1,31.1-81.8,0-113C449,49.4,429,41.1,407.6,41.1s-41.4,8.3-56.5,23.4L41,374.7
	c-10.7,10.7-16.5,24.8-16.5,39.9s5.9,29.2,16.5,39.9c22,22,57.8,22,79.8,0L365,210.1c12.8-12.8,12.8-33.7,0-46.5
	c-12.8-12.8-33.7-12.8-46.5,0L161.6,320.6c-4.8,4.8-12.6,4.8-17.3,0c-4.8-4.8-4.8-12.6,0-17.3l156.9-156.9
	c22.4-22.4,58.8-22.4,81.2,0c22.4,22.4,22.4,58.8,0,81.2L138.1,471.8C122.3,487.5,101.6,495.4,80.9,495.4z"/>
</svg>
