<svg width="249" height="132" viewBox="0 0 249 132" fill="none" xmlns="http://www.w3.org/2000/svg">
<path d="M247.909 96L-57.5609 96" stroke="black" stroke-width="0.7" stroke-linecap="square"/>
<path d="M209.47 121.712L-95.9999 121.712" stroke="black" stroke-width="0.7" stroke-linecap="square"/>
<path d="M232.805 128.075L-72.6654 128.075" stroke="black" stroke-width="1.2" stroke-linecap="square"/>
<path d="M55.261 68.285C52.411 68.285 49.827 67.715 47.509 66.575C45.191 65.435 43.177 63.896 41.467 61.958C39.795 59.982 38.503 57.778 37.591 55.346C36.679 52.876 36.223 50.349 36.223 47.765C36.223 45.067 36.698 42.502 37.648 40.07C38.636 37.6 39.985 35.415 41.695 33.515C43.443 31.577 45.476 30.057 47.794 28.955C50.112 27.815 52.639 27.245 55.375 27.245C58.225 27.245 60.809 27.834 63.127 29.012C65.445 30.19 67.44 31.767 69.112 33.743C70.784 35.719 72.076 37.923 72.988 40.355C73.9 42.787 74.356 45.276 74.356 47.822C74.356 50.52 73.881 53.104 72.931 55.574C71.981 58.006 70.632 60.191 68.884 62.129C67.174 64.029 65.16 65.53 62.842 66.632C60.524 67.734 57.997 68.285 55.261 68.285ZM41.41 47.765C41.41 49.817 41.733 51.812 42.379 53.75C43.063 55.65 44.013 57.341 45.229 58.823C46.445 60.305 47.908 61.483 49.618 62.357C51.328 63.231 53.228 63.668 55.318 63.668C57.484 63.668 59.422 63.212 61.132 62.3C62.842 61.388 64.286 60.172 65.464 58.652C66.68 57.132 67.592 55.422 68.2 53.522C68.846 51.622 69.169 49.703 69.169 47.765C69.169 45.713 68.827 43.737 68.143 41.837C67.497 39.937 66.547 38.246 65.293 36.764C64.077 35.244 62.614 34.066 60.904 33.23C59.232 32.356 57.37 31.919 55.318 31.919C53.152 31.919 51.214 32.375 49.504 33.287C47.794 34.161 46.331 35.358 45.115 36.878C43.937 38.398 43.025 40.108 42.379 42.008C41.733 43.87 41.41 45.789 41.41 47.765ZM95.0457 68V38.246H100.062V50.558H115.566V38.246H120.582V68H115.566V55.004H100.062V68H95.0457ZM126.331 59.393C126.331 57.493 126.863 55.859 127.927 54.491C129.029 53.085 130.53 52.002 132.43 51.242C134.33 50.482 136.534 50.102 139.042 50.102C140.372 50.102 141.778 50.216 143.26 50.444C144.742 50.634 146.053 50.938 147.193 51.356V49.19C147.193 46.91 146.509 45.124 145.141 43.832C143.773 42.502 141.835 41.837 139.327 41.837C137.693 41.837 136.116 42.141 134.596 42.749C133.114 43.319 131.537 44.155 129.865 45.257L128.041 41.723C129.979 40.393 131.917 39.405 133.855 38.759C135.793 38.075 137.807 37.733 139.897 37.733C143.697 37.733 146.699 38.797 148.903 40.925C151.107 43.015 152.209 45.941 152.209 49.703V62.3C152.209 62.908 152.323 63.364 152.551 63.668C152.817 63.934 153.235 64.086 153.805 64.124V68C153.311 68.076 152.874 68.133 152.494 68.171C152.152 68.209 151.867 68.228 151.639 68.228C150.461 68.228 149.568 67.905 148.96 67.259C148.39 66.613 148.067 65.929 147.991 65.207L147.877 63.326C146.585 64.998 144.894 66.29 142.804 67.202C140.714 68.114 138.643 68.57 136.591 68.57C134.615 68.57 132.848 68.171 131.29 67.373C129.732 66.537 128.516 65.435 127.642 64.067C126.768 62.661 126.331 61.103 126.331 59.393ZM145.711 61.502C146.167 60.97 146.528 60.438 146.794 59.906C147.06 59.336 147.193 58.861 147.193 58.481V54.776C146.015 54.32 144.78 53.978 143.488 53.75C142.196 53.484 140.923 53.351 139.669 53.351C137.123 53.351 135.052 53.864 133.456 54.89C131.898 55.878 131.119 57.246 131.119 58.994C131.119 59.944 131.366 60.875 131.86 61.787C132.392 62.661 133.152 63.383 134.14 63.953C135.166 64.523 136.42 64.808 137.902 64.808C139.46 64.808 140.942 64.504 142.348 63.896C143.754 63.25 144.875 62.452 145.711 61.502ZM173.397 68.57C171.155 68.57 169.103 68.171 167.241 67.373C165.417 66.537 163.821 65.397 162.453 63.953C161.123 62.509 160.078 60.856 159.318 58.994C158.596 57.132 158.235 55.156 158.235 53.066C158.235 50.254 158.862 47.689 160.116 45.371C161.37 43.053 163.137 41.21 165.417 39.842C167.697 38.436 170.338 37.733 173.34 37.733C176.266 37.733 178.812 38.398 180.978 39.728C183.182 41.02 184.816 42.768 185.88 44.972L180.978 46.511C180.218 45.105 179.154 44.022 177.786 43.262C176.418 42.464 174.898 42.065 173.226 42.065C171.402 42.065 169.73 42.54 168.21 43.49C166.728 44.44 165.55 45.751 164.676 47.423C163.802 49.057 163.365 50.938 163.365 53.066C163.365 55.156 163.802 57.056 164.676 58.766C165.588 60.438 166.785 61.768 168.267 62.756C169.787 63.744 171.459 64.238 173.283 64.238C174.461 64.238 175.582 64.029 176.646 63.611C177.748 63.193 178.698 62.642 179.496 61.958C180.332 61.236 180.902 60.457 181.206 59.621L186.108 61.103C185.5 62.547 184.569 63.839 183.315 64.979C182.099 66.081 180.636 66.955 178.926 67.601C177.254 68.247 175.411 68.57 173.397 68.57Z" fill="black"/>
</svg>
