<svg width="159" height="113" viewBox="0 0 159 113" fill="none" xmlns="http://www.w3.org/2000/svg">
<path d="M12.8337 71.8114V22.6553H34.6993C36.9638 22.6553 39.0395 23.1169 40.9265 24.04C42.8135 24.9631 44.441 26.1863 45.8091 27.7094C47.2243 29.2325 48.3094 30.9403 49.0642 32.8327C49.8662 34.7251 50.2671 36.6637 50.2671 38.6484C50.2671 40.8177 49.8662 42.8947 49.0642 44.8794C48.2622 46.8641 47.1064 48.5719 45.5968 50.0027C44.1344 51.4335 42.4125 52.4721 40.4311 53.1182L52.2485 71.8114H43.3324L32.4349 54.7106H20.7591V71.8114H12.8337ZM20.7591 47.8565H34.6286C36.091 47.8565 37.3883 47.4411 38.5205 46.6103C39.6527 45.7794 40.5491 44.6717 41.2095 43.287C41.87 41.8562 42.2002 40.31 42.2002 38.6484C42.2002 36.9406 41.8228 35.4174 41.068 34.0789C40.3132 32.6942 39.3225 31.5865 38.096 30.7557C36.9166 29.9249 35.6193 29.5095 34.204 29.5095H20.7591V47.8565Z" fill="white"/>
<path d="M91.3113 71.8114L67.1812 46.818C65.1527 44.6948 63.5488 42.8947 62.3694 41.4177C61.19 39.9407 60.3408 38.5791 59.8219 37.3329C59.303 36.0867 59.0435 34.7943 59.0435 33.4558C59.0435 31.1942 59.6096 29.2095 60.7418 27.5017C61.9212 25.7939 63.5252 24.4554 65.5537 23.4861C67.5822 22.5169 69.8466 22.0322 72.3469 22.0322C74.6585 22.0322 76.7814 22.4476 78.7156 23.2784C80.6497 24.0631 82.2065 25.2401 83.3859 26.8094C84.5653 28.3325 85.155 30.2249 85.155 32.4865C85.155 34.6097 84.5889 36.5252 83.4566 38.233C82.3244 39.9407 80.8148 41.51 78.9278 42.9409C77.0408 44.3717 74.9415 45.7794 72.63 47.1641C70.8373 48.318 69.2098 49.4719 67.7473 50.6258C66.2849 51.7336 65.1291 52.9336 64.28 54.226C63.478 55.4722 63.077 56.8799 63.077 58.4492C63.077 60.0185 63.5252 61.4263 64.4215 62.6725C65.3178 63.8726 66.5208 64.8188 68.0304 65.5111C69.54 66.1573 71.1911 66.4804 72.9838 66.4804C75.201 66.4804 77.3003 65.9727 79.2817 64.9572C81.263 63.9418 83.0321 62.511 84.5889 60.6647C86.1456 58.7723 87.3486 56.5569 88.1977 54.0183C89.0941 51.4797 89.5422 48.7103 89.5422 45.7102H95.9109C95.9109 49.7719 95.2504 53.4413 93.9295 56.7184C92.6558 59.9955 90.9103 62.811 88.6931 65.1649C86.523 67.5189 83.9992 69.342 81.1215 70.6344C78.291 71.8806 75.2954 72.5037 72.1346 72.5037C68.8795 72.5037 66.0019 71.8806 63.5016 70.6344C61.0013 69.342 59.0435 67.6343 57.6283 65.5111C56.2602 63.3879 55.5762 61.0109 55.5762 58.38C55.5762 55.7953 56.1658 53.5567 57.3452 51.6643C58.5718 49.7258 60.1286 48.018 62.0156 46.541C63.9497 45.0179 65.8839 43.6563 67.8181 42.4562C69.8938 41.1639 71.6865 40.033 73.1961 39.0638C74.7057 38.0483 75.885 37.0329 76.7342 36.0175C77.5834 34.9559 78.0079 33.8251 78.0079 32.625C78.0079 31.148 77.4654 29.971 76.3804 29.0941C75.3425 28.171 73.998 27.7094 72.3469 27.7094C71.1204 27.7094 70.0353 27.9633 69.0918 28.471C68.1955 28.9787 67.4879 29.648 66.969 30.4788C66.45 31.3096 66.1906 32.2327 66.1906 33.2481C66.1906 33.9405 66.3793 34.6559 66.7567 35.3944C67.1341 36.0867 67.8417 37.0098 68.8795 38.1637C69.9174 39.2715 71.3562 40.7946 73.1961 42.7332L101.572 71.8114H91.3113Z" fill="white"/>
<path d="M104.916 71.8114V22.6553H122.748C128.173 22.6553 132.702 23.7631 136.335 25.9786C139.967 28.1479 142.68 31.1019 144.472 34.8405C146.312 38.533 147.232 42.6408 147.232 47.1641C147.232 52.149 146.218 56.4876 144.189 60.1801C142.208 63.8726 139.377 66.7342 135.698 68.7651C132.018 70.7959 127.701 71.8114 122.748 71.8114H104.916ZM139.165 47.1641C139.165 43.7024 138.505 40.6561 137.184 38.0252C135.91 35.3482 134.047 33.2712 131.593 31.7942C129.188 30.2711 126.239 29.5095 122.748 29.5095H112.841V64.9572H122.748C126.286 64.9572 129.258 64.1726 131.664 62.6033C134.117 61.034 135.981 58.9108 137.254 56.2338C138.528 53.5567 139.165 50.5335 139.165 47.1641Z" fill="white"/>
<path d="M35.529 99.6425C34.2193 99.6425 33.0277 99.4219 31.9541 98.9808C30.9021 98.5186 29.9895 97.8884 29.2166 97.0902C28.4437 96.2919 27.8425 95.3781 27.4131 94.3488C27.0051 93.3194 26.8011 92.2271 26.8011 91.0717C26.8011 89.5172 27.1554 88.0992 27.8639 86.8178C28.5939 85.5364 29.6031 84.5071 30.8913 83.7298C32.201 82.9526 33.7469 82.5639 35.529 82.5639C37.2467 82.5639 38.7389 82.9421 40.0056 83.6983C41.2939 84.4335 42.2386 85.4209 42.8398 86.6603L39.3937 87.7316C39.0073 87.0384 38.4597 86.5027 37.7512 86.1246C37.0642 85.7255 36.3019 85.5259 35.4646 85.5259C34.5199 85.5259 33.661 85.7675 32.8881 86.2506C32.1366 86.7128 31.5354 87.364 31.0846 88.2043C30.6551 89.0235 30.4404 89.9794 30.4404 91.0717C30.4404 92.1221 30.6659 93.0779 31.1168 93.9391C31.5676 94.7794 32.1688 95.4516 32.9203 95.9558C33.6932 96.439 34.5521 96.6805 35.4968 96.6805C36.0765 96.6805 36.6347 96.586 37.1715 96.3969C37.7297 96.1869 38.2128 95.9138 38.6208 95.5777C39.0287 95.2206 39.3186 94.8319 39.4903 94.4118L42.9686 95.4201C42.6036 96.2394 42.0561 96.9641 41.3261 97.5943C40.6176 98.2245 39.7695 98.7287 38.7818 99.1068C37.8156 99.464 36.7314 99.6425 35.529 99.6425Z" fill="white"/>
<path d="M53.3619 99.6425C52.0521 99.6425 50.8605 99.4219 49.787 98.9808C48.7349 98.5186 47.8224 97.8989 47.0495 97.1217C46.2765 96.3234 45.6753 95.4201 45.2459 94.4118C44.838 93.3825 44.634 92.2901 44.634 91.1347C44.634 89.5802 44.999 88.1623 45.729 86.8808C46.459 85.5784 47.4789 84.5386 48.7886 83.7613C50.0983 82.9631 51.6335 82.5639 53.3941 82.5639C55.1547 82.5639 56.6684 82.9631 57.9351 83.7613C59.2234 84.5386 60.2218 85.5679 60.9303 86.8493C61.6388 88.1308 61.9931 89.5067 61.9931 90.9772C61.9931 91.2293 61.9824 91.4708 61.9609 91.7019C61.9394 91.912 61.9179 92.0905 61.8965 92.2376H48.4021C48.4665 93.2039 48.7349 94.0547 49.2073 94.7899C49.7011 95.5042 50.3238 96.0713 51.0752 96.4915C51.8267 96.8906 52.6319 97.0902 53.4907 97.0902C54.4354 97.0902 55.3264 96.8591 56.1638 96.3969C57.0226 95.9348 57.6023 95.3256 57.9029 94.5694L60.9303 95.4201C60.5653 96.2184 60.007 96.9431 59.2556 97.5943C58.5256 98.2245 57.656 98.7287 56.6469 99.1068C55.6378 99.464 54.5428 99.6425 53.3619 99.6425ZM48.3055 89.9373H58.4826C58.4182 88.992 58.1391 88.1623 57.6453 87.448C57.1729 86.7128 56.561 86.1456 55.8095 85.7465C55.0795 85.3263 54.2636 85.1163 53.3619 85.1163C52.4816 85.1163 51.6657 85.3263 50.9142 85.7465C50.1842 86.1456 49.583 86.7128 49.1107 87.448C48.6383 88.1623 48.3699 88.992 48.3055 89.9373Z" fill="white"/>
<path d="M79.9875 99.3274H76.4448V90.0949C76.4448 88.5614 76.1872 87.4375 75.6719 86.7233C75.1781 86.0091 74.4373 85.6519 73.4497 85.6519C72.7626 85.6519 72.0755 85.82 71.3885 86.1561C70.7229 86.4922 70.1217 86.9544 69.5849 87.5426C69.0482 88.1097 68.6617 88.7715 68.4255 89.5277V99.3274H64.8828V82.8475H68.1034V86.1561C68.5329 85.4209 69.0911 84.7907 69.7782 84.2655C70.4867 83.7193 71.2811 83.2992 72.1614 83.0051C73.0417 82.711 73.9757 82.5639 74.9633 82.5639C75.9725 82.5639 76.7991 82.7425 77.4432 83.0996C78.1088 83.4567 78.6241 83.9504 78.9891 84.5806C79.3756 85.1898 79.6332 85.904 79.7621 86.7233C79.9123 87.5216 79.9875 88.3723 79.9875 89.2756V99.3274Z" fill="white"/>
<path d="M93.3457 98.4766C93.0451 98.6237 92.6694 98.7812 92.2185 98.9493C91.7676 99.1173 91.2523 99.2644 90.6726 99.3904C90.1144 99.5165 89.5347 99.5795 88.9335 99.5795C88.2035 99.5795 87.5272 99.4534 86.9045 99.2014C86.2819 98.9493 85.7773 98.5502 85.3908 98.004C85.0258 97.4368 84.8433 96.7121 84.8433 95.8298V85.5259H82.6211V82.8475H84.8433V77.4278H88.386V82.8475H92.0575V85.5259H88.386V94.7269C88.4289 95.2941 88.6114 95.7142 88.9335 95.9873C89.277 96.2604 89.6957 96.3969 90.1895 96.3969C90.6834 96.3969 91.1557 96.3129 91.6066 96.1449C92.0575 95.9768 92.3903 95.8403 92.605 95.7352L93.3457 98.4766Z" fill="white"/>
<path d="M103.212 99.6425C101.902 99.6425 100.711 99.4219 99.6372 98.9808C98.5852 98.5186 97.6727 97.8989 96.8997 97.1217C96.1268 96.3234 95.5256 95.4201 95.0962 94.4118C94.6882 93.3825 94.4843 92.2901 94.4843 91.1347C94.4843 89.5802 94.8493 88.1623 95.5793 86.8808C96.3093 85.5784 97.3291 84.5386 98.6389 83.7613C99.9486 82.9631 101.484 82.5639 103.244 82.5639C105.005 82.5639 106.519 82.9631 107.785 83.7613C109.074 84.5386 110.072 85.5679 110.781 86.8493C111.489 88.1308 111.843 89.5067 111.843 90.9772C111.843 91.2293 111.833 91.4708 111.811 91.7019C111.79 91.912 111.768 92.0905 111.747 92.2376H98.2524C98.3168 93.2039 98.5852 94.0547 99.0575 94.7899C99.5514 95.5042 100.174 96.0713 100.925 96.4915C101.677 96.8906 102.482 97.0902 103.341 97.0902C104.286 97.0902 105.177 96.8591 106.014 96.3969C106.873 95.9348 107.453 95.3256 107.753 94.5694L110.781 95.4201C110.416 96.2184 109.857 96.9431 109.106 97.5943C108.376 98.2245 107.506 98.7287 106.497 99.1068C105.488 99.464 104.393 99.6425 103.212 99.6425ZM98.1558 89.9373H108.333C108.268 88.992 107.989 88.1623 107.496 87.448C107.023 86.7128 106.411 86.1456 105.66 85.7465C104.93 85.3263 104.114 85.1163 103.212 85.1163C102.332 85.1163 101.516 85.3263 100.764 85.7465C100.034 86.1456 99.4333 86.7128 98.9609 87.448C98.4886 88.1623 98.2202 88.992 98.1558 89.9373Z" fill="white"/>
<path d="M124.202 85.841C122.828 85.862 121.604 86.1666 120.53 86.7548C119.478 87.343 118.727 88.1728 118.276 89.2441V99.3274H114.733V82.8475H118.018V86.5342C118.598 85.3999 119.36 84.4966 120.305 83.8244C121.249 83.1311 122.248 82.753 123.3 82.69C123.515 82.69 123.686 82.69 123.815 82.69C123.965 82.69 124.094 82.7005 124.202 82.7215V85.841Z" fill="white"/>
<path d="M41.2277 4.99562L156.066 4.99561V62.4146M29.8701 111H4V88.2847" stroke="white" stroke-width="3" stroke-linecap="round"/>
</svg>
