<svg width="249" height="196" viewBox="0 0 249 196" fill="none" xmlns="http://www.w3.org/2000/svg">
<path d="M113.782 68.2604L187.617 142.095" stroke="#31D8B0" stroke-opacity="0.29" stroke-width="7" stroke-linecap="square"/>
<path d="M96.116 29.3004L194.295 127.479" stroke="#31D8B0" stroke-opacity="0.29" stroke-width="10" stroke-linecap="square"/>
<path d="M43.1121 14.8912L199.97 171.749" stroke="#31D8B0" stroke-opacity="0.29" stroke-width="6" stroke-linecap="square"/>
<path d="M8.46826 5.74963L125.562 122.843" stroke="#31D8B0" stroke-opacity="0.29" stroke-width="3" stroke-linecap="square"/>
<path d="M52.1697 73.6525L162.756 184.239" stroke="#31D8B0" stroke-opacity="0.29" stroke-width="5" stroke-linecap="square"/>
<path d="M138.522 38.277L236.713 136.468" stroke="#31D8B0" stroke-opacity="0.29" stroke-width="3" stroke-linecap="square"/>
<path fill-rule="evenodd" clip-rule="evenodd" d="M147.09 85.1139L144.091 85.1194L143.548 134.069C143.297 132.176 143.005 130.491 142.676 128.99C141.433 123.326 139.618 120.092 137.262 118.138C135.269 116.485 132.99 115.871 130.988 115.332L130.988 115.332L130.988 115.332L130.987 115.332L130.987 115.332C130.679 115.249 130.377 115.168 130.084 115.085C129.303 114.864 128.539 114.624 127.79 114.312L127.802 114.321L122.59 112.636L123.879 114.642C124.575 115.724 125.565 116.584 126.732 117.121C127.597 117.475 128.448 117.74 129.267 117.971C129.613 118.069 129.946 118.161 130.269 118.249L130.27 118.249C132.296 118.803 133.893 119.24 135.347 120.447C136.976 121.798 138.573 124.289 139.745 129.633C140.208 131.743 140.599 134.27 140.902 137.305C140.474 136.643 140.033 136.04 139.582 135.486C137.571 133.013 135.415 131.588 133.624 130.405C133.457 130.294 133.292 130.185 133.131 130.078C132.802 129.859 132.489 129.646 132.193 129.435L127.696 126.556L127.736 126.677C128.546 129.17 130.068 131.367 132.11 133.001C133.854 134.157 135.596 135.339 137.255 137.379C138.772 139.245 140.256 141.885 141.468 145.935C141.48 146.271 141.492 146.61 141.503 146.954C141.123 146.529 140.711 146.172 140.266 145.874C139.209 145.166 138.087 144.879 137.04 144.717C136.533 144.639 136.015 144.586 135.526 144.536L135.525 144.536L135.525 144.536L135.524 144.536L135.492 144.532C134.981 144.48 134.492 144.429 133.994 144.355C133.22 144.238 132.42 144.064 131.59 143.728L126.703 142.22L127.18 143.233C128.034 145.045 129.657 146.378 131.6 146.866L131.552 146.888C132.237 147.091 132.904 147.224 133.548 147.321C134.126 147.408 134.683 147.465 135.186 147.517L135.187 147.517C135.702 147.569 136.153 147.616 136.581 147.682C137.428 147.813 138.059 148.006 138.597 148.366C139.647 149.07 140.836 150.764 141.7 155.724C142.048 157.72 142.333 160.182 142.55 163.225L143.239 167.999L143.846 177.684L143.846 188.776L143.506 194.583L143.603 195.326C145.729 192.951 147.053 189.963 147.381 186.788L147.438 186.23L147.922 180.577L148.327 172.309V169.146C148.432 161.353 149.447 156.541 150.85 153.482C152.217 150.5 153.974 149.13 155.801 148.259C156.756 147.804 157.742 147.48 158.798 147.135L158.868 147.112C159.781 146.815 160.767 146.494 161.704 146.061L162.378 145.672C164.597 144.393 165.756 141.842 165.26 139.329L163.935 140.904C162.761 142.3 161.183 143.295 159.421 143.756C158.941 143.933 158.426 144.101 157.868 144.283L157.855 144.287C156.824 144.623 155.662 145.002 154.51 145.551C152.113 146.694 149.811 148.548 148.122 152.232L148.08 152.325L148.013 147.791C149.515 141.121 151.316 137.425 153.139 135.336C154.906 133.312 156.791 132.686 158.856 132.425C159.652 132.324 160.433 132.281 161.269 132.235C161.579 132.217 161.897 132.2 162.225 132.179C163.397 132.104 164.657 131.985 165.913 131.643C166.382 131.515 166.845 131.358 167.299 131.165C169.534 129.723 170.915 127.269 170.987 124.607L168.154 127.131C167.708 127.528 167.213 127.866 166.683 128.137C166.274 128.357 165.861 128.523 165.446 128.654L165.314 128.705L165.328 128.69C165.26 128.711 165.192 128.73 165.124 128.749C164.172 129.008 163.16 129.113 162.034 129.185C161.764 129.202 161.483 129.218 161.194 129.234H161.194C160.327 129.281 159.39 129.333 158.479 129.448C155.933 129.771 153.271 130.622 150.878 133.364C150.025 134.341 149.222 135.542 148.469 137.015C149.154 131.647 149.989 128.163 150.895 125.839C152.023 122.946 153.229 121.923 154.398 121.25C154.829 121.002 155.21 120.823 155.643 120.618L155.644 120.618L155.644 120.618L155.644 120.618C155.927 120.484 156.233 120.34 156.59 120.159C157.42 119.739 158.319 119.21 159.21 118.373C160.083 117.554 160.897 116.491 161.654 115.039C162.477 113.34 162.602 111.377 161.988 109.576L161.673 108.654L159.222 113.197C158.519 114.66 157.817 115.566 157.158 116.185C156.552 116.754 155.926 117.133 155.235 117.483C155.031 117.586 154.79 117.7 154.532 117.823C154.012 118.071 153.418 118.353 152.901 118.65C151.097 119.689 149.457 121.268 148.1 124.749C147.961 125.107 147.824 125.484 147.691 125.884L147.09 85.1139Z" fill="black"/>
<path fill-rule="evenodd" clip-rule="evenodd" d="M150.036 28.6444L151.638 33.6812C155.348 45.3403 153.467 55.3973 151.158 65.1502C150.932 66.1016 150.703 67.0491 150.475 67.9945C149.103 73.6689 147.75 79.2688 147.321 85.1707C149.769 73.9958 153.76 66.9615 158.21 62.5187C164.851 55.8892 172.264 55.2969 176.107 54.9897L176.275 54.9763L181.291 54.5737L177.314 57.657C158.82 71.995 152.026 83.392 149.546 91.3602C149.274 92.235 149.053 93.0716 148.874 93.8697C148.626 95.7958 148.418 97.8278 148.252 99.9717C153.112 83.2092 159.812 73.5354 166.734 68.0009C176.049 60.5528 185.488 60.839 190.436 60.9891L190.646 60.9954L195.676 61.1463L191.384 63.774C165.651 79.5302 154.809 94.1312 150.232 104.564C150.127 104.804 150.025 105.041 149.926 105.277C149.591 106.612 149.267 107.99 148.954 109.412C159.684 92.4686 169.876 80.7491 179.368 74.0497C184.955 70.1065 190.367 67.8541 195.554 67.36C200.77 66.8633 205.653 68.1552 210.118 71.1204L213.407 73.3043L209.498 73.8553C186.421 77.1084 173.114 85.1801 164.313 94.0948C160.4 98.0583 157.349 102.217 154.712 106.263C162.431 96.4025 169.456 91.8345 175.618 90.1525C183.507 87.9993 189.668 90.6977 193.262 92.2716C193.644 92.4391 193.997 92.5939 194.321 92.7287L198.965 94.6657L194.018 95.5877C172.18 99.6576 160.615 106.087 154.505 111.564C152.213 114.793 149.841 118.538 147.397 122.873L146.117 122.492C146.065 122.524 146.01 122.555 145.95 122.583C145.601 122.747 145.271 122.752 145.004 122.7L144.508 123.175L144.506 123.173C141.373 119.894 138.395 116.912 135.561 114.209C133.801 112.837 131.755 111.414 129.401 110.028C119.337 104.097 103.568 98.7727 80.3902 101.009L76.4609 101.388L79.1469 98.4949C82.6712 94.6993 86.4648 91.7943 90.7894 90.2436C95.1399 88.6836 99.9087 88.5371 105.29 90.0651C114.007 92.5401 124.399 99.43 137.529 111.94C138.947 113.291 140.398 114.708 141.881 116.192C140.728 113.419 139.574 110.872 138.424 108.535C138.207 108.217 137.978 107.894 137.736 107.565C132.907 101.016 122.662 92.2706 100.439 84.9833L95.6573 83.4154L100.517 82.1094C100.863 82.0163 101.243 81.9066 101.654 81.7878L101.655 81.7876L101.656 81.7873L101.656 81.7872C105.412 80.7018 111.79 78.8589 119.229 82.0313C126.086 84.9553 133.598 92.0018 141.023 107.023C141.275 107.398 141.511 107.767 141.733 108.128C141.288 106.116 140.822 104.192 140.338 102.352C140.077 101.68 139.787 100.99 139.464 100.281C135.103 90.6979 124.647 77.4711 98.6278 62.1204L94.2937 59.5633L99.3204 59.3301C99.5571 59.3191 99.8049 59.3065 100.063 59.2935C105.072 59.04 114.058 58.5855 123.037 65.3472C130.557 71.0103 137.882 81.5753 143.081 100.994C143.105 100.694 143.128 100.38 143.15 100.05C143.095 97.3666 142.968 94.8482 142.776 92.4849C142.634 91.6794 142.451 90.8334 142.22 89.9468C140.113 81.872 133.856 70.1718 116.048 54.9903L112.218 51.7256L117.21 52.3608L117.377 52.382C121.202 52.8673 128.579 53.8033 134.905 60.7341C138.045 64.175 140.868 69.025 142.903 75.8927C142.027 63.6264 142.113 57.1981 142.851 52.6786C143.387 49.3949 144.264 47.1321 145.281 44.5105L145.281 44.5104L145.281 44.5102L145.281 44.5101L145.297 44.4712C146.311 41.8554 147.499 38.7929 148.754 33.7722L150.036 28.6444ZM150.11 39.9746C150.138 40.1354 150.166 40.2959 150.192 40.4562L150.071 40.0951L150.11 39.9746ZM123.406 103.651L123.527 103.703L123.355 103.568L123.406 103.651ZM104.568 62.2121C104.554 62.2031 104.539 62.1942 104.525 62.1852C104.579 62.1861 104.633 62.1872 104.687 62.1884L104.568 62.2121Z" fill="black"/>
</svg>
