<svg width="311" height="223" viewBox="0 0 311 223" fill="none" xmlns="http://www.w3.org/2000/svg">
<path fill-rule="evenodd" clip-rule="evenodd" d="M126.689 24.1787C165.48 54.5071 204.185 88.4063 234.344 119.329C297.22 183.798 299.144 210.918 238.64 179.903C209.51 164.971 171.221 139.285 132.327 109.468C174.407 142.368 216.589 171.067 248.072 187.205C308.576 218.22 306.652 191.101 243.776 126.632C211.172 93.2019 168.58 56.2935 126.689 24.1787Z" fill="url(#paint0_linear_248_506)"/>
<path fill-rule="evenodd" clip-rule="evenodd" d="M206.711 155.547C172.973 122.667 135.86 90.3268 102.666 65.7064C33.4638 14.3767 7.50433 16.0379 44.6841 69.4169C62.5847 95.1166 91.8575 128.119 125.126 161.164C88.5247 125.494 55.8948 89.1882 36.5485 61.4127C-0.631365 8.03378 25.3282 6.37253 94.5306 57.7022C130.415 84.3188 170.881 119.957 206.711 155.547Z" fill="url(#paint1_linear_248_506)"/>
<path fill-rule="evenodd" clip-rule="evenodd" d="M268.809 170.855C235.071 137.975 197.958 105.635 164.764 81.0145C95.562 29.6848 69.6025 31.346 106.782 84.725C124.683 110.425 153.956 143.427 187.224 176.472C150.623 140.802 117.993 104.496 98.6466 76.7208C61.4668 23.3419 87.4263 21.6806 156.629 73.0103C192.513 99.6269 232.979 135.266 268.809 170.855Z" fill="url(#paint2_linear_248_506)"/>
<path d="M123.676 118.684C121.026 116.538 117.693 115.296 114.098 115.385C105.706 115.591 99.0613 122.959 99.2557 131.845C99.4501 140.729 106.41 147.764 114.802 147.559C115.461 147.542 116.109 147.482 116.744 147.38L114.197 142.869C113.181 141.069 114.102 138.8 116.093 138.2L128.494 134.463C128.806 134.369 129.119 134.278 129.432 134.188C129.593 133.186 129.667 132.153 129.644 131.099C129.634 130.643 129.606 130.192 129.561 129.747C126.654 126.747 124.571 122.937 123.676 118.684Z" fill="black"/>
<path d="M117.722 149.111C112.598 148.972 107.468 149.497 102.463 150.685L94.7199 152.524C92.6718 153.01 91.6324 155.267 92.5998 157.129L101.982 175.189C102.989 177.127 103.488 179.283 103.431 181.457L102.829 204.462C102.79 205.961 103.797 207.295 105.261 207.684L115.625 210.434C116.223 210.593 116.853 210.58 117.442 210.397L125.137 208.01L128.5 172.888C128.75 170.275 128.191 167.648 126.898 165.358L117.722 149.111Z" fill="black"/>
<path d="M166.176 207.62L176.796 210.441C176.931 210.477 177.068 210.504 177.205 210.522C177.38 210.546 177.555 210.556 177.73 210.551C178.029 210.543 178.326 210.494 178.614 210.405L188.819 207.241C190.261 206.794 191.197 205.42 191.078 203.925L189.25 180.969C189.077 178.8 189.46 176.625 190.363 174.648L198.772 156.231C199.639 154.332 198.481 152.118 196.409 151.715L188.576 150.191C183.618 149.226 178.575 148.9 173.568 149.212L164.87 165.568C163.721 167.728 163.214 170.167 163.406 172.602L166.176 207.62Z" fill="black"/>
<path d="M174.467 147.521C174.956 147.559 175.45 147.573 175.95 147.56C184.341 147.354 190.986 139.986 190.792 131.1C190.598 122.216 183.637 115.18 175.246 115.386C172.508 115.453 169.956 116.283 167.767 117.68C166.905 122.95 164.229 127.605 160.407 130.975C160.399 131.263 160.398 131.554 160.404 131.846C160.419 132.536 160.475 133.215 160.569 133.88C161.298 134.071 162.023 134.276 162.745 134.495L175.038 138.225C176.993 138.818 177.921 141.027 176.967 142.82L174.467 147.521Z" fill="black"/>
<path d="M169.084 94.9094L170.676 108.67H167.491L169.084 94.9094Z" fill="black"/>
<path d="M169.084 113.439L170.676 108.663H167.491L169.084 113.439Z" fill="black"/>
<path d="M176.157 153.847L181.315 149.222L178.553 148.984C176.892 148.841 175.22 148.906 173.575 149.179L172.875 150.541L176.157 153.847Z" fill="white"/>
<path d="M176.845 185.12L182.003 180.164L171.476 180.423L176.845 185.12Z" fill="white"/>
<path d="M176.157 153.762L182.001 180.177L171.475 180.435L176.157 153.762Z" fill="white"/>
<path d="M115.012 153.106L118.465 150.428L117.749 149.113C115.859 148.923 113.955 148.938 112.069 149.157L109.643 149.439L115.012 153.106Z" fill="white"/>
<path d="M115.703 184.468L120.86 179.512L110.334 179.771L115.703 184.468Z" fill="white"/>
<path d="M115.012 153.106L120.856 179.521L110.33 179.779L115.012 153.106Z" fill="white"/>
<path d="M163.867 113.409C163.867 123.801 155.495 132.226 145.168 132.226C134.842 132.226 126.47 123.801 126.47 113.409C126.47 103.017 134.842 94.5924 145.168 94.5924C155.495 94.5924 163.867 103.017 163.867 113.409Z" fill="black"/>
<path d="M117.187 143.794C116.213 141.895 117.327 139.598 119.432 139.166L133.28 136.327C141.123 134.719 149.216 134.719 157.059 136.327L170.906 139.166C173.012 139.598 174.126 141.895 173.151 143.794L161.718 166.066C160.677 168.094 160.195 170.36 160.32 172.632L161.854 200.304C161.938 201.821 160.944 203.191 159.466 203.595L146.036 207.267C145.469 207.422 144.87 207.422 144.302 207.267L130.873 203.595C129.395 203.191 128.401 201.821 128.485 200.304L130.018 172.632C130.144 170.36 129.662 168.094 128.621 166.066L117.187 143.794Z" fill="black"/>
<path d="M145.167 140.021L151.711 135.467L151.58 135.452C147.319 134.975 143.017 134.98 138.757 135.467L145.167 140.021Z" fill="white"/>
<path d="M145.167 176.706L151.645 171.061H138.69L145.167 176.706Z" fill="white"/>
<path d="M145.167 140.021L151.645 171.068H138.69L145.167 140.021Z" fill="white"/>
<path d="M144.723 82.552L172.431 94.9084L144.723 108.439L117.015 94.9084L144.723 82.552Z" fill="black"/>
<defs>
<linearGradient id="paint0_linear_248_506" x1="139.515" y1="117.851" x2="181.729" y2="62.7635" gradientUnits="userSpaceOnUse">
<stop stop-color="#31D8B0"/>
<stop offset="1" stop-color="white"/>
</linearGradient>
<linearGradient id="paint1_linear_248_506" x1="116.252" y1="155.424" x2="163.057" y2="108.322" gradientUnits="userSpaceOnUse">
<stop stop-color="#31D8B0" stop-opacity="0.41"/>
<stop offset="1" stop-color="white"/>
</linearGradient>
<linearGradient id="paint2_linear_248_506" x1="178.35" y1="170.732" x2="225.155" y2="123.63" gradientUnits="userSpaceOnUse">
<stop stop-color="#31D8B0" stop-opacity="0.41"/>
<stop offset="1" stop-color="white"/>
</linearGradient>
</defs>
</svg>
