<svg width="243" height="201" viewBox="0 0 243 201" fill="none" xmlns="http://www.w3.org/2000/svg">
<path d="M28.4845 34.9536L59.4427 16.8743L90.5789 34.6454L90.7568 70.4956L59.7986 88.5748L28.6624 70.8038L28.4845 34.9536Z" stroke="#31D8B0" stroke-opacity="0.29" stroke-width="1.2"/>
<path d="M78.1143 49.4836L113.371 28.8941L148.83 49.1326L149.033 89.9606L113.776 110.55L78.3169 90.3116L78.1143 49.4836Z" stroke="#31D8B0" stroke-opacity="0.29" stroke-width="1.2"/>
<path d="M6.48448 107.954L37.4427 89.8743L68.5789 107.645L68.7568 143.496L37.7986 161.575L6.66242 143.804L6.48448 107.954Z" stroke="#31D8B0" stroke-opacity="0.29" stroke-width="1.2"/>
<path d="M158.627 12.0213L177.831 0.806657L197.144 11.8301L197.255 34.0681L178.051 45.2827L158.737 34.2593L158.627 12.0213Z" stroke="#31D8B0" stroke-opacity="0.29" stroke-width="1.2"/>
<path d="M157.623 103.453L196.35 80.8368L235.299 103.067L235.522 147.914L196.795 170.53L157.845 148.3L157.623 103.453Z" stroke="#31D8B0" stroke-opacity="0.29" stroke-width="1.2"/>
<mask id="path-6-inside-1_248_38" fill="white">
<path d="M183.463 89.8312C189.16 91.0775 196.722 91.7294 196.722 91.7294L192.546 95.6484C191.469 96.6584 190.859 98.0688 190.859 99.5449L190.061 105.767V110.713L189.502 118.372C189.502 120.463 188.963 122.52 187.936 124.342L187.029 125.95L186.588 126.643C186.167 127.305 185.438 127.705 184.654 127.705C184.031 127.705 183.435 127.451 183.003 127.002L181.941 125.899C181.631 125.578 181.094 125.679 180.922 126.091L180.732 126.545C180.49 127.125 179.759 127.312 179.255 126.935C178.699 126.52 178.102 126.101 177.776 125.95C177.383 125.769 176.84 125.056 176.431 124.434C176.152 124.011 175.746 123.679 175.261 123.53L172.318 122.625C172.128 122.566 171.929 122.536 171.73 122.536H168.747C168.293 122.536 167.848 122.686 167.525 123.005C166.978 123.545 166.29 124.367 165.976 125.219C165.803 125.689 165.549 126.416 165.281 127.197C164.572 129.26 164.673 131.468 164.673 133.649V138.477C164.673 138.827 164.378 139.72 163.982 140.757C162.995 143.344 161.838 145.978 161.838 148.747C161.838 149.053 163.294 149.896 163.37 150.279C163.447 150.663 165.516 152.885 166.513 153.651C167.509 154.418 170.038 155.108 171.571 156.104C173.104 157.1 173.333 157.177 175.096 158.786C176.506 160.074 176.603 161.52 176.476 162.082V167.37L175.863 174.421L176.476 177.869L176.955 180.264C177.093 180.954 177.046 181.669 176.819 182.336L175.863 185.15V186.652C175.863 187.326 175.692 187.989 175.367 188.579L174.176 190.744V193.718C174.176 194.141 173.911 194.518 173.513 194.66L172.194 195.131C172.086 195.17 171.972 195.19 171.858 195.19H170.728C170.421 195.19 169.808 193.81 168.888 192.737C167.969 191.664 167.739 190.744 167.509 189.748C167.279 188.752 167.662 188.215 168.199 187.679C168.628 187.25 170.268 186.223 171.034 185.763V182.468C171.213 180.807 171.571 177.21 171.571 176.107C171.571 174.727 171.494 172.734 171.571 172.351C171.647 171.968 169.118 165.454 168.888 164.994C167.92 163.057 165.379 162.508 163.232 162.229C162.565 162.143 162.027 162.082 161.838 162.082C161.479 162.082 159.51 161.48 157.82 160.936C156.724 160.584 155.705 160.03 154.803 159.315L152.847 157.765C152.366 157.384 151.771 157.177 151.157 157.177C150.263 157.177 149.425 157.616 148.917 158.352L147.81 159.956C147.608 160.249 147.43 160.557 147.28 160.879L146.517 162.503C146.002 163.6 145.579 164.737 145.253 165.905L144.671 167.983L142.678 173.348L140.379 177.869L139.402 181.125C138.983 182.524 138.77 183.976 138.77 185.435V188.675L140.379 190.744L141.14 191.569C141.842 192.329 142.29 193.288 142.424 194.314L142.628 195.878C142.66 196.125 142.599 196.376 142.456 196.58L141.904 197.369C141.717 197.636 141.411 197.795 141.085 197.795H134.511C133.844 197.795 133.364 197.154 133.552 196.513L133.941 195.19L134.528 193.087C134.744 192.313 134.699 191.49 134.401 190.744L133.175 186.989L134.861 182.468C135.168 181.062 135.827 178.099 136.011 177.486C136.124 177.106 136.44 175.219 136.743 173.315C137.079 171.198 136.717 168.989 137.237 166.91C137.359 166.419 138.31 163.487 138.77 162.082L139.125 160.091C139.648 157.162 139.527 154.153 138.77 151.276H130.723L130.952 152.461C131.071 153.079 130.599 153.651 129.97 153.651H120.76L119.603 155.234C119.415 155.492 119.115 155.644 118.796 155.644H115.935C115.383 155.644 114.935 155.196 114.935 154.644V151.276H109.724C108.114 151.071 104.788 150.601 104.359 150.356C103.93 150.111 100.042 148.721 98.1512 148.057L96.2135 147.2C94.8841 146.612 93.4004 146.469 91.9832 146.792C90.5642 147.116 89.2879 147.889 88.3447 148.998L80.601 158.097L77.3821 162.695V163.146C77.3821 165.106 77.9272 167.027 78.9564 168.695C79.3871 169.393 79.8976 170.038 80.4775 170.618L83.7431 173.884L87.6882 178.402C88.2082 178.997 88.4947 179.761 88.4947 180.552V187.832V191.43C88.4947 191.725 88.3652 192.004 88.1407 192.194L86.9408 193.209C86.6692 193.439 86.2959 193.507 85.9605 193.388L84.5272 192.879C84.2711 192.788 84.0629 192.597 83.9508 192.35L82.144 188.362C81.9956 188.035 82.0345 187.652 82.2462 187.362L83.7431 185.303C83.9475 184.741 84.3869 183.54 84.5095 183.234C84.6321 182.927 83.5388 182.595 82.9768 182.468V180.552L81.9038 178.866L79.998 176.733C79.1256 175.757 78.1433 174.884 77.0707 174.134L74.0867 172.045L71.426 169.79C70.1917 168.744 69.0937 167.538 68.2712 166.145C67.7648 165.287 67.3425 164.489 67.3425 164.228C67.3425 163.737 67.9045 161.52 68.1855 160.472L67.9492 160.658C66.6807 161.655 65.5349 162.799 64.5361 164.065C63.4482 165.445 62.5434 166.96 61.8439 168.571L61.1348 170.205L60.9064 170.611C59.6851 172.783 58.7701 175.113 58.1875 177.535L57.6094 179.938L56.9963 182.468L55.9823 186.344C55.8002 187.04 55.8092 187.772 56.0083 188.463L56.7253 190.953C56.902 191.567 57.2564 192.114 57.7439 192.527C57.9093 192.667 58.0602 192.823 58.1944 192.993L60.9201 196.45C61.0592 196.626 61.1348 196.844 61.1348 197.069V198.938C61.1348 199.357 60.8741 199.731 60.4814 199.876L57.8923 200.833C57.7078 200.901 57.5073 200.913 57.3159 200.868L53.1075 199.874C52.5536 199.744 52.2204 199.178 52.3749 198.63L53.1198 195.989C53.2916 195.38 53.165 194.725 52.7786 194.224L51.6316 192.737V185.763L52.4747 176.643V172.956C52.4747 171.641 52.6704 170.332 53.0555 169.074C53.4326 167.842 53.9873 166.672 54.7019 165.6L56.0796 163.533C56.6895 162.619 57.2142 161.65 57.6473 160.639L58.3758 158.94L61.5398 153.402C61.6762 153.164 61.7479 152.894 61.7479 152.619V147.193C61.7479 146.612 61.5442 146.05 61.1724 145.604C61.0456 145.451 60.9375 145.285 60.8503 145.107L59.9708 143.313C59.369 142.085 58.8856 140.798 58.6796 139.447C58.4841 138.165 58.3758 136.99 58.3758 136.791C58.3758 136.587 58.1055 134.222 57.9239 132.049C57.7677 130.181 58.2008 128.331 59.0421 126.656L59.3361 126.071C60.0215 124.706 61.0296 123.529 62.273 122.642C62.9419 122.165 63.5452 121.602 64.0675 120.968L65.4265 119.317L65.3402 119.279C63.694 118.553 61.8765 118.305 60.0959 118.564C59.1085 118.708 58.1496 119.005 57.254 119.445L56.2725 119.926C55.0451 120.529 54.0223 121.479 53.3315 122.66C52.8176 123.537 52.5023 124.517 52.4078 125.53L52.2776 126.925C52.1044 128.781 52.3239 130.653 52.922 132.419L53.6242 134.492L55.022 139.384C55.3158 140.412 55.5177 141.465 55.6255 142.528C55.9218 145.455 55.4995 148.409 54.3954 151.135L54.2237 151.558C53.8247 152.543 53.3475 153.495 52.7966 154.404L51.5559 156.451C50.8949 157.542 50.4036 158.726 50.0988 159.965L49.6571 161.759C49.441 162.637 49.2877 163.53 49.1985 164.429L48.8794 167.65C48.6281 170.186 47.4596 172.542 45.5934 174.278C44.9761 174.852 44.2921 175.349 43.556 175.76L37.99 178.866C39.3131 177.899 40.5088 176.769 41.5517 175.505C42.7924 174.001 44.1363 172.378 44.4276 172.045C44.6738 171.763 44.8309 170.527 44.9249 169.216C45.0517 167.447 44.6677 165.687 43.9475 164.067C43.2535 162.505 42.8948 160.816 42.8948 159.107V155.428C42.8948 154.704 42.9498 153.982 43.0591 153.267L43.2615 151.944C43.6795 149.211 43.7404 146.435 43.4426 143.686L42.8948 138.63C42.1892 135.354 42.2525 131.959 43.0797 128.711L43.5452 126.883C43.7747 125.982 44.1312 125.119 44.6041 124.319L46.3386 121.383C47.3504 119.671 48.7396 118.212 50.4005 117.118C52.9772 115.42 56.0714 114.689 59.1354 115.054L60.3798 115.202L66.1754 116.216H70.0875L73.3169 115.651C75.0245 115.352 76.7548 115.202 78.4883 115.202H80.761C82.2401 115.202 83.7173 115.311 85.1803 115.529L87.5951 115.889C89.0581 116.107 90.5353 116.216 92.0144 116.216H97.18C99.1241 116.216 100.983 115.418 102.322 114.009C102.757 113.55 103.129 113.036 103.428 112.479L106.554 106.659C106.968 105.888 107.253 105.053 107.397 104.189L108.251 99.0673C108.405 98.143 108.395 97.1988 108.223 96.2778L107.317 91.446C107.225 90.9598 107.18 90.4663 107.18 89.9717V83.4706V80.1382V79.3813C107.18 78.0438 107.848 76.7949 108.961 76.053L109.238 75.8681C109.602 75.6256 109.924 75.3251 110.19 74.9785L110.699 74.3167C111.048 73.8637 111.236 73.3082 111.236 72.7366V72.5181C111.236 72.0141 111.049 71.5281 110.71 71.1551C110.116 70.5024 109.788 69.6519 109.788 68.7698V67.9673V65.6493C109.788 65.2492 110.112 64.9249 110.512 64.9249C110.912 64.9249 111.236 64.6005 111.236 64.2004V63.6483C111.236 63.3496 111.132 63.0605 110.941 62.8311L110.252 62.0051C109.952 61.6446 109.788 61.1903 109.788 60.7211C109.788 60.1554 109.955 59.6024 110.269 59.1317L110.453 58.8549C110.96 58.0951 111.713 57.5334 112.586 57.2649L113.885 56.8651C114.627 56.637 115.398 56.521 116.174 56.521H117.304C118.084 56.521 118.858 56.6467 119.598 56.8932L120.642 57.2413C121.495 57.5257 122.229 58.0864 122.728 58.8347C123.171 59.499 123.407 60.2796 123.407 61.078V62.7651C123.407 63.0335 123.519 63.2896 123.717 63.4717L125.291 64.9249L123.838 65.9306C123.568 66.1174 123.407 66.4246 123.407 66.7528V68.8034C123.407 69.0136 123.474 69.2184 123.597 69.3888L124.623 70.8098C124.977 71.2997 124.818 71.9892 124.286 72.2757L123.933 72.4658C123.609 72.6402 123.407 72.9784 123.407 73.3463V75.5019H121.061C120.276 75.5019 119.64 76.1381 119.64 76.9228C119.64 77.132 119.686 77.3386 119.775 77.5279L121.673 81.5599C121.861 81.9595 121.958 82.3957 121.958 82.8373V91.4744C121.958 92.9666 122.789 94.3348 124.113 95.0233L128.528 97.3192C128.974 97.551 129.46 97.6968 129.959 97.7488L133.914 98.1607C135.306 98.3058 136.522 99.1689 137.118 100.436L137.52 101.29C138.104 102.53 139.35 103.321 140.72 103.321C141.692 103.321 142.622 102.921 143.29 102.214L147.926 97.3105C149.149 96.0166 150.608 94.9679 152.224 94.2207L160.744 90.2825C163.637 88.9448 166.787 88.252 169.975 88.252H173.209C176.66 88.252 180.091 89.0937 183.463 89.8312Z"/>
</mask>
<path d="M183.463 89.8312C189.16 91.0775 196.722 91.7294 196.722 91.7294L192.546 95.6484C191.469 96.6584 190.859 98.0688 190.859 99.5449L190.061 105.767V110.713L189.502 118.372C189.502 120.463 188.963 122.52 187.936 124.342L187.029 125.95L186.588 126.643C186.167 127.305 185.438 127.705 184.654 127.705C184.031 127.705 183.435 127.451 183.003 127.002L181.941 125.899C181.631 125.578 181.094 125.679 180.922 126.091L180.732 126.545C180.49 127.125 179.759 127.312 179.255 126.935C178.699 126.52 178.102 126.101 177.776 125.95C177.383 125.769 176.84 125.056 176.431 124.434C176.152 124.011 175.746 123.679 175.261 123.53L172.318 122.625C172.128 122.566 171.929 122.536 171.73 122.536H168.747C168.293 122.536 167.848 122.686 167.525 123.005C166.978 123.545 166.29 124.367 165.976 125.219C165.803 125.689 165.549 126.416 165.281 127.197C164.572 129.26 164.673 131.468 164.673 133.649V138.477C164.673 138.827 164.378 139.72 163.982 140.757C162.995 143.344 161.838 145.978 161.838 148.747C161.838 149.053 163.294 149.896 163.37 150.279C163.447 150.663 165.516 152.885 166.513 153.651C167.509 154.418 170.038 155.108 171.571 156.104C173.104 157.1 173.333 157.177 175.096 158.786C176.506 160.074 176.603 161.52 176.476 162.082V167.37L175.863 174.421L176.476 177.869L176.955 180.264C177.093 180.954 177.046 181.669 176.819 182.336L175.863 185.15V186.652C175.863 187.326 175.692 187.989 175.367 188.579L174.176 190.744V193.718C174.176 194.141 173.911 194.518 173.513 194.66L172.194 195.131C172.086 195.17 171.972 195.19 171.858 195.19H170.728C170.421 195.19 169.808 193.81 168.888 192.737C167.969 191.664 167.739 190.744 167.509 189.748C167.279 188.752 167.662 188.215 168.199 187.679C168.628 187.25 170.268 186.223 171.034 185.763V182.468C171.213 180.807 171.571 177.21 171.571 176.107C171.571 174.727 171.494 172.734 171.571 172.351C171.647 171.968 169.118 165.454 168.888 164.994C167.92 163.057 165.379 162.508 163.232 162.229C162.565 162.143 162.027 162.082 161.838 162.082C161.479 162.082 159.51 161.48 157.82 160.936C156.724 160.584 155.705 160.03 154.803 159.315L152.847 157.765C152.366 157.384 151.771 157.177 151.157 157.177C150.263 157.177 149.425 157.616 148.917 158.352L147.81 159.956C147.608 160.249 147.43 160.557 147.28 160.879L146.517 162.503C146.002 163.6 145.579 164.737 145.253 165.905L144.671 167.983L142.678 173.348L140.379 177.869L139.402 181.125C138.983 182.524 138.77 183.976 138.77 185.435V188.675L140.379 190.744L141.14 191.569C141.842 192.329 142.29 193.288 142.424 194.314L142.628 195.878C142.66 196.125 142.599 196.376 142.456 196.58L141.904 197.369C141.717 197.636 141.411 197.795 141.085 197.795H134.511C133.844 197.795 133.364 197.154 133.552 196.513L133.941 195.19L134.528 193.087C134.744 192.313 134.699 191.49 134.401 190.744L133.175 186.989L134.861 182.468C135.168 181.062 135.827 178.099 136.011 177.486C136.124 177.106 136.44 175.219 136.743 173.315C137.079 171.198 136.717 168.989 137.237 166.91C137.359 166.419 138.31 163.487 138.77 162.082L139.125 160.091C139.648 157.162 139.527 154.153 138.77 151.276H130.723L130.952 152.461C131.071 153.079 130.599 153.651 129.97 153.651H120.76L119.603 155.234C119.415 155.492 119.115 155.644 118.796 155.644H115.935C115.383 155.644 114.935 155.196 114.935 154.644V151.276H109.724C108.114 151.071 104.788 150.601 104.359 150.356C103.93 150.111 100.042 148.721 98.1512 148.057L96.2135 147.2C94.8841 146.612 93.4004 146.469 91.9832 146.792C90.5642 147.116 89.2879 147.889 88.3447 148.998L80.601 158.097L77.3821 162.695V163.146C77.3821 165.106 77.9272 167.027 78.9564 168.695C79.3871 169.393 79.8976 170.038 80.4775 170.618L83.7431 173.884L87.6882 178.402C88.2082 178.997 88.4947 179.761 88.4947 180.552V187.832V191.43C88.4947 191.725 88.3652 192.004 88.1407 192.194L86.9408 193.209C86.6692 193.439 86.2959 193.507 85.9605 193.388L84.5272 192.879C84.2711 192.788 84.0629 192.597 83.9508 192.35L82.144 188.362C81.9956 188.035 82.0345 187.652 82.2462 187.362L83.7431 185.303C83.9475 184.741 84.3869 183.54 84.5095 183.234C84.6321 182.927 83.5388 182.595 82.9768 182.468V180.552L81.9038 178.866L79.998 176.733C79.1256 175.757 78.1433 174.884 77.0707 174.134L74.0867 172.045L71.426 169.79C70.1917 168.744 69.0937 167.538 68.2712 166.145C67.7648 165.287 67.3425 164.489 67.3425 164.228C67.3425 163.737 67.9045 161.52 68.1855 160.472L67.9492 160.658C66.6807 161.655 65.5349 162.799 64.5361 164.065C63.4482 165.445 62.5434 166.96 61.8439 168.571L61.1348 170.205L60.9064 170.611C59.6851 172.783 58.7701 175.113 58.1875 177.535L57.6094 179.938L56.9963 182.468L55.9823 186.344C55.8002 187.04 55.8092 187.772 56.0083 188.463L56.7253 190.953C56.902 191.567 57.2564 192.114 57.7439 192.527C57.9093 192.667 58.0602 192.823 58.1944 192.993L60.9201 196.45C61.0592 196.626 61.1348 196.844 61.1348 197.069V198.938C61.1348 199.357 60.8741 199.731 60.4814 199.876L57.8923 200.833C57.7078 200.901 57.5073 200.913 57.3159 200.868L53.1075 199.874C52.5536 199.744 52.2204 199.178 52.3749 198.63L53.1198 195.989C53.2916 195.38 53.165 194.725 52.7786 194.224L51.6316 192.737V185.763L52.4747 176.643V172.956C52.4747 171.641 52.6704 170.332 53.0555 169.074C53.4326 167.842 53.9873 166.672 54.7019 165.6L56.0796 163.533C56.6895 162.619 57.2142 161.65 57.6473 160.639L58.3758 158.94L61.5398 153.402C61.6762 153.164 61.7479 152.894 61.7479 152.619V147.193C61.7479 146.612 61.5442 146.05 61.1724 145.604C61.0456 145.451 60.9375 145.285 60.8503 145.107L59.9708 143.313C59.369 142.085 58.8856 140.798 58.6796 139.447C58.4841 138.165 58.3758 136.99 58.3758 136.791C58.3758 136.587 58.1055 134.222 57.9239 132.049C57.7677 130.181 58.2008 128.331 59.0421 126.656L59.3361 126.071C60.0215 124.706 61.0296 123.529 62.273 122.642C62.9419 122.165 63.5452 121.602 64.0675 120.968L65.4265 119.317L65.3402 119.279C63.694 118.553 61.8765 118.305 60.0959 118.564C59.1085 118.708 58.1496 119.005 57.254 119.445L56.2725 119.926C55.0451 120.529 54.0223 121.479 53.3315 122.66C52.8176 123.537 52.5023 124.517 52.4078 125.53L52.2776 126.925C52.1044 128.781 52.3239 130.653 52.922 132.419L53.6242 134.492L55.022 139.384C55.3158 140.412 55.5177 141.465 55.6255 142.528C55.9218 145.455 55.4995 148.409 54.3954 151.135L54.2237 151.558C53.8247 152.543 53.3475 153.495 52.7966 154.404L51.5559 156.451C50.8949 157.542 50.4036 158.726 50.0988 159.965L49.6571 161.759C49.441 162.637 49.2877 163.53 49.1985 164.429L48.8794 167.65C48.6281 170.186 47.4596 172.542 45.5934 174.278C44.9761 174.852 44.2921 175.349 43.556 175.76L37.99 178.866C39.3131 177.899 40.5088 176.769 41.5517 175.505C42.7924 174.001 44.1363 172.378 44.4276 172.045C44.6738 171.763 44.8309 170.527 44.9249 169.216C45.0517 167.447 44.6677 165.687 43.9475 164.067C43.2535 162.505 42.8948 160.816 42.8948 159.107V155.428C42.8948 154.704 42.9498 153.982 43.0591 153.267L43.2615 151.944C43.6795 149.211 43.7404 146.435 43.4426 143.686L42.8948 138.63C42.1892 135.354 42.2525 131.959 43.0797 128.711L43.5452 126.883C43.7747 125.982 44.1312 125.119 44.6041 124.319L46.3386 121.383C47.3504 119.671 48.7396 118.212 50.4005 117.118C52.9772 115.42 56.0714 114.689 59.1354 115.054L60.3798 115.202L66.1754 116.216H70.0875L73.3169 115.651C75.0245 115.352 76.7548 115.202 78.4883 115.202H80.761C82.2401 115.202 83.7173 115.311 85.1803 115.529L87.5951 115.889C89.0581 116.107 90.5353 116.216 92.0144 116.216H97.18C99.1241 116.216 100.983 115.418 102.322 114.009C102.757 113.55 103.129 113.036 103.428 112.479L106.554 106.659C106.968 105.888 107.253 105.053 107.397 104.189L108.251 99.0673C108.405 98.143 108.395 97.1988 108.223 96.2778L107.317 91.446C107.225 90.9598 107.18 90.4663 107.18 89.9717V83.4706V80.1382V79.3813C107.18 78.0438 107.848 76.7949 108.961 76.053L109.238 75.8681C109.602 75.6256 109.924 75.3251 110.19 74.9785L110.699 74.3167C111.048 73.8637 111.236 73.3082 111.236 72.7366V72.5181C111.236 72.0141 111.049 71.5281 110.71 71.1551C110.116 70.5024 109.788 69.6519 109.788 68.7698V67.9673V65.6493C109.788 65.2492 110.112 64.9249 110.512 64.9249C110.912 64.9249 111.236 64.6005 111.236 64.2004V63.6483C111.236 63.3496 111.132 63.0605 110.941 62.8311L110.252 62.0051C109.952 61.6446 109.788 61.1903 109.788 60.7211C109.788 60.1554 109.955 59.6024 110.269 59.1317L110.453 58.8549C110.96 58.0951 111.713 57.5334 112.586 57.2649L113.885 56.8651C114.627 56.637 115.398 56.521 116.174 56.521H117.304C118.084 56.521 118.858 56.6467 119.598 56.8932L120.642 57.2413C121.495 57.5257 122.229 58.0864 122.728 58.8347C123.171 59.499 123.407 60.2796 123.407 61.078V62.7651C123.407 63.0335 123.519 63.2896 123.717 63.4717L125.291 64.9249L123.838 65.9306C123.568 66.1174 123.407 66.4246 123.407 66.7528V68.8034C123.407 69.0136 123.474 69.2184 123.597 69.3888L124.623 70.8098C124.977 71.2997 124.818 71.9892 124.286 72.2757L123.933 72.4658C123.609 72.6402 123.407 72.9784 123.407 73.3463V75.5019H121.061C120.276 75.5019 119.64 76.1381 119.64 76.9228C119.64 77.132 119.686 77.3386 119.775 77.5279L121.673 81.5599C121.861 81.9595 121.958 82.3957 121.958 82.8373V91.4744C121.958 92.9666 122.789 94.3348 124.113 95.0233L128.528 97.3192C128.974 97.551 129.46 97.6968 129.959 97.7488L133.914 98.1607C135.306 98.3058 136.522 99.1689 137.118 100.436L137.52 101.29C138.104 102.53 139.35 103.321 140.72 103.321C141.692 103.321 142.622 102.921 143.29 102.214L147.926 97.3105C149.149 96.0166 150.608 94.9679 152.224 94.2207L160.744 90.2825C163.637 88.9448 166.787 88.252 169.975 88.252H173.209C176.66 88.252 180.091 89.0937 183.463 89.8312Z" stroke="black" stroke-width="74" mask="url(#path-6-inside-1_248_38)"/>
</svg>
