<svg width="243" height="201" viewBox="0 0 243 201" fill="none" xmlns="http://www.w3.org/2000/svg">
<path d="M28.4845 34.9536L59.4427 16.8743L90.5789 34.6454L90.7568 70.4956L59.7986 88.5748L28.6624 70.8038L28.4845 34.9536Z" stroke="#31D8B0" stroke-opacity="0.29" stroke-width="1.2"/>
<path d="M78.1143 49.4836L113.371 28.8941L148.83 49.1326L149.033 89.9606L113.776 110.55L78.3169 90.3116L78.1143 49.4836Z" stroke="#31D8B0" stroke-opacity="0.29" stroke-width="1.2"/>
<path d="M6.48448 107.954L37.4427 89.8743L68.5789 107.645L68.7568 143.496L37.7986 161.575L6.66242 143.804L6.48448 107.954Z" stroke="#31D8B0" stroke-opacity="0.29" stroke-width="1.2"/>
<path d="M158.627 12.0212L177.831 0.806596L197.144 11.83L197.255 34.0681L178.051 45.2827L158.737 34.2592L158.627 12.0212Z" stroke="#31D8B0" stroke-opacity="0.29" stroke-width="1.2"/>
<path d="M157.623 103.453L196.35 80.8368L235.299 103.067L235.522 147.914L196.795 170.53L157.845 148.3L157.623 103.453Z" stroke="#31D8B0" stroke-opacity="0.29" stroke-width="1.2"/>
<path d="M75.9041 135.659C76.2771 135.115 76.8938 134.791 77.5529 134.791L89.2453 134.791C90.7365 134.791 91.7032 136.364 91.0295 137.694L72.7684 173.752C72.4278 174.424 71.738 174.848 70.9842 174.848L52.799 174.848C51.1892 174.848 50.239 173.043 51.1501 171.716L75.9041 135.659Z" fill="black"/>
<path d="M184.596 135.659C184.223 135.115 183.606 134.791 182.947 134.791L171.255 134.791C169.763 134.791 168.797 136.364 169.471 137.694L187.732 173.752C188.072 174.424 188.762 174.848 189.516 174.848L207.701 174.848C209.311 174.848 210.261 173.043 209.35 171.716L184.596 135.659Z" fill="black"/>
<path d="M161.03 135.971C160.708 135.253 159.993 134.791 159.206 134.791L147.623 134.791C146.303 134.791 145.345 136.047 145.695 137.32L155.596 173.378C155.835 174.246 156.624 174.848 157.525 174.848L175.409 174.848C176.86 174.848 177.828 173.352 177.233 172.028L161.03 135.971Z" fill="black"/>
<path d="M99.2304 135.971C99.5531 135.253 100.267 134.791 101.055 134.791L112.637 134.791C113.958 134.791 114.916 136.047 114.566 137.32L104.665 173.378C104.426 174.246 103.637 174.848 102.736 174.848L84.8521 174.848C83.4012 174.848 82.4331 173.352 83.0278 172.028L99.2304 135.971Z" fill="black"/>
<path d="M122.679 136.132C122.866 135.197 123.686 134.524 124.64 134.524L135.86 134.524C136.813 134.524 137.634 135.197 137.821 136.132L145.022 172.19C145.269 173.427 144.323 174.581 143.061 174.581L117.439 174.581C116.177 174.581 115.231 173.427 115.478 172.19L122.679 136.132Z" fill="black"/>
<path d="M94.2654 97.0907L97.9148 92.5574V46.93C98.8238 46.3605 99.9772 46.3562 100.89 46.9189L100.908 46.93V52.6251H104.34V55.6187H100.908V71.6818H104.34V74.6023H100.908L101.347 92.5574L105.265 97.0907V119.725L107.2 121.53C108.802 123.025 109.612 125.183 109.388 127.363L109.265 128.557H90.7654L90.6547 127.457C90.4299 125.225 91.2892 123.02 92.9654 121.528L94.2654 120.37V97.0907Z" fill="black"/>
<path d="M106.266 52.5574C106.266 49.2437 108.952 46.5574 112.266 46.5574H116.601C119.915 46.5574 122.601 49.2437 122.601 52.5574V75.1148C122.601 78.4286 119.915 81.1148 116.601 81.1148H112.266C108.952 81.1148 106.266 78.4286 106.266 75.1148V52.5574Z" fill="black"/>
<circle cx="114.433" cy="53.1766" r="4.32977" fill="white"/>
<circle cx="114.433" cy="63.8361" r="4.32977" fill="white"/>
<circle cx="114.433" cy="74.4957" r="4.32977" fill="white"/>
</svg>
