<svg width="56" height="39" viewBox="0 0 56 39" fill="none" xmlns="http://www.w3.org/2000/svg">
<path d="M4 24.3178V7.21677H11.6466C12.4385 7.21677 13.1643 7.37735 13.8242 7.69849C14.4841 8.01964 15.0533 8.44516 15.5317 8.97505C16.0266 9.50494 16.4061 10.0991 16.6701 10.7574C16.9505 11.4158 17.0907 12.0902 17.0907 12.7806C17.0907 13.5353 16.9505 14.2579 16.6701 14.9484C16.3896 15.6388 15.9854 16.2329 15.4575 16.7307C14.9461 17.2285 14.3439 17.5898 13.651 17.8146L17.7836 24.3178H14.6656L10.8547 18.3686H6.77157V24.3178H4ZM6.77157 15.984H11.6218C12.1332 15.984 12.5869 15.8395 12.9829 15.5505C13.3788 15.2615 13.6923 14.8761 13.9232 14.3944C14.1542 13.8966 14.2697 13.3587 14.2697 12.7806C14.2697 12.1865 14.1377 11.6566 13.8737 11.1909C13.6098 10.7092 13.2633 10.3239 12.8344 10.0348C12.422 9.74579 11.9683 9.60128 11.4734 9.60128H6.77157V15.984Z" fill="black"/>
<path d="M31.4442 24.3178L23.0057 15.6228C22.2963 14.8841 21.7354 14.2579 21.323 13.7441C20.9105 13.2302 20.6136 12.7565 20.4321 12.323C20.2506 11.8894 20.1599 11.4398 20.1599 10.9742C20.1599 10.1874 20.3579 9.49691 20.7538 8.90279C21.1662 8.30867 21.7272 7.84301 22.4365 7.5058C23.1459 7.1686 23.9378 7 24.8122 7C25.6206 7 26.3629 7.14452 27.0393 7.43355C27.7157 7.70652 28.2602 8.11598 28.6726 8.66193C29.085 9.19182 29.2912 9.85017 29.2912 10.637C29.2912 11.3756 29.0933 12.042 28.6973 12.6361C28.3014 13.2302 27.7735 13.7762 27.1136 14.2739C26.4537 14.7717 25.7195 15.2615 24.9112 15.7432C24.2843 16.1446 23.7151 16.5461 23.2037 16.9475C22.6923 17.3329 22.2881 17.7503 21.9911 18.2C21.7107 18.6335 21.5704 19.1232 21.5704 19.6692C21.5704 20.2151 21.7272 20.7049 22.0406 21.1384C22.3541 21.5559 22.7747 21.8851 23.3027 22.126C23.8306 22.3508 24.408 22.4632 25.0349 22.4632C25.8103 22.4632 26.5444 22.2865 27.2373 21.9333C27.9302 21.58 28.5489 21.0822 29.0933 20.4399C29.6377 19.7816 30.0584 19.0108 30.3553 18.1277C30.6688 17.2445 30.8255 16.2811 30.8255 15.2374H33.0527C33.0527 16.6504 32.8217 17.927 32.3598 19.067C31.9143 20.2071 31.3039 21.1866 30.5286 22.0055C29.7697 22.8244 28.8871 23.4587 27.8807 23.9083C26.8909 24.3419 25.8433 24.5586 24.7379 24.5586C23.5996 24.5586 22.5933 24.3419 21.7189 23.9083C20.8445 23.4587 20.1599 22.8646 19.665 22.126C19.1865 21.3873 18.9473 20.5604 18.9473 19.6451C18.9473 18.7459 19.1536 17.9671 19.566 17.3088C19.9949 16.6344 20.5393 16.0402 21.1992 15.5264C21.8756 14.9965 22.552 14.5228 23.2284 14.1053C23.9543 13.6557 24.5812 13.2623 25.1091 12.9251C25.6371 12.5719 26.0495 12.2186 26.3464 11.8654C26.6434 11.496 26.7919 11.1026 26.7919 10.6851C26.7919 10.1713 26.6022 9.76185 26.2227 9.45676C25.8598 9.13562 25.3896 8.97505 24.8122 8.97505C24.3832 8.97505 24.0038 9.06336 23.6739 9.23999C23.3604 9.41662 23.1129 9.64945 22.9315 9.93848C22.75 10.2275 22.6593 10.5487 22.6593 10.9019C22.6593 11.1428 22.7253 11.3917 22.8572 11.6486C22.9892 11.8894 23.2367 12.2106 23.5996 12.612C23.9626 12.9974 24.4657 13.5273 25.1091 14.2017L35.0324 24.3178H31.4442Z" fill="black"/>
<path d="M36.2018 24.3178V7.21677H42.4378C44.335 7.21677 45.9188 7.60215 47.1891 8.3729C48.4594 9.12759 49.408 10.1553 50.0349 11.4559C50.6783 12.7405 51 14.1696 51 15.7432C51 17.4774 50.6453 18.9868 49.9359 20.2713C49.243 21.5559 48.2532 22.5515 46.9664 23.258C45.6796 23.9645 44.1701 24.3178 42.4378 24.3178H36.2018ZM48.1789 15.7432C48.1789 14.5389 47.948 13.4791 47.486 12.5638C47.0406 11.6325 46.389 10.9099 45.5311 10.3961C44.6897 9.86622 43.6586 9.60128 42.4378 9.60128H38.9733V21.9333H42.4378C43.6751 21.9333 44.7145 21.6603 45.5558 21.1143C46.4137 20.5684 47.0653 19.8298 47.5108 18.8984C47.9562 17.9671 48.1789 16.9154 48.1789 15.7432Z" fill="black"/>
<path d="M11.9367 34C11.4787 34 11.062 33.9233 10.6865 33.7698C10.3186 33.609 9.99952 33.3898 9.72922 33.1121C9.45891 32.8344 9.24868 32.5164 9.09851 32.1584C8.95585 31.8003 8.88452 31.4202 8.88452 31.0183C8.88452 30.4775 9.00841 29.9842 9.25619 29.5384C9.51147 29.0926 9.86437 28.7345 10.3149 28.4641C10.7729 28.1937 11.3135 28.0585 11.9367 28.0585C12.5374 28.0585 13.0592 28.19 13.5022 28.4531C13.9527 28.7089 14.2831 29.0524 14.4933 29.4836L13.2882 29.8563C13.1531 29.6151 12.9616 29.4288 12.7138 29.2972C12.4736 29.1584 12.207 29.0889 11.9142 29.0889C11.5838 29.0889 11.2835 29.173 11.0132 29.3411C10.7504 29.5019 10.5401 29.7284 10.3825 30.0207C10.2323 30.3057 10.1572 30.6383 10.1572 31.0183C10.1572 31.3837 10.236 31.7162 10.3937 32.0158C10.5514 32.3082 10.7616 32.542 11.0244 32.7174C11.2947 32.8855 11.5951 32.9696 11.9254 32.9696C12.1282 32.9696 12.3234 32.9367 12.5111 32.8709C12.7063 32.7978 12.8753 32.7028 13.0179 32.5859C13.1606 32.4616 13.2619 32.3264 13.322 32.1803L14.5384 32.5311C14.4107 32.8161 14.2193 33.0682 13.964 33.2875C13.7162 33.5067 13.4196 33.6821 13.0742 33.8136C12.7364 33.9379 12.3572 34 11.9367 34Z" fill="black"/>
<path d="M18.173 34C17.715 34 17.2982 33.9233 16.9228 33.7698C16.5549 33.609 16.2358 33.3934 15.9655 33.123C15.6952 32.8453 15.485 32.5311 15.3348 32.1803C15.1921 31.8222 15.1208 31.4422 15.1208 31.0402C15.1208 30.4994 15.2484 30.0061 15.5037 29.5603C15.759 29.1072 16.1157 28.7455 16.5737 28.4751C17.0317 28.1974 17.5686 28.0585 18.1842 28.0585C18.7999 28.0585 19.3293 28.1974 19.7723 28.4751C20.2228 28.7455 20.5719 29.1036 20.8197 29.5494C21.0675 29.9951 21.1914 30.4738 21.1914 30.9854C21.1914 31.0731 21.1876 31.1571 21.1801 31.2375C21.1726 31.3106 21.1651 31.3727 21.1576 31.4239H16.4385C16.4611 31.7601 16.5549 32.056 16.7201 32.3118C16.8928 32.5603 17.1105 32.7576 17.3733 32.9038C17.6361 33.0426 17.9177 33.1121 18.218 33.1121C18.5484 33.1121 18.86 33.0317 19.1528 32.8709C19.4532 32.7101 19.6559 32.4982 19.761 32.2351L20.8197 32.5311C20.6921 32.8088 20.4968 33.0609 20.2341 33.2875C19.9788 33.5067 19.6747 33.6821 19.3218 33.8136C18.9689 33.9379 18.5859 34 18.173 34ZM16.4047 30.6236H19.9637C19.9412 30.2948 19.8436 30.0061 19.6709 29.7576C19.5057 29.5019 19.2917 29.3045 19.0289 29.1657C18.7737 29.0195 18.4883 28.9464 18.173 28.9464C17.8651 28.9464 17.5798 29.0195 17.317 29.1657C17.0617 29.3045 16.8515 29.5019 16.6863 29.7576C16.5211 30.0061 16.4273 30.2948 16.4047 30.6236Z" fill="black"/>
<path d="M27.4841 33.8904H26.2453V30.6785C26.2453 30.145 26.1551 29.754 25.9749 29.5055C25.8022 29.257 25.5432 29.1328 25.1978 29.1328C24.9575 29.1328 24.7173 29.1913 24.477 29.3082C24.2442 29.4251 24.034 29.5859 23.8463 29.7905C23.6586 29.9878 23.5234 30.218 23.4408 30.4811V33.8904H22.2019V28.1572H23.3282V29.3082C23.4784 29.0524 23.6736 28.8332 23.9139 28.6505C24.1617 28.4604 24.4395 28.3143 24.7473 28.212C25.0552 28.1097 25.3818 28.0585 25.7272 28.0585C26.0801 28.0585 26.3691 28.1206 26.5944 28.2449C26.8272 28.3691 27.0074 28.5408 27.135 28.7601C27.2702 28.972 27.3603 29.2205 27.4053 29.5055C27.4579 29.7832 27.4841 30.0792 27.4841 30.3934V33.8904Z" fill="black"/>
<path d="M32.1556 33.5944C32.0505 33.6456 31.9191 33.7004 31.7614 33.7588C31.6037 33.8173 31.4235 33.8685 31.2208 33.9123C31.0256 33.9561 30.8229 33.9781 30.6126 33.9781C30.3573 33.9781 30.1208 33.9342 29.9031 33.8465C29.6853 33.7588 29.5089 33.62 29.3737 33.43C29.2461 33.2326 29.1823 32.9805 29.1823 32.6736V29.0889H28.4051V28.1572H29.1823V26.2717H30.4212V28.1572H31.7051V29.0889H30.4212V32.2899C30.4362 32.4872 30.5 32.6334 30.6126 32.7284C30.7328 32.8234 30.8792 32.8709 31.0519 32.8709C31.2246 32.8709 31.3897 32.8417 31.5474 32.7832C31.7051 32.7247 31.8215 32.6772 31.8966 32.6407L32.1556 33.5944Z" fill="black"/>
<path d="M35.606 34C35.1479 34 34.7312 33.9233 34.3558 33.7698C33.9879 33.609 33.6688 33.3934 33.3985 33.123C33.1282 32.8453 32.9179 32.5311 32.7678 32.1803C32.6251 31.8222 32.5538 31.4422 32.5538 31.0402C32.5538 30.4994 32.6814 30.0061 32.9367 29.5603C33.192 29.1072 33.5486 28.7455 34.0067 28.4751C34.4647 28.1974 35.0015 28.0585 35.6172 28.0585C36.2329 28.0585 36.7623 28.1974 37.2053 28.4751C37.6558 28.7455 38.0049 29.1036 38.2527 29.5494C38.5005 29.9951 38.6244 30.4738 38.6244 30.9854C38.6244 31.0731 38.6206 31.1571 38.6131 31.2375C38.6056 31.3106 38.5981 31.3727 38.5906 31.4239H33.8715C33.894 31.7601 33.9879 32.056 34.1531 32.3118C34.3258 32.5603 34.5435 32.7576 34.8063 32.9038C35.0691 33.0426 35.3507 33.1121 35.651 33.1121C35.9814 33.1121 36.293 33.0317 36.5858 32.8709C36.8861 32.7101 37.0889 32.4982 37.194 32.2351L38.2527 32.5311C38.125 32.8088 37.9298 33.0609 37.667 33.2875C37.4117 33.5067 37.1076 33.6821 36.7547 33.8136C36.4018 33.9379 36.0189 34 35.606 34ZM33.8377 30.6236H37.3967C37.3742 30.2948 37.2766 30.0061 37.1039 29.7576C36.9387 29.5019 36.7247 29.3045 36.4619 29.1657C36.2066 29.0195 35.9213 28.9464 35.606 28.9464C35.2981 28.9464 35.0128 29.0195 34.75 29.1657C34.4947 29.3045 34.2845 29.5019 34.1193 29.7576C33.9541 30.0061 33.8602 30.2948 33.8377 30.6236Z" fill="black"/>
<path d="M42.9461 29.1986C42.4656 29.2059 42.0376 29.3118 41.6622 29.5165C41.2943 29.7211 41.0315 30.0098 40.8738 30.3825V33.8904H39.6349V28.1572H40.7837V29.4397C40.9864 29.0451 41.253 28.7308 41.5834 28.497C41.9137 28.2558 42.2629 28.1243 42.6308 28.1023C42.7059 28.1023 42.7659 28.1023 42.811 28.1023C42.8636 28.1023 42.9086 28.106 42.9461 28.1133V29.1986Z" fill="black"/>
<path d="M10 38H1V30M14 1L54 1V21" stroke="black" stroke-linecap="round"/>
</svg>
