<svg width="40" height="40" viewBox="0 0 40 40" fill="none" xmlns="http://www.w3.org/2000/svg">
<path fill-rule="evenodd" clip-rule="evenodd" d="M18.5662 0.0226718C15.0357 0.301761 11.9121 1.36613 8.9899 3.2859C5.96862 5.27069 3.52723 8.06822 1.95954 11.3418C0.650907 14.0744 0 16.9507 0 20.001C0 23.1203 0.671319 26.0247 2.03463 28.8038C3.29491 31.3729 5.03075 33.585 7.2118 35.4013C10.0564 37.7703 13.5511 39.3218 17.1825 39.8278C18.2165 39.9718 18.6771 40 19.9972 40C21.3201 40 21.7765 39.972 22.8217 39.8264C28.2118 39.076 33.1245 36.0747 36.315 31.5831C39.4136 27.2209 40.6311 21.7625 39.6886 16.4573C39.1565 13.4616 37.904 10.5605 36.0755 8.08801C33.9593 5.22662 31.0747 2.9515 27.7924 1.55512C25.9382 0.766255 23.9911 0.275597 21.8425 0.0557719C21.3159 0.00189939 19.1108 -0.020381 18.5662 0.0226718ZM28.9814 11.7623C29.1668 11.8398 29.3198 11.9833 29.425 12.1784C29.5473 12.4054 29.5363 13.2263 29.3985 14.1388C28.7935 18.1473 28.4278 20.4879 27.5284 26.1083C27.3409 27.2798 27.1618 28.4165 27.1305 28.6342C27.0346 29.2999 26.8878 29.6831 26.6153 29.9789C26.2985 30.323 25.9069 30.45 25.4149 30.3681C24.563 30.2264 24.0742 29.9658 21.7296 28.4036C19.1687 26.6973 18.3403 26.1174 17.466 25.4187C16.7817 24.872 16.6307 24.3608 16.9907 23.8102C17.0603 23.7039 17.4851 23.2782 17.9605 22.8383C21.2005 19.8411 23.569 17.5173 23.8114 17.0982C24.002 16.7686 24.0518 16.581 23.9816 16.4573C23.9337 16.373 23.9053 16.3635 23.7131 16.3674C23.5314 16.3712 23.4295 16.406 23.0563 16.5917C22.6069 16.8153 22.1822 17.0933 19.8089 18.7175C16.8651 20.7321 13.6572 22.8463 13.4445 22.9119C12.9543 23.0632 12.4571 23.0898 11.8439 22.9976C11.3099 22.9174 10.5783 22.7003 8.32761 21.9544C7.36383 21.635 7.28735 21.603 7.15098 21.4623C6.77141 21.0708 6.89429 20.6454 7.50351 20.2418C7.78005 20.0586 8.32423 19.8172 10.0739 19.1018C10.938 18.7485 15.3763 16.9226 16.5702 16.4292C17.0984 16.211 17.7678 15.9353 18.0577 15.8165C19.2809 15.3158 21.6231 14.3419 21.9376 14.2033C22.3374 14.0271 25.0246 12.91 27.0207 12.0902C27.6404 11.8357 27.9525 11.7296 28.1882 11.6934C28.3951 11.6616 28.8313 11.6995 28.9814 11.7623Z" fill="#34AADF"/>
</svg>
