<svg width="131" height="259" viewBox="0 0 131 259" fill="none" xmlns="http://www.w3.org/2000/svg">
<path fill-rule="evenodd" clip-rule="evenodd" d="M76.7013 40.4608C69.5548 40.4608 66.9558 31.905 62.8957 27.2099C59.9907 23.8506 55.0329 24.8522 53.5654 20.1493C49.8752 8.32336 59.752 0 72.6369 0C85.5217 0 94.2095 7.29983 96.0854 18.2734C97.9613 29.247 89.5861 40.4608 76.7013 40.4608Z" fill="black"/>
<path fill-rule="evenodd" clip-rule="evenodd" d="M75.912 32.8218C78.7933 29.4398 80.7434 25.295 80.4176 20.6507C79.4787 7.26911 60.851 10.2129 57.2276 16.9668C53.6041 23.7206 54.0347 40.8524 58.7177 42.0595C60.5853 42.5409 64.5637 41.3617 68.6129 38.921L66.0713 56.9018H81.0784L75.912 32.8218Z" fill="#B28B67"/>
<path fill-rule="evenodd" clip-rule="evenodd" d="M69.5857 24.2133C70.131 23.9249 70.7557 23.761 71.4198 23.761C73.5459 23.761 75.2695 25.4407 75.2695 27.5128C75.2695 28.3585 74.9823 29.1388 74.4979 29.7663C75.4101 31.2698 76.0326 32.8495 76.2367 34.4734C79.3983 34.4734 90.9371 22.5104 79.4422 11.2552C67.9473 -0.00012064 51.3357 16.0674 56.3274 17.0044C59.1973 17.5432 64.9772 20.2831 69.5857 24.2133Z" fill="black"/>
<path fill-rule="evenodd" clip-rule="evenodd" d="M86.0806 108.801L62.5503 185.727L51.1516 251.148H42.2142L54.2588 108.801H86.0806Z" fill="#997659"/>
<path fill-rule="evenodd" clip-rule="evenodd" d="M94.4985 108.801C92.9003 151.038 94.7812 172.824 95.1389 176.661C95.4966 180.499 100.395 205.381 111.99 252.436L102.467 249.165C84.1411 206.008 77.8962 183.579 75.7943 177.912C73.6925 172.245 68.1101 149.208 59.0471 108.801H94.4985Z" fill="#B28B67"/>
<path fill-rule="evenodd" clip-rule="evenodd" d="M111.919 249.118C112.618 250.985 112.968 252.383 112.968 253.31C112.968 254.437 112.78 256.083 112.405 258.246C111.097 258.246 99.3408 258.246 77.137 258.246C76.2206 255.216 76.7496 253.581 78.7242 253.339C80.6988 253.097 82.3391 252.879 83.6451 252.685L100.037 245.377C100.353 245.236 100.722 245.378 100.863 245.693C100.865 245.699 100.868 245.704 100.87 245.71L101.924 248.266C103.752 249.118 105.237 249.545 106.38 249.545C107.308 249.545 108.591 249.17 110.227 248.42C110.855 248.132 111.597 248.408 111.885 249.036C111.897 249.063 111.908 249.09 111.919 249.118Z" fill="#1D1D1D"/>
<path fill-rule="evenodd" clip-rule="evenodd" d="M53.1413 249.118C53.8409 250.985 54.1907 252.383 54.1907 253.31C54.1907 254.437 54.0028 256.083 53.6271 258.246C52.3191 258.246 40.5632 258.246 18.3595 258.246C17.443 255.216 17.972 253.581 19.9466 253.339C21.9212 253.097 23.5615 252.879 24.8675 252.685L41.2596 245.377C41.575 245.236 41.9447 245.378 42.0853 245.693C42.0877 245.699 42.0901 245.704 42.0923 245.71L43.146 248.266C44.9739 249.118 46.4593 249.545 47.6022 249.545C48.5307 249.545 49.813 249.17 51.4491 248.42C52.0769 248.132 52.8192 248.408 53.1071 249.036C53.1195 249.063 53.1309 249.09 53.1413 249.118Z" fill="#1D1D1D"/>
<path fill-rule="evenodd" clip-rule="evenodd" d="M89.207 108.801L79.2023 147.994H48.6441L53.2004 108.801H89.207Z" fill="#2ABD9A"/>
<path fill-rule="evenodd" clip-rule="evenodd" d="M94.8347 108.801C98.1266 118.668 98.7519 131.733 96.7106 147.994H65.527L56.9522 108.801H94.8347Z" fill="#31D8B0"/>
<path fill-rule="evenodd" clip-rule="evenodd" d="M31.0271 98.8729L13.3138 116.153C8.15993 118.351 3.93703 120.779 0.645157 123.435C-0.0951385 124.328 -0.901062 126.039 2.58199 125.274C6.06503 124.508 9.7631 123.859 10.4177 124.992C11.0724 126.125 9.14343 127.861 10.3533 129.343C11.1598 130.331 13.8724 127.188 18.4909 119.912L36.9103 109.053L31.0271 98.8729ZM109.649 101.31L96.5823 101.361C104.651 127.407 109.006 141.227 109.649 142.82C111.096 146.406 108.034 151.867 106.725 154.802C110.99 156.71 110.535 149.643 115.915 152.146C120.825 154.43 124.56 158.57 130.233 155.069C130.931 154.639 131.695 153.018 129.848 151.752C125.248 148.598 118.618 143.076 117.722 141.259C116.5 138.781 113.809 125.464 109.649 101.31Z" fill="#B28B67"/>
<path fill-rule="evenodd" clip-rule="evenodd" d="M72.5149 46.4792L67.1079 45.5518C57.7988 68.8066 41.5461 89.9365 18.3499 108.942L35.8781 130.237C59.0717 103.176 73.3683 75.2569 72.5149 46.4792Z" fill="black"/>
<path fill-rule="evenodd" clip-rule="evenodd" d="M96.0852 114.429H47.9376C59.0923 87.3066 64.6697 64.2668 64.6697 45.3091L79.1934 43.1451C90.6077 61.5028 93.8311 84.1047 96.0852 114.429Z" fill="#DDE3E9"/>
<path fill-rule="evenodd" clip-rule="evenodd" d="M79.5011 43.1554C79.4992 43.152 79.4973 43.1486 79.4954 43.1451H78.5474C77.4129 43.1842 75.6851 43.2546 73.3637 43.3563L69.8543 53.3855C69.4831 65.6134 67.3152 90.2561 63.3506 127.313H94.9123C94.8296 129.873 94.6932 132.456 94.5031 135.063H117.971C114.46 95.4597 101.641 64.8203 79.5127 43.1451L79.5011 43.1554Z" fill="#1D1D1D"/>
<path fill-rule="evenodd" clip-rule="evenodd" d="M92.8274 94.5651C91.9291 110.519 89.6802 121.518 86.0806 127.56H94.904C95.2903 116.081 94.5981 105.083 92.8274 94.5651Z" fill="black" fill-opacity="0.1"/>
<path fill-rule="evenodd" clip-rule="evenodd" d="M87.8872 108.176L72.3242 100.941V108.176H87.8872Z" fill="white" fill-opacity="0.2"/>
</svg>
