<svg width="199" height="50" viewBox="0 0 199 50" fill="none" xmlns="http://www.w3.org/2000/svg">
<path d="M196 37L-4.99999 37" stroke="white" stroke-width="0.7" stroke-linecap="round"/>
<path d="M171 46L-30 46" stroke="white" stroke-width="0.7" stroke-linecap="round"/>
<path d="M185 33L-15 33" stroke="white" stroke-width="1.2" stroke-linecap="round"/>
<path d="M20.975 14C20.975 12.9167 21.1583 11.8583 21.525 10.825C21.9083 9.775 22.4583 8.825 23.175 7.975C23.9083 7.10833 24.8 6.425 25.85 5.925C26.9 5.40833 28.0917 5.15 29.425 5.15C31.0083 5.15 32.3667 5.51667 33.5 6.25C34.6333 6.96667 35.475 7.89167 36.025 9.025L34.25 10.175C33.9 9.425 33.45 8.83333 32.9 8.4C32.3667 7.95 31.7833 7.63333 31.15 7.45C30.5333 7.26667 29.925 7.175 29.325 7.175C28.3417 7.175 27.4667 7.375 26.7 7.775C25.95 8.175 25.3167 8.70833 24.8 9.375C24.2833 10.0417 23.8917 10.7917 23.625 11.625C23.375 12.4417 23.25 13.2667 23.25 14.1C23.25 15.0167 23.4 15.9 23.7 16.75C24.0167 17.6 24.45 18.35 25 19C25.55 19.65 26.2 20.1667 26.95 20.55C27.7 20.9333 28.5167 21.125 29.4 21.125C30.0167 21.125 30.65 21.0167 31.3 20.8C31.95 20.5833 32.5583 20.25 33.125 19.8C33.6917 19.3333 34.1417 18.7333 34.475 18L36.35 19.025C35.9833 19.9083 35.4167 20.6583 34.65 21.275C33.8833 21.8917 33.025 22.3583 32.075 22.675C31.1417 22.9917 30.2167 23.15 29.3 23.15C28.0833 23.15 26.9667 22.8917 25.95 22.375C24.9333 21.8417 24.05 21.1417 23.3 20.275C22.5667 19.3917 21.9917 18.4083 21.575 17.325C21.175 16.225 20.975 15.1167 20.975 14ZM38.791 23V9.95H45.541C46.3243 9.95 46.9743 10.1083 47.491 10.425C48.0077 10.725 48.391 11.1167 48.641 11.6C48.9077 12.0833 49.041 12.6 49.041 13.15C49.041 13.85 48.8743 14.4833 48.541 15.05C48.2077 15.6 47.7243 16.0167 47.091 16.3C47.841 16.5167 48.4493 16.9083 48.916 17.475C49.3827 18.025 49.616 18.7083 49.616 19.525C49.616 20.2583 49.441 20.8833 49.091 21.4C48.741 21.9167 48.2493 22.3167 47.616 22.6C46.9827 22.8667 46.2493 23 45.416 23H38.791ZM40.891 21.45H45.366C45.766 21.45 46.1243 21.35 46.441 21.15C46.7743 20.95 47.0327 20.6833 47.216 20.35C47.3993 20.0167 47.491 19.6667 47.491 19.3C47.491 18.9 47.3993 18.5417 47.216 18.225C47.0493 17.8917 46.8077 17.6333 46.491 17.45C46.191 17.25 45.841 17.15 45.441 17.15H40.891V21.45ZM40.891 15.7H44.966C45.366 15.7 45.716 15.6 46.016 15.4C46.316 15.1833 46.5493 14.9083 46.716 14.575C46.8827 14.2417 46.966 13.8917 46.966 13.525C46.966 12.975 46.7827 12.5 46.416 12.1C46.066 11.7 45.6077 11.5 45.041 11.5H40.891V15.7ZM51.4396 23L55.1396 17.75C54.2896 17.5833 53.6063 17.1833 53.0896 16.55C52.573 15.9 52.3146 15.0333 52.3146 13.95C52.3146 13.1667 52.498 12.475 52.8646 11.875C53.2313 11.275 53.7396 10.8 54.3896 10.45C55.0563 10.1 55.8313 9.925 56.7146 9.925H62.0646V23H59.8646V18.1H57.3146L53.8646 23H51.4396ZM56.8646 16.475H59.8646V11.65H57.1146C56.3313 11.65 55.7063 11.875 55.2396 12.325C54.773 12.7583 54.5396 13.3167 54.5396 14C54.5396 14.6833 54.7313 15.2667 55.1146 15.75C55.5146 16.2333 56.098 16.475 56.8646 16.475ZM69.6977 23.175C68.431 23.175 67.356 22.9417 66.4727 22.475C65.606 21.9917 64.9393 21.325 64.4727 20.475L66.2727 19.675C66.5727 20.2083 66.9977 20.625 67.5477 20.925C68.1143 21.225 68.7977 21.375 69.5977 21.375C70.5477 21.375 71.2977 21.1667 71.8477 20.75C72.3977 20.3333 72.6727 19.775 72.6727 19.075C72.6727 18.4417 72.4477 17.9333 71.9977 17.55C71.5643 17.15 70.9477 16.9417 70.1477 16.925H68.8227V15.475H70.2227C70.5727 15.475 70.881 15.3917 71.1477 15.225C71.431 15.0417 71.6477 14.8 71.7977 14.5C71.9643 14.2 72.0477 13.8667 72.0477 13.5C72.0477 12.9167 71.8393 12.45 71.4227 12.1C71.006 11.7333 70.381 11.55 69.5477 11.55C68.8643 11.55 68.2893 11.6833 67.8227 11.95C67.3727 12.2167 67.006 12.6167 66.7227 13.15L65.0477 12.25C65.4643 11.4667 66.0643 10.8583 66.8477 10.425C67.6477 9.975 68.581 9.75 69.6477 9.75C70.4977 9.75 71.2477 9.89167 71.8977 10.175C72.5643 10.4417 73.081 10.8333 73.4477 11.35C73.831 11.8667 74.0227 12.4917 74.0227 13.225C74.0227 13.8417 73.8727 14.4167 73.5727 14.95C73.2893 15.4667 72.8643 15.8583 72.2977 16.125C73.081 16.3583 73.681 16.7667 74.0977 17.35C74.5143 17.9167 74.7227 18.5917 74.7227 19.375C74.7227 20.175 74.506 20.8583 74.0727 21.425C73.6393 21.9917 73.0477 22.425 72.2977 22.725C71.5477 23.025 70.681 23.175 69.6977 23.175ZM77.3408 23V9.95H79.5408V14.4H82.7908C84.3242 14.4 85.4825 14.7917 86.2658 15.575C87.0658 16.3417 87.4658 17.35 87.4658 18.6C87.4658 19.4333 87.2908 20.1833 86.9408 20.85C86.6075 21.5167 86.1075 22.0417 85.4408 22.425C84.7742 22.8083 83.9408 23 82.9408 23H77.3408ZM79.5408 21.275H82.6408C83.2575 21.275 83.7492 21.1583 84.1158 20.925C84.4992 20.675 84.7825 20.35 84.9658 19.95C85.1492 19.55 85.2408 19.1167 85.2408 18.65C85.2408 18.2 85.1575 17.7833 84.9908 17.4C84.8242 17.0167 84.5492 16.7083 84.1658 16.475C83.7825 16.2417 83.2575 16.125 82.5908 16.125H79.5408V21.275ZM101.964 23.25C100.981 23.25 100.081 23.075 99.2641 22.725C98.4641 22.3583 97.7641 21.8583 97.1641 21.225C96.5807 20.5917 96.1224 19.8667 95.7891 19.05C95.4724 18.2333 95.3141 17.3667 95.3141 16.45C95.3141 15.2167 95.5891 14.0917 96.1391 13.075C96.6891 12.0583 97.4641 11.25 98.4641 10.65C99.4641 10.0333 100.622 9.725 101.939 9.725C103.222 9.725 104.339 10.0167 105.289 10.6C106.256 11.1667 106.972 11.9333 107.439 12.9L105.289 13.575C104.956 12.9583 104.489 12.4833 103.889 12.15C103.289 11.8 102.622 11.625 101.889 11.625C101.089 11.625 100.356 11.8333 99.6891 12.25C99.0391 12.6667 98.5224 13.2417 98.1391 13.975C97.7557 14.6917 97.5641 15.5167 97.5641 16.45C97.5641 17.3667 97.7557 18.2 98.1391 18.95C98.5391 19.6833 99.0641 20.2667 99.7141 20.7C100.381 21.1333 101.114 21.35 101.914 21.35C102.431 21.35 102.922 21.2583 103.389 21.075C103.872 20.8917 104.289 20.65 104.639 20.35C105.006 20.0333 105.256 19.6917 105.389 19.325L107.539 19.975C107.272 20.6083 106.864 21.175 106.314 21.675C105.781 22.1583 105.139 22.5417 104.389 22.825C103.656 23.1083 102.847 23.25 101.964 23.25ZM116.33 23V9.95H118.53V15.35H125.33V9.95H127.53V23H125.33V17.3H118.53V23H116.33ZM130.052 19.225C130.052 18.3917 130.285 17.675 130.752 17.075C131.235 16.4583 131.893 15.9833 132.727 15.65C133.56 15.3167 134.527 15.15 135.627 15.15C136.21 15.15 136.827 15.2 137.477 15.3C138.127 15.3833 138.702 15.5167 139.202 15.7V14.75C139.202 13.75 138.902 12.9667 138.302 12.4C137.702 11.8167 136.852 11.525 135.752 11.525C135.035 11.525 134.343 11.6583 133.677 11.925C133.027 12.175 132.335 12.5417 131.602 13.025L130.802 11.475C131.652 10.8917 132.502 10.4583 133.352 10.175C134.202 9.875 135.085 9.725 136.002 9.725C137.668 9.725 138.985 10.1917 139.952 11.125C140.918 12.0417 141.402 13.325 141.402 14.975V20.5C141.402 20.7667 141.452 20.9667 141.552 21.1C141.668 21.2167 141.852 21.2833 142.102 21.3V23C141.885 23.0333 141.693 23.0583 141.527 23.075C141.377 23.0917 141.252 23.1 141.152 23.1C140.635 23.1 140.243 22.9583 139.977 22.675C139.727 22.3917 139.585 22.0917 139.552 21.775L139.502 20.95C138.935 21.6833 138.193 22.25 137.277 22.65C136.36 23.05 135.452 23.25 134.552 23.25C133.685 23.25 132.91 23.075 132.227 22.725C131.543 22.3583 131.01 21.875 130.627 21.275C130.243 20.6583 130.052 19.975 130.052 19.225ZM138.552 20.15C138.752 19.9167 138.91 19.6833 139.027 19.45C139.143 19.2 139.202 18.9917 139.202 18.825V17.2C138.685 17 138.143 16.85 137.577 16.75C137.01 16.6333 136.452 16.575 135.902 16.575C134.785 16.575 133.877 16.8 133.177 17.25C132.493 17.6833 132.152 18.2833 132.152 19.05C132.152 19.4667 132.26 19.875 132.477 20.275C132.71 20.6583 133.043 20.975 133.477 21.225C133.927 21.475 134.477 21.6 135.127 21.6C135.81 21.6 136.46 21.4667 137.077 21.2C137.693 20.9167 138.185 20.5667 138.552 20.15ZM144.895 23V9.95H147.17L152.02 18.5L156.895 9.95H159.12V23H157.02V13.125L152.72 20.675H151.32L146.995 13.125V23H144.895ZM162.644 23V9.975H164.844V20.05L172.144 9.95H174.144V23H171.944V13.125L164.744 23H162.644Z" fill="white"/>
</svg>
