<svg width="139" height="118" viewBox="0 0 139 118" fill="none" xmlns="http://www.w3.org/2000/svg">
<g clip-path="url(#clip0_53_36)">
<path fill-rule="evenodd" clip-rule="evenodd" d="M33.0432 63.0054C25.8871 69.7141 14.7189 80.1841 14.7189 80.1841C9.43818 82.3171 5.10014 84.6989 1.7047 87.3296C0.935788 88.2205 0.085375 89.9386 3.6411 89.2263C7.19683 88.514 10.9691 87.9241 11.6144 89.083C12.2597 90.242 10.2668 91.9648 11.4704 93.488C12.2728 94.5034 19.9156 84.0849 19.9156 84.0849L38.8423 73.421L33.0432 63.0054ZM121.407 48.7365L107.483 48.5405C117.478 82.9454 122.788 100.961 123.414 102.586C124.82 106.244 121.608 111.719 120.224 114.667C124.526 116.677 124.191 109.512 129.617 112.144C134.569 114.546 138.292 118.805 144.125 115.363C144.842 114.94 145.648 113.313 143.793 111.997C139.171 108.719 132.529 103.008 131.651 101.151C130.453 98.619 127.039 81.1475 121.407 48.7365Z" fill="#B28B67"/>
<path fill-rule="evenodd" clip-rule="evenodd" d="M79.6796 8.64588L74.198 7.60877C64.9933 37.9459 20.1199 57.9375 17.1849 69.2872C16.1086 73.4495 19.0919 75.6164 17.5088 76.8618L24.5628 82.1992C25.7981 80.8146 28.335 83.4328 33.7605 81.7296C39.186 80.0263 79.0367 44.7502 79.6796 8.64588Z" fill="#2ABD9A"/>
<path fill-rule="evenodd" clip-rule="evenodd" d="M70.3583 12.5349C70.2734 52.9145 46.6571 62.7945 51.5882 79.0815C55.6603 92.5311 96.66 107.642 104.033 94.6601C107.017 89.4054 108.442 83.0114 108.715 76.0369C110.444 81.4296 111.805 86.0699 112.798 89.9576C114.51 96.6645 121.591 97.8519 121.545 100.423L130.944 98.0184C130.372 94.5141 134.812 92.8917 133.768 85.0669C129.094 50.0071 115.312 24.4083 92.4239 8.2704L92.245 4.85261C92.1719 3.45537 90.9752 2.38157 89.5722 2.45419L72.4244 3.34184C71.0214 3.41447 69.9433 4.60603 70.0164 6.00327L70.3583 12.5349Z" fill="#31D8B0"/>
</g>
<defs>
<clipPath id="clip0_53_36">
<rect width="145" height="114" fill="white" transform="matrix(-0.999841 -0.0178056 -0.0178056 0.999841 147.003 3.29993)"/>
</clipPath>
</defs>
</svg>
