<svg width="448" height="108" viewBox="0 0 448 108" fill="none" xmlns="http://www.w3.org/2000/svg">
<path d="M-86.2079 94L440 94" stroke="black" stroke-width="0.7" stroke-linecap="square"/>
<path d="M-69.5906 65L403.836 65" stroke="black" stroke-width="1.2" stroke-linecap="square"/>
<path d="M-93 72.9248L380.426 72.9248" stroke="black" stroke-width="0.7" stroke-linecap="square"/>
<path d="M39.137 17.73H41.949L52.679 44H49.127L46.019 36.304H34.993L31.922 44H28.37L39.137 17.73ZM45.279 33.714L40.543 21.578L35.659 33.714H45.279ZM55.63 44V24.686H71.651V44H68.395V27.572H58.886V44H55.63ZM76.8761 44V24.686H92.8971V44H89.6411V27.572H80.1321V44H76.8761ZM96.6422 38.413C96.6422 37.1797 96.9876 36.119 97.6782 35.231C98.3936 34.3183 99.3679 33.6153 100.601 33.122C101.835 32.6287 103.265 32.382 104.893 32.382C105.757 32.382 106.669 32.456 107.631 32.604C108.593 32.7273 109.444 32.9247 110.184 33.196V31.79C110.184 30.31 109.74 29.1507 108.852 28.312C107.964 27.4487 106.706 27.017 105.078 27.017C104.018 27.017 102.994 27.2143 102.007 27.609C101.045 27.979 100.022 28.5217 98.9362 29.237L97.7522 26.943C99.0102 26.0797 100.268 25.4383 101.526 25.019C102.784 24.575 104.092 24.353 105.448 24.353C107.915 24.353 109.864 25.0437 111.294 26.425C112.725 27.7817 113.44 29.681 113.44 32.123V40.3C113.44 40.6947 113.514 40.9907 113.662 41.188C113.835 41.3607 114.106 41.4593 114.476 41.484V44C114.156 44.0493 113.872 44.0863 113.625 44.111C113.403 44.1357 113.218 44.148 113.07 44.148C112.306 44.148 111.726 43.9383 111.331 43.519C110.961 43.0997 110.752 42.6557 110.702 42.187L110.628 40.966C109.79 42.0513 108.692 42.89 107.335 43.482C105.979 44.074 104.634 44.37 103.302 44.37C102.02 44.37 100.873 44.111 99.8612 43.593C98.8499 43.0503 98.0606 42.335 97.4932 41.447C96.9259 40.5343 96.6422 39.523 96.6422 38.413ZM109.222 39.782C109.518 39.4367 109.753 39.0913 109.925 38.746C110.098 38.376 110.184 38.0677 110.184 37.821V35.416C109.42 35.12 108.618 34.898 107.779 34.75C106.941 34.5773 106.114 34.491 105.3 34.491C103.648 34.491 102.303 34.824 101.267 35.49C100.256 36.1313 99.7502 37.0193 99.7502 38.154C99.7502 38.7707 99.9106 39.375 100.231 39.967C100.577 40.5343 101.07 41.003 101.711 41.373C102.377 41.743 103.191 41.928 104.153 41.928C105.165 41.928 106.127 41.7307 107.039 41.336C107.952 40.9167 108.68 40.3987 109.222 39.782ZM129.044 44.37C127.465 44.37 126.059 43.9753 124.826 43.186C123.592 42.3967 122.618 41.3977 121.903 40.189V51.881H118.647V24.686H121.533V28.312C122.297 27.128 123.296 26.1783 124.53 25.463C125.763 24.723 127.107 24.353 128.563 24.353C129.895 24.353 131.116 24.6243 132.226 25.167C133.336 25.7097 134.298 26.4497 135.112 27.387C135.926 28.3243 136.555 29.3973 136.999 30.606C137.467 31.79 137.702 33.0357 137.702 34.343C137.702 36.1683 137.332 37.8457 136.592 39.375C135.876 40.9043 134.865 42.1253 133.558 43.038C132.25 43.926 130.746 44.37 129.044 44.37ZM128.045 41.558C129.007 41.558 129.87 41.3607 130.635 40.966C131.424 40.5467 132.09 40.004 132.633 39.338C133.2 38.6473 133.632 37.8703 133.928 37.007C134.224 36.1437 134.372 35.2557 134.372 34.343C134.372 33.381 134.199 32.4683 133.854 31.605C133.533 30.7417 133.064 29.977 132.448 29.311C131.856 28.645 131.153 28.127 130.339 27.757C129.549 27.3623 128.686 27.165 127.749 27.165C127.157 27.165 126.54 27.276 125.899 27.498C125.282 27.72 124.69 28.0407 124.123 28.46C123.555 28.8547 123.074 29.311 122.68 29.829C122.285 30.347 122.026 30.902 121.903 31.494V37.007C122.273 37.8457 122.766 38.6103 123.383 39.301C123.999 39.9917 124.715 40.5467 125.529 40.966C126.343 41.3607 127.181 41.558 128.045 41.558ZM140.182 38.413C140.182 37.1797 140.528 36.119 141.218 35.231C141.934 34.3183 142.908 33.6153 144.141 33.122C145.375 32.6287 146.805 32.382 148.433 32.382C149.297 32.382 150.209 32.456 151.171 32.604C152.133 32.7273 152.984 32.9247 153.724 33.196V31.79C153.724 30.31 153.28 29.1507 152.392 28.312C151.504 27.4487 150.246 27.017 148.618 27.017C147.558 27.017 146.534 27.2143 145.547 27.609C144.585 27.979 143.562 28.5217 142.476 29.237L141.292 26.943C142.55 26.0797 143.808 25.4383 145.066 25.019C146.324 24.575 147.632 24.353 148.988 24.353C151.455 24.353 153.404 25.0437 154.834 26.425C156.265 27.7817 156.98 29.681 156.98 32.123V40.3C156.98 40.6947 157.054 40.9907 157.202 41.188C157.375 41.3607 157.646 41.4593 158.016 41.484V44C157.696 44.0493 157.412 44.0863 157.165 44.111C156.943 44.1357 156.758 44.148 156.61 44.148C155.846 44.148 155.266 43.9383 154.871 43.519C154.501 43.0997 154.292 42.6557 154.242 42.187L154.168 40.966C153.33 42.0513 152.232 42.89 150.875 43.482C149.519 44.074 148.174 44.37 146.842 44.37C145.56 44.37 144.413 44.111 143.401 43.593C142.39 43.0503 141.601 42.335 141.033 41.447C140.466 40.5343 140.182 39.523 140.182 38.413ZM152.762 39.782C153.058 39.4367 153.293 39.0913 153.465 38.746C153.638 38.376 153.724 38.0677 153.724 37.821V35.416C152.96 35.12 152.158 34.898 151.319 34.75C150.481 34.5773 149.654 34.491 148.84 34.491C147.188 34.491 145.843 34.824 144.807 35.49C143.796 36.1313 143.29 37.0193 143.29 38.154C143.29 38.7707 143.451 39.375 143.771 39.967C144.117 40.5343 144.61 41.003 145.251 41.373C145.917 41.743 146.731 41.928 147.693 41.928C148.705 41.928 149.667 41.7307 150.579 41.336C151.492 40.9167 152.22 40.3987 152.762 39.782ZM166.669 44V27.572H160.009V24.686H176.585V27.572H169.925V44H166.669ZM179.819 44V24.686H183.075V32.678H193.139V24.686H196.395V44H193.139V35.564H183.075V44H179.819ZM201.607 44V24.686H204.863V31.272H208.785C211.054 31.272 212.768 31.8517 213.928 33.011C215.112 34.1457 215.704 35.638 215.704 37.488C215.704 38.7213 215.445 39.8313 214.927 40.818C214.433 41.8047 213.693 42.5817 212.707 43.149C211.72 43.7163 210.487 44 209.007 44H201.607ZM204.863 41.447H208.563C209.475 41.447 210.203 41.2743 210.746 40.929C211.313 40.559 211.732 40.078 212.004 39.486C212.275 38.894 212.411 38.2527 212.411 37.562C212.411 36.896 212.287 36.2793 212.041 35.712C211.794 35.1447 211.387 34.6883 210.82 34.343C210.252 33.9977 209.475 33.825 208.489 33.825H204.863V41.447ZM219.034 44V24.723H222.29V44H219.034ZM236.098 44.37C234.642 44.37 233.31 44.111 232.102 43.593C230.918 43.0503 229.882 42.3227 228.994 41.41C228.13 40.4727 227.452 39.3997 226.959 38.191C226.49 36.9823 226.256 35.6997 226.256 34.343C226.256 32.5177 226.675 30.8527 227.514 29.348C228.352 27.8433 229.512 26.6347 230.992 25.722C232.496 24.8093 234.211 24.353 236.135 24.353C238.083 24.353 239.773 24.8217 241.204 25.759C242.659 26.6717 243.781 27.8803 244.571 29.385C245.385 30.865 245.792 32.4683 245.792 34.195C245.792 34.4417 245.779 34.6883 245.755 34.935C245.755 35.157 245.742 35.3297 245.718 35.453H229.697C229.795 36.711 230.141 37.8333 230.733 38.82C231.349 39.782 232.139 40.5467 233.101 41.114C234.063 41.6567 235.099 41.928 236.209 41.928C237.393 41.928 238.503 41.632 239.539 41.04C240.599 40.448 241.327 39.671 241.722 38.709L244.534 39.486C244.114 40.4233 243.485 41.262 242.647 42.002C241.833 42.742 240.858 43.3217 239.724 43.741C238.614 44.1603 237.405 44.37 236.098 44.37ZM229.586 33.196H242.758C242.659 31.938 242.301 30.828 241.685 29.866C241.068 28.904 240.279 28.1517 239.317 27.609C238.355 27.0663 237.294 26.795 236.135 26.795C235 26.795 233.952 27.0663 232.99 27.609C232.028 28.1517 231.238 28.904 230.622 29.866C230.03 30.828 229.684 31.938 229.586 33.196ZM269.167 44.37C267.588 44.37 266.182 43.9753 264.949 43.186C263.715 42.3967 262.741 41.3977 262.026 40.189V51.881H258.77V24.686H261.656V28.312C262.42 27.128 263.419 26.1783 264.653 25.463C265.886 24.723 267.23 24.353 268.686 24.353C270.018 24.353 271.239 24.6243 272.349 25.167C273.459 25.7097 274.421 26.4497 275.235 27.387C276.049 28.3243 276.678 29.3973 277.122 30.606C277.59 31.79 277.825 33.0357 277.825 34.343C277.825 36.1683 277.455 37.8457 276.715 39.375C275.999 40.9043 274.988 42.1253 273.681 43.038C272.373 43.926 270.869 44.37 269.167 44.37ZM268.168 41.558C269.13 41.558 269.993 41.3607 270.758 40.966C271.547 40.5467 272.213 40.004 272.756 39.338C273.323 38.6473 273.755 37.8703 274.051 37.007C274.347 36.1437 274.495 35.2557 274.495 34.343C274.495 33.381 274.322 32.4683 273.977 31.605C273.656 30.7417 273.187 29.977 272.571 29.311C271.979 28.645 271.276 28.127 270.462 27.757C269.672 27.3623 268.809 27.165 267.872 27.165C267.28 27.165 266.663 27.276 266.022 27.498C265.405 27.72 264.813 28.0407 264.246 28.46C263.678 28.8547 263.197 29.311 262.803 29.829C262.408 30.347 262.149 30.902 262.026 31.494V37.007C262.396 37.8457 262.889 38.6103 263.506 39.301C264.122 39.9917 264.838 40.5467 265.652 40.966C266.466 41.3607 267.304 41.558 268.168 41.558ZM290.369 44.37C288.914 44.37 287.582 44.111 286.373 43.593C285.189 43.0503 284.153 42.3227 283.265 41.41C282.402 40.4727 281.724 39.3997 281.23 38.191C280.762 36.9823 280.527 35.6997 280.527 34.343C280.527 32.5177 280.947 30.8527 281.785 29.348C282.624 27.8433 283.783 26.6347 285.263 25.722C286.768 24.8093 288.482 24.353 290.406 24.353C292.355 24.353 294.045 24.8217 295.475 25.759C296.931 26.6717 298.053 27.8803 298.842 29.385C299.656 30.865 300.063 32.4683 300.063 34.195C300.063 34.4417 300.051 34.6883 300.026 34.935C300.026 35.157 300.014 35.3297 299.989 35.453H283.968C284.067 36.711 284.412 37.8333 285.004 38.82C285.621 39.782 286.41 40.5467 287.372 41.114C288.334 41.6567 289.37 41.928 290.48 41.928C291.664 41.928 292.774 41.632 293.81 41.04C294.871 40.448 295.599 39.671 295.993 38.709L298.805 39.486C298.386 40.4233 297.757 41.262 296.918 42.002C296.104 42.742 295.13 43.3217 293.995 43.741C292.885 44.1603 291.677 44.37 290.369 44.37ZM283.857 33.196H297.029C296.931 31.938 296.573 30.828 295.956 29.866C295.34 28.904 294.55 28.1517 293.588 27.609C292.626 27.0663 291.566 26.795 290.406 26.795C289.272 26.795 288.223 27.0663 287.261 27.609C286.299 28.1517 285.51 28.904 284.893 29.866C284.301 30.828 283.956 31.938 283.857 33.196ZM303.646 44V24.686H306.902V41.151H314.524V24.686H317.817V41.151H325.402V24.686H328.658V44H303.646ZM342.473 44.37C341.017 44.37 339.685 44.111 338.477 43.593C337.293 43.0503 336.257 42.3227 335.369 41.41C334.505 40.4727 333.827 39.3997 333.334 38.191C332.865 36.9823 332.631 35.6997 332.631 34.343C332.631 32.5177 333.05 30.8527 333.889 29.348C334.727 27.8433 335.887 26.6347 337.367 25.722C338.871 24.8093 340.586 24.353 342.51 24.353C344.458 24.353 346.148 24.8217 347.579 25.759C349.034 26.6717 350.156 27.8803 350.946 29.385C351.76 30.865 352.167 32.4683 352.167 34.195C352.167 34.4417 352.154 34.6883 352.13 34.935C352.13 35.157 352.117 35.3297 352.093 35.453H336.072C336.17 36.711 336.516 37.8333 337.108 38.82C337.724 39.782 338.514 40.5467 339.476 41.114C340.438 41.6567 341.474 41.928 342.584 41.928C343.768 41.928 344.878 41.632 345.914 41.04C346.974 40.448 347.702 39.671 348.097 38.709L350.909 39.486C350.489 40.4233 349.86 41.262 349.022 42.002C348.208 42.742 347.233 43.3217 346.099 43.741C344.989 44.1603 343.78 44.37 342.473 44.37ZM335.961 33.196H349.133C349.034 31.938 348.676 30.828 348.06 29.866C347.443 28.904 346.654 28.1517 345.692 27.609C344.73 27.0663 343.669 26.795 342.51 26.795C341.375 26.795 340.327 27.0663 339.365 27.609C338.403 28.1517 337.613 28.904 336.997 29.866C336.405 30.828 336.059 31.938 335.961 33.196ZM355.749 44V24.686H359.005V32.678H369.069V24.686H372.325V44H369.069V35.564H359.005V44H355.749ZM377.537 44V24.723H380.793V39.634L391.597 24.686H394.557V44H391.301V29.385L380.645 44H377.537ZM398.317 44L403.793 36.23C402.535 35.9833 401.523 35.3913 400.759 34.454C399.994 33.492 399.612 32.2093 399.612 30.606C399.612 29.4467 399.883 28.423 400.426 27.535C400.968 26.647 401.721 25.944 402.683 25.426C403.669 24.908 404.816 24.649 406.124 24.649H414.042V44H410.786V36.748H407.012L401.906 44H398.317ZM406.346 34.343H410.786V27.202H406.716C405.556 27.202 404.631 27.535 403.941 28.201C403.25 28.8423 402.905 29.6687 402.905 30.68C402.905 31.6913 403.188 32.5547 403.756 33.27C404.348 33.9853 405.211 34.343 406.346 34.343Z" fill="black"/>
</svg>
