<svg width="519" height="274" viewBox="0 0 519 274" fill="none" xmlns="http://www.w3.org/2000/svg">
<path fill-rule="evenodd" clip-rule="evenodd" d="M342.945 189.842C379.959 160.697 416.878 128.136 445.631 98.4507C505.577 36.5619 507.328 10.6082 449.542 40.4817C421.72 54.8645 385.17 79.5659 348.055 108.223C388.209 76.6054 428.473 49.0081 458.542 33.4636C516.328 3.59015 514.577 29.5438 454.631 91.4326C423.547 123.525 382.919 158.977 342.945 189.842Z" fill="url(#paint0_linear_317_299)"/>
<path fill-rule="evenodd" clip-rule="evenodd" d="M175.782 83.3575C138.769 112.502 101.85 145.063 73.0965 174.749C13.1508 236.637 11.4 262.591 69.186 232.718C97.0076 218.335 133.558 193.633 170.672 164.976C130.519 196.594 90.2546 224.191 60.1859 239.736C2.39985 269.609 4.15063 243.655 64.0964 181.767C95.1807 149.675 135.809 114.222 175.782 83.3575Z" fill="url(#paint1_linear_317_299)"/>
<defs>
<linearGradient id="paint0_linear_317_299" x1="354.908" y1="100.177" x2="395.478" y2="152.744" gradientUnits="userSpaceOnUse">
<stop stop-color="#31D8B0"/>
<stop offset="1"/>
</linearGradient>
<linearGradient id="paint1_linear_317_299" x1="163.82" y1="173.023" x2="123.25" y2="120.455" gradientUnits="userSpaceOnUse">
<stop stop-color="#31D8B0"/>
<stop offset="1"/>
</linearGradient>
</defs>
</svg>
