<svg width="531" height="276" viewBox="0 0 531 276" fill="none" xmlns="http://www.w3.org/2000/svg">
<path fill-rule="evenodd" clip-rule="evenodd" d="M354.945 189.842C391.959 160.697 428.878 128.136 457.631 98.4507C517.577 36.5619 519.328 10.6082 461.542 40.4817C433.72 54.8645 397.17 79.5659 360.055 108.223C400.209 76.6054 440.473 49.0081 470.542 33.4636C528.328 3.59015 526.577 29.5438 466.631 91.4326C435.547 123.525 394.919 158.977 354.945 189.842Z" fill="url(#paint0_linear_317_292)"/>
<path fill-rule="evenodd" clip-rule="evenodd" d="M175.782 85.3575C138.769 114.502 101.85 147.063 73.0965 176.749C13.1508 238.637 11.4 264.591 69.186 234.718C97.0076 220.335 133.558 195.633 170.672 166.976C130.519 198.594 90.2546 226.191 60.1859 241.736C2.39985 271.609 4.15063 245.655 64.0964 183.767C95.1807 151.675 135.809 116.222 175.782 85.3575Z" fill="url(#paint1_linear_317_292)"/>
<defs>
<linearGradient id="paint0_linear_317_292" x1="366.908" y1="100.177" x2="407.478" y2="152.744" gradientUnits="userSpaceOnUse">
<stop stop-color="#31D8B0"/>
<stop offset="1"/>
</linearGradient>
<linearGradient id="paint1_linear_317_292" x1="163.82" y1="175.023" x2="123.25" y2="122.455" gradientUnits="userSpaceOnUse">
<stop stop-color="#31D8B0"/>
<stop offset="1"/>
</linearGradient>
</defs>
</svg>
