<svg width="519" height="261" viewBox="0 0 519 261" fill="none" xmlns="http://www.w3.org/2000/svg">
<path fill-rule="evenodd" clip-rule="evenodd" d="M342.945 189.842C379.959 160.697 416.878 128.136 445.631 98.4507C505.577 36.5619 507.328 10.6082 449.542 40.4817C421.72 54.8645 385.17 79.5659 348.056 108.223C388.209 76.6054 428.473 49.0081 458.542 33.4636C516.328 3.59015 514.577 29.5438 454.631 91.4326C423.547 123.525 382.919 158.977 342.945 189.842Z" fill="url(#paint0_linear_317_313)"/>
<path fill-rule="evenodd" clip-rule="evenodd" d="M175.782 70.3575C138.769 99.5024 101.85 132.063 73.0965 161.749C13.1508 223.637 11.4 249.591 69.186 219.718C97.0076 205.335 133.558 180.633 170.672 151.976C130.519 183.594 90.2546 211.191 60.1859 226.736C2.39985 256.609 4.15063 230.655 64.0964 168.767C95.1807 136.675 135.809 101.222 175.782 70.3575Z" fill="url(#paint1_linear_317_313)"/>
<defs>
<linearGradient id="paint0_linear_317_313" x1="354.908" y1="100.177" x2="395.478" y2="152.744" gradientUnits="userSpaceOnUse">
<stop stop-color="#31D8B0"/>
<stop offset="1"/>
</linearGradient>
<linearGradient id="paint1_linear_317_313" x1="163.82" y1="160.023" x2="123.25" y2="107.455" gradientUnits="userSpaceOnUse">
<stop stop-color="#31D8B0"/>
<stop offset="1"/>
</linearGradient>
</defs>
</svg>
