<svg width="323" height="112" viewBox="0 0 323 112" fill="none" xmlns="http://www.w3.org/2000/svg">
<path d="M351.527 101.712L12.0001 101.712" stroke="black" stroke-width="0.7" stroke-linecap="square"/>
<path d="M340.805 108.075L35.3346 108.075" stroke="black" stroke-width="1.2" stroke-linecap="square"/>
<path d="M355.909 76L50.4391 76" stroke="black" stroke-width="0.7" stroke-linecap="square"/>
<path d="M54.845 53V12.53H86.081V53H80.951V17.09H59.975V53H54.845ZM110.977 53.57C108.545 53.57 106.379 52.962 104.479 51.746C102.579 50.53 101.078 48.991 99.9761 47.129V65.141H94.9601V23.246H99.4061V28.832C100.584 27.008 102.123 25.545 104.023 24.443C105.923 23.303 107.994 22.733 110.236 22.733C112.288 22.733 114.169 23.151 115.879 23.987C117.589 24.823 119.071 25.963 120.325 27.407C121.579 28.851 122.548 30.504 123.232 32.366C123.954 34.19 124.315 36.109 124.315 38.123C124.315 40.935 123.745 43.519 122.605 45.875C121.503 48.231 119.945 50.112 117.931 51.518C115.917 52.886 113.599 53.57 110.977 53.57ZM109.438 49.238C110.92 49.238 112.25 48.934 113.428 48.326C114.644 47.68 115.67 46.844 116.506 45.818C117.38 44.754 118.045 43.557 118.501 42.227C118.957 40.897 119.185 39.529 119.185 38.123C119.185 36.641 118.919 35.235 118.387 33.905C117.893 32.575 117.171 31.397 116.221 30.371C115.309 29.345 114.226 28.547 112.972 27.977C111.756 27.369 110.426 27.065 108.982 27.065C108.07 27.065 107.12 27.236 106.132 27.578C105.182 27.92 104.27 28.414 103.396 29.06C102.522 29.668 101.781 30.371 101.173 31.169C100.565 31.967 100.166 32.822 99.9761 33.734V42.227C100.546 43.519 101.306 44.697 102.256 45.761C103.206 46.825 104.308 47.68 105.562 48.326C106.816 48.934 108.108 49.238 109.438 49.238ZM143.47 53.57C141.228 53.57 139.195 53.171 137.371 52.373C135.547 51.537 133.97 50.416 132.64 49.01C131.31 47.566 130.284 45.913 129.562 44.051C128.84 42.189 128.479 40.232 128.479 38.18C128.479 36.09 128.84 34.114 129.562 32.252C130.284 30.39 131.31 28.756 132.64 27.35C133.97 25.906 135.547 24.785 137.371 23.987C139.233 23.151 141.266 22.733 143.47 22.733C145.712 22.733 147.745 23.151 149.569 23.987C151.393 24.785 152.97 25.906 154.3 27.35C155.668 28.756 156.713 30.39 157.435 32.252C158.157 34.114 158.518 36.09 158.518 38.18C158.518 40.232 158.157 42.189 157.435 44.051C156.713 45.913 155.687 47.566 154.357 49.01C153.027 50.416 151.431 51.537 149.569 52.373C147.745 53.171 145.712 53.57 143.47 53.57ZM133.609 38.237C133.609 40.289 134.046 42.151 134.92 43.823C135.832 45.495 137.029 46.825 138.511 47.813C139.993 48.763 141.646 49.238 143.47 49.238C145.294 49.238 146.947 48.744 148.429 47.756C149.949 46.768 151.146 45.438 152.02 43.766C152.932 42.056 153.388 40.175 153.388 38.123C153.388 36.071 152.932 34.209 152.02 32.537C151.146 30.865 149.949 29.535 148.429 28.547C146.947 27.559 145.294 27.065 143.47 27.065C141.646 27.065 139.993 27.578 138.511 28.604C137.029 29.592 135.832 30.922 134.92 32.594C134.046 34.266 133.609 36.147 133.609 38.237ZM177.763 53.57C175.521 53.57 173.469 53.171 171.607 52.373C169.783 51.537 168.187 50.416 166.819 49.01C165.489 47.566 164.444 45.913 163.684 44.051C162.962 42.189 162.601 40.213 162.601 38.123C162.601 35.311 163.247 32.746 164.539 30.428C165.831 28.11 167.617 26.248 169.897 24.842C172.215 23.436 174.856 22.733 177.82 22.733C180.822 22.733 183.425 23.455 185.629 24.899C187.871 26.305 189.6 28.167 190.816 30.485C192.07 32.765 192.697 35.235 192.697 37.895C192.697 38.275 192.678 38.655 192.64 39.035C192.64 39.377 192.621 39.643 192.583 39.833H167.902C168.054 41.771 168.586 43.5 169.498 45.02C170.448 46.502 171.664 47.68 173.146 48.554C174.628 49.39 176.224 49.808 177.934 49.808C179.758 49.808 181.468 49.352 183.064 48.44C184.698 47.528 185.819 46.331 186.427 44.849L190.759 46.046C190.113 47.49 189.144 48.782 187.852 49.922C186.598 51.062 185.097 51.955 183.349 52.601C181.639 53.247 179.777 53.57 177.763 53.57ZM167.731 36.356H188.023C187.871 34.418 187.32 32.708 186.37 31.226C185.42 29.744 184.204 28.585 182.722 27.749C181.24 26.913 179.606 26.495 177.82 26.495C176.072 26.495 174.457 26.913 172.975 27.749C171.493 28.585 170.277 29.744 169.327 31.226C168.415 32.708 167.883 34.418 167.731 36.356ZM198.216 53V23.246H203.232V35.501H206.538L215.886 23.246H221.586L210.471 37.667L222.897 53H217.083L206.538 40.118H203.232V53H198.216ZM235.069 53V27.692H224.809V23.246H250.345V27.692H240.085V53H235.069ZM255.327 53V23.246H260.343V33.392H266.385C269.881 33.392 272.522 34.285 274.308 36.071C276.132 37.819 277.044 40.118 277.044 42.968C277.044 44.868 276.645 46.578 275.847 48.098C275.087 49.618 273.947 50.815 272.427 51.689C270.907 52.563 269.007 53 266.727 53H255.327ZM260.343 49.067H266.043C267.449 49.067 268.57 48.801 269.406 48.269C270.28 47.699 270.926 46.958 271.344 46.046C271.762 45.134 271.971 44.146 271.971 43.082C271.971 42.056 271.781 41.106 271.401 40.232C271.021 39.358 270.394 38.655 269.52 38.123C268.646 37.591 267.449 37.325 265.929 37.325H260.343V49.067ZM282.174 53V23.303H287.19V53H282.174Z" fill="black"/>
</svg>
