<svg width="602" height="263" viewBox="0 0 602 263" fill="none" xmlns="http://www.w3.org/2000/svg">
<path fill-rule="evenodd" clip-rule="evenodd" d="M425.945 189.842C462.959 160.697 499.878 128.136 528.631 98.4507C588.577 36.5619 590.328 10.6082 532.542 40.4817C504.72 54.8645 468.17 79.5659 431.056 108.223C471.209 76.6054 511.473 49.0081 541.542 33.4636C599.328 3.59015 597.577 29.5438 537.632 91.4326C506.547 123.525 465.919 158.977 425.945 189.842Z" fill="url(#paint0_linear_317_306)"/>
<path fill-rule="evenodd" clip-rule="evenodd" d="M175.782 72.3575C138.769 101.502 101.85 134.063 73.0965 163.749C13.1508 225.637 11.4 251.591 69.186 221.718C97.0076 207.335 133.558 182.633 170.672 153.976C130.519 185.594 90.2546 213.191 60.1859 228.736C2.39985 258.609 4.15063 232.655 64.0964 170.767C95.1807 138.675 135.809 103.222 175.782 72.3575Z" fill="url(#paint1_linear_317_306)"/>
<defs>
<linearGradient id="paint0_linear_317_306" x1="437.908" y1="100.177" x2="478.478" y2="152.744" gradientUnits="userSpaceOnUse">
<stop stop-color="#31D8B0"/>
<stop offset="1"/>
</linearGradient>
<linearGradient id="paint1_linear_317_306" x1="163.82" y1="162.023" x2="123.25" y2="109.455" gradientUnits="userSpaceOnUse">
<stop stop-color="#31D8B0"/>
<stop offset="1"/>
</linearGradient>
</defs>
</svg>
