<svg width="249" height="129" viewBox="0 0 249 129" fill="none" xmlns="http://www.w3.org/2000/svg">
<path d="M247.909 107.5L-57.5609 107.5" stroke="black" stroke-width="0.7" stroke-linecap="square"/>
<path d="M210.182 127L-95.288 127" stroke="black" stroke-width="0.7" stroke-linecap="square"/>
<path d="M232.805 99.0752L-72.6654 99.0752" stroke="black" stroke-width="1.2" stroke-linecap="square"/>
<path d="M43.177 68.171V63.839H45.742C46.692 63.839 47.395 63.611 47.851 63.155C48.345 62.661 48.858 61.939 49.39 60.989L50.872 57.797L34 27.53H39.643L53.209 52.553L64.609 27.53H70.024L53.323 63.44C52.487 65.15 51.594 66.366 50.644 67.088C49.732 67.81 48.459 68.171 46.825 68.171H43.177ZM86.672 68.57C84.43 68.57 82.378 68.171 80.516 67.373C78.692 66.537 77.096 65.397 75.728 63.953C74.398 62.509 73.353 60.856 72.593 58.994C71.871 57.132 71.51 55.156 71.51 53.066C71.51 50.254 72.137 47.689 73.391 45.371C74.645 43.053 76.412 41.21 78.692 39.842C80.972 38.436 83.613 37.733 86.615 37.733C89.541 37.733 92.087 38.398 94.253 39.728C96.457 41.02 98.091 42.768 99.155 44.972L94.253 46.511C93.493 45.105 92.429 44.022 91.061 43.262C89.693 42.464 88.173 42.065 86.501 42.065C84.677 42.065 83.005 42.54 81.485 43.49C80.003 44.44 78.825 45.751 77.951 47.423C77.077 49.057 76.64 50.938 76.64 53.066C76.64 55.156 77.077 57.056 77.951 58.766C78.863 60.438 80.06 61.768 81.542 62.756C83.062 63.744 84.734 64.238 86.558 64.238C87.736 64.238 88.857 64.029 89.921 63.611C91.023 63.193 91.973 62.642 92.771 61.958C93.607 61.236 94.177 60.457 94.481 59.621L99.383 61.103C98.775 62.547 97.844 63.839 96.59 64.979C95.374 66.081 93.911 66.955 92.201 67.601C90.529 68.247 88.686 68.57 86.672 68.57ZM102.445 68.228V63.725C103.433 63.725 104.307 63.478 105.067 62.984C105.865 62.452 106.568 61.578 107.176 60.362C107.784 59.108 108.259 57.398 108.601 55.232C108.981 53.028 109.228 50.235 109.342 46.853L109.684 38.246H129.919V68H124.903V42.692H114.13L114.016 47.309C113.864 51.375 113.522 54.757 112.99 57.455C112.458 60.153 111.717 62.281 110.767 63.839C109.817 65.397 108.639 66.518 107.233 67.202C105.865 67.886 104.269 68.228 102.445 68.228ZM141.725 80.483C141.079 80.483 140.414 80.388 139.73 80.198C139.084 80.008 138.419 79.723 137.735 79.343L139.445 75.923C139.787 76.113 140.11 76.246 140.414 76.322C140.756 76.436 141.079 76.493 141.383 76.493C142.295 76.493 143.15 76.056 143.948 75.182C144.784 74.346 145.563 73.054 146.285 71.306L147.71 67.715L134.657 38.246H139.958L149.99 62.927L159.053 38.246H164.012L150.104 72.845C149.42 74.555 148.641 75.961 147.767 77.063C146.893 78.203 145.943 79.058 144.917 79.628C143.891 80.198 142.827 80.483 141.725 80.483ZM169.023 68V38.246H187.377V42.692H174.039V68H169.023ZM192.458 68V38.303H197.474V61.274L214.118 38.246H218.678V68H213.662V45.485L197.246 68H192.458Z" fill="black"/>
</svg>
