<svg width="167" height="53" viewBox="0 0 167 53" fill="none" xmlns="http://www.w3.org/2000/svg">
<path d="M194 39L24 39" stroke="black" stroke-width="0.7" stroke-linecap="round"/>
<path d="M173 48L3.00001 48" stroke="black" stroke-width="0.7" stroke-linecap="round"/>
<path d="M185 35L16 35" stroke="black" stroke-width="1.2" stroke-linecap="round"/>
<path d="M45.125 25V7.25H58.825V25H56.575V9.25H47.375V25H45.125ZM69.7443 25.25C68.6777 25.25 67.7277 24.9833 66.8943 24.45C66.061 23.9167 65.4027 23.2417 64.9193 22.425V30.325H62.7193V11.95H64.6693V14.4C65.186 13.6 65.861 12.9583 66.6943 12.475C67.5277 11.975 68.436 11.725 69.4193 11.725C70.3193 11.725 71.1443 11.9083 71.8943 12.275C72.6443 12.6417 73.2943 13.1417 73.8443 13.775C74.3943 14.4083 74.8193 15.1333 75.1193 15.95C75.436 16.75 75.5943 17.5917 75.5943 18.475C75.5943 19.7083 75.3443 20.8417 74.8443 21.875C74.361 22.9083 73.6777 23.7333 72.7943 24.35C71.911 24.95 70.8943 25.25 69.7443 25.25ZM69.0693 23.35C69.7193 23.35 70.3027 23.2167 70.8193 22.95C71.3527 22.6667 71.8027 22.3 72.1693 21.85C72.5527 21.3833 72.8443 20.8583 73.0443 20.275C73.2443 19.6917 73.3443 19.0917 73.3443 18.475C73.3443 17.825 73.2277 17.2083 72.9943 16.625C72.7777 16.0417 72.461 15.525 72.0443 15.075C71.6443 14.625 71.1693 14.275 70.6193 14.025C70.086 13.7583 69.5027 13.625 68.8693 13.625C68.4693 13.625 68.0527 13.7 67.6193 13.85C67.2027 14 66.8027 14.2167 66.4193 14.5C66.036 14.7667 65.711 15.075 65.4443 15.425C65.1777 15.775 65.0027 16.15 64.9193 16.55V20.275C65.1693 20.8417 65.5027 21.3583 65.9193 21.825C66.336 22.2917 66.8193 22.6667 67.3693 22.95C67.9193 23.2167 68.486 23.35 69.0693 23.35ZM83.9955 25.25C83.0122 25.25 82.1205 25.075 81.3205 24.725C80.5205 24.3583 79.8288 23.8667 79.2455 23.25C78.6622 22.6167 78.2122 21.8917 77.8955 21.075C77.5788 20.2583 77.4205 19.4 77.4205 18.5C77.4205 17.5833 77.5788 16.7167 77.8955 15.9C78.2122 15.0833 78.6622 14.3667 79.2455 13.75C79.8288 13.1167 80.5205 12.625 81.3205 12.275C82.1372 11.9083 83.0288 11.725 83.9955 11.725C84.9788 11.725 85.8705 11.9083 86.6705 12.275C87.4705 12.625 88.1622 13.1167 88.7455 13.75C89.3455 14.3667 89.8038 15.0833 90.1205 15.9C90.4372 16.7167 90.5955 17.5833 90.5955 18.5C90.5955 19.4 90.4372 20.2583 90.1205 21.075C89.8038 21.8917 89.3538 22.6167 88.7705 23.25C88.1872 23.8667 87.4872 24.3583 86.6705 24.725C85.8705 25.075 84.9788 25.25 83.9955 25.25ZM79.6705 18.525C79.6705 19.425 79.8622 20.2417 80.2455 20.975C80.6455 21.7083 81.1705 22.2917 81.8205 22.725C82.4705 23.1417 83.1955 23.35 83.9955 23.35C84.7955 23.35 85.5205 23.1333 86.1705 22.7C86.8372 22.2667 87.3622 21.6833 87.7455 20.95C88.1455 20.2 88.3455 19.375 88.3455 18.475C88.3455 17.575 88.1455 16.7583 87.7455 16.025C87.3622 15.2917 86.8372 14.7083 86.1705 14.275C85.5205 13.8417 84.7955 13.625 83.9955 13.625C83.1955 13.625 82.4705 13.85 81.8205 14.3C81.1705 14.7333 80.6455 15.3167 80.2455 16.05C79.8622 16.7833 79.6705 17.6083 79.6705 18.525ZM99.0363 25.25C98.053 25.25 97.153 25.075 96.3363 24.725C95.5363 24.3583 94.8363 23.8667 94.2363 23.25C93.653 22.6167 93.1947 21.8917 92.8613 21.075C92.5447 20.2583 92.3863 19.3917 92.3863 18.475C92.3863 17.2417 92.6697 16.1167 93.2363 15.1C93.803 14.0833 94.5863 13.2667 95.5863 12.65C96.603 12.0333 97.7613 11.725 99.0613 11.725C100.378 11.725 101.52 12.0417 102.486 12.675C103.47 13.2917 104.228 14.1083 104.761 15.125C105.311 16.125 105.586 17.2083 105.586 18.375C105.586 18.5417 105.578 18.7083 105.561 18.875C105.561 19.025 105.553 19.1417 105.536 19.225H94.7113C94.778 20.075 95.0113 20.8333 95.4113 21.5C95.828 22.15 96.3613 22.6667 97.0113 23.05C97.6613 23.4167 98.3613 23.6 99.1113 23.6C99.9113 23.6 100.661 23.4 101.361 23C102.078 22.6 102.57 22.075 102.836 21.425L104.736 21.95C104.453 22.5833 104.028 23.15 103.461 23.65C102.911 24.15 102.253 24.5417 101.486 24.825C100.736 25.1083 99.9197 25.25 99.0363 25.25ZM94.6363 17.7H103.536C103.47 16.85 103.228 16.1 102.811 15.45C102.395 14.8 101.861 14.2917 101.211 13.925C100.561 13.5583 99.8447 13.375 99.0613 13.375C98.2947 13.375 97.5863 13.5583 96.9363 13.925C96.2863 14.2917 95.753 14.8 95.3363 15.45C94.9363 16.1 94.703 16.85 94.6363 17.7ZM108.007 25V11.95H110.207V17.325H111.657L115.757 11.95H118.257L113.382 18.275L118.832 25H116.282L111.657 19.35H110.207V25H108.007ZM124.171 25V13.9H119.671V11.95H130.871V13.9H126.371V25H124.171ZM133.056 25V11.95H135.256V16.4H137.906C139.439 16.4 140.597 16.7917 141.381 17.575C142.181 18.3417 142.581 19.35 142.581 20.6C142.581 21.4333 142.406 22.1833 142.056 22.85C141.722 23.5167 141.222 24.0417 140.556 24.425C139.889 24.8083 139.056 25 138.056 25H133.056ZM135.256 23.275H137.756C138.372 23.275 138.864 23.1583 139.231 22.925C139.614 22.675 139.897 22.35 140.081 21.95C140.264 21.55 140.356 21.1167 140.356 20.65C140.356 20.2 140.272 19.7833 140.106 19.4C139.939 19.0167 139.664 18.7083 139.281 18.475C138.897 18.2417 138.372 18.125 137.706 18.125H135.256V23.275ZM144.831 25V11.975H147.031V25H144.831Z" fill="black"/>
</svg>
