<svg width="198" height="229" viewBox="0 0 198 229" fill="none" xmlns="http://www.w3.org/2000/svg">
<path fill-rule="evenodd" clip-rule="evenodd" d="M40.1877 215.841C50.9799 202.663 58.2823 192.892 62.0946 186.531C68.6223 175.638 73.9649 165.946 75.6508 162.243C79.6713 153.414 66.3951 149.28 63.3904 153.398C58.8427 159.631 49.1303 179.245 34.2534 212.238L40.1877 215.841Z" fill="#B28B67"/>
<path fill-rule="evenodd" clip-rule="evenodd" d="M62.3037 212.009L82.3887 161.451C86.6845 152.234 65.9393 146.176 62.7822 150.465C55.6147 160.203 38.5791 198.617 36.4436 201.518L62.3037 212.009Z" fill="black"/>
<path fill-rule="evenodd" clip-rule="evenodd" d="M110.158 204.442C107.444 198.077 97.2653 176.453 91.2272 167.14C89.4921 164.464 87.792 161.888 86.1779 159.482C81.3804 152.33 67.445 159.94 72.3379 166.559C84.5231 183.043 102.597 205.622 104.087 207.611C106.175 210.399 111.864 208.442 110.158 204.442Z" fill="#B28B67"/>
<path fill-rule="evenodd" clip-rule="evenodd" d="M109.767 201.736C110.87 203.089 111.552 204.149 111.812 204.918C112.128 205.854 112.433 207.271 112.727 209.17C111.642 209.537 101.892 212.83 83.4764 219.049C81.8675 216.793 81.8481 215.288 83.4182 214.535C84.9882 213.781 86.2875 213.141 87.3162 212.614L98.8647 201.961C99.0869 201.756 99.4332 201.77 99.6382 201.992C99.6417 201.996 99.6451 202 99.6485 202.004L101.238 203.829C102.993 204.024 104.345 203.961 105.293 203.641C106.063 203.381 107.021 202.711 108.168 201.631C108.608 201.216 109.301 201.237 109.716 201.677C109.734 201.696 109.751 201.715 109.767 201.736Z" fill="#1B1B1B"/>
<path fill-rule="evenodd" clip-rule="evenodd" d="M44.83 213.87C45.4424 215.505 45.7486 216.728 45.7486 217.54C45.7486 218.527 45.5842 219.967 45.2553 221.861C44.1102 221.861 33.8189 221.861 14.3815 221.861C13.5792 219.209 14.0423 217.777 15.7709 217.565C17.4995 217.354 18.9354 217.163 20.0788 216.993L34.4286 210.595C34.7047 210.472 35.0284 210.596 35.1515 210.872C35.1536 210.877 35.1556 210.882 35.1576 210.887L36.08 213.124C37.6802 213.871 38.9805 214.244 39.981 214.244C40.7938 214.244 41.9164 213.916 43.3486 213.259C43.8983 213.007 44.5481 213.249 44.8 213.798C44.8109 213.822 44.8209 213.846 44.83 213.87Z" fill="#1B1B1B"/>
<path fill-rule="evenodd" clip-rule="evenodd" d="M91.9375 162.141C108.84 162.757 120.169 163.132 125.925 163.266C142.33 163.65 148.66 156.049 149.659 136.898L120.464 131.044C116.377 131.385 98.8506 135.048 67.8847 142.033C62.2619 143.547 61.7134 151.222 62.1537 153.876C62.1716 153.984 67.8304 170.485 79.1299 203.378L106.063 192.953L91.5332 163.925C91.2252 162.781 91.36 162.186 91.9375 162.141Z" fill="#1D1D1D"/>
<path fill-rule="evenodd" clip-rule="evenodd" d="M123.586 41.2301C125.904 34.5133 126.39 27.2039 123.195 20.4783C113.991 1.09985 87.9708 16.3493 86.5149 28.5199C85.0591 40.6906 95.6936 65.9498 103.371 65.0156C106.433 64.643 111.669 60.5663 116.275 54.5701L122.979 82.8272L145.326 74.0732L123.586 41.2301Z" fill="#B28B67"/>
<path fill-rule="evenodd" clip-rule="evenodd" d="M105.362 30.0026C109.174 42.2532 109.246 49.0974 105.575 50.5351C100.07 52.6918 94.0299 51.0265 91.6143 51.9728C89.8533 52.6626 91.1097 54.7123 92.917 55.8889C94.4081 56.8596 99.6068 56.3217 100.425 58.4115C101.244 60.5014 96.9055 60.3361 97.391 61.5755C98.1941 63.6257 99.053 67.7355 102.611 66.3416C106.212 64.9309 116.023 59.5739 115.699 53.5361C115.49 49.6395 113.428 42.2027 109.514 31.2257C109.722 31.1142 109.939 31.0137 110.165 30.9254C113.25 29.7167 116.731 31.2381 117.94 34.3236C118.554 35.8899 118.464 37.5582 117.823 38.9794C119.83 40.2976 122.025 41.6361 124.456 42.9526C129.227 36.7678 130.22 23.5096 120.001 15.376C116.296 10.8815 110.746 10.1149 105.74 10.6016C101.491 10.5046 97.6349 11.8168 94.7949 13.9851C88.7356 16.979 83.8858 21.0842 82.7438 22.8412C85.0692 28.7772 86.9093 30.0878 96.6726 26.0841C99.586 26.4133 102.302 27.8817 105.362 30.0026Z" fill="#1D1D1D"/>
<path d="M95.8678 39.6035C95.8678 40.4319 95.1962 41.1035 94.3678 41.1035C93.5393 41.1035 92.8678 40.4319 92.8678 39.6035C92.8678 38.7751 93.5393 38.1035 94.3678 38.1035C95.1962 38.1035 95.8678 38.7751 95.8678 39.6035Z" fill="#1D1D1D"/>
<path fill-rule="evenodd" clip-rule="evenodd" d="M79.044 114.881C71.8879 121.59 60.7197 132.06 60.7197 132.06C55.439 134.193 51.101 136.575 47.7055 139.205C46.9366 140.096 46.0862 141.814 49.6419 141.102C53.1977 140.39 56.97 139.8 57.6152 140.959C58.2605 142.118 56.2677 143.841 57.4712 145.364C58.2736 146.379 65.9164 135.961 65.9164 135.961L84.8431 125.297L79.044 114.881ZM167.408 100.612L153.483 100.416C163.479 134.821 168.789 152.837 169.414 154.462C170.821 158.12 167.609 163.594 166.225 166.543C170.527 168.552 170.192 161.387 175.618 164.019C180.57 166.422 184.293 170.681 190.125 167.239C190.842 166.816 191.649 165.189 189.794 163.873C185.172 160.595 178.53 154.883 177.652 153.027C176.454 150.495 173.039 133.023 167.408 100.612Z" fill="#B28B67"/>
<path fill-rule="evenodd" clip-rule="evenodd" d="M125.68 60.5219L120.199 59.4848C110.994 89.8218 66.1207 109.813 63.1857 121.163C62.1094 125.325 65.0927 127.492 63.5095 128.738L70.5636 134.075C71.7989 132.691 74.3358 135.309 79.7613 133.606C85.1867 131.902 125.037 96.6262 125.68 60.5219Z" fill="#2ABD9A"/>
<path fill-rule="evenodd" clip-rule="evenodd" d="M116.359 64.4109C116.274 104.79 92.6579 114.67 97.589 130.957C101.661 144.407 142.661 159.517 150.033 146.536C153.018 141.281 154.443 134.887 154.716 127.913C156.445 133.306 157.806 137.946 158.799 141.834C160.511 148.54 167.592 149.728 167.546 152.299L176.945 149.894C176.373 146.39 180.812 144.768 179.769 136.943C175.094 101.883 161.313 76.2842 138.425 60.1463L138.246 56.7285C138.173 55.3313 136.976 54.2575 135.573 54.3301L118.425 55.2178C117.022 55.2904 115.944 56.482 116.017 57.8792L116.359 64.4109Z" fill="#31D8B0"/>
</svg>
