<svg width="839" height="196" viewBox="0 0 839 196" fill="none" xmlns="http://www.w3.org/2000/svg">
<path d="M75.6927 195.77C64.4281 195.77 54.1791 193.831 44.9457 189.953C35.8971 185.89 28.0487 180.35 21.4007 173.333C14.7527 166.316 9.58205 158.283 5.88872 149.234C2.38005 140.185 0.625719 130.583 0.625719 120.426C0.625719 106.761 3.67272 94.2957 9.76672 83.031C16.0454 71.7663 24.7247 62.7177 35.8047 55.885C47.0694 49.0523 60.3654 45.636 75.6927 45.636C90.4661 45.636 103.3 48.96 114.196 55.608C125.276 62.0713 133.401 70.7507 138.572 81.646L108.933 91.064C105.609 84.97 100.9 80.261 94.8057 76.937C88.8964 73.4283 82.3407 71.674 75.1387 71.674C67.0134 71.674 59.6267 73.7977 52.9787 78.045C46.5154 82.1077 41.3447 87.8323 37.4667 95.219C33.7734 102.421 31.9267 110.823 31.9267 120.426C31.9267 129.659 33.8657 138.062 37.7437 145.633C41.6217 153.02 46.7924 158.929 53.2557 163.361C59.9037 167.608 67.2904 169.732 75.4157 169.732C80.4017 169.732 85.2031 168.901 89.8197 167.239C94.6211 165.392 98.7761 162.992 102.285 160.037C105.793 156.898 108.286 153.481 109.764 149.788L139.68 158.652C136.54 165.854 131.831 172.225 125.553 177.765C119.459 183.305 112.164 187.737 103.67 191.061C95.3597 194.2 86.0341 195.77 75.6927 195.77ZM229.071 195.77C217.806 195.77 207.557 193.831 198.324 189.953C189.275 185.89 181.427 180.443 174.779 173.61C168.131 166.593 162.96 158.652 159.267 149.788C155.758 140.739 154.004 131.137 154.004 120.98C154.004 107.315 157.143 94.8497 163.422 83.585C169.7 72.1357 178.472 62.9947 189.737 56.162C201.001 49.1447 214.205 45.636 229.348 45.636C244.49 45.636 257.509 49.1447 268.405 56.162C279.485 62.9947 288.072 72.0433 294.166 83.308C300.26 94.5727 303.307 106.668 303.307 119.595C303.307 121.811 303.214 123.935 303.03 125.966C302.845 127.813 302.66 129.382 302.476 130.675H186.413C186.967 139.17 189.275 146.649 193.338 153.112C197.585 159.391 202.94 164.377 209.404 168.07C215.867 171.579 222.792 173.333 230.179 173.333C238.304 173.333 245.968 171.302 253.17 167.239C260.556 163.176 265.542 157.821 268.128 151.173L294.166 158.652C291.026 165.669 286.225 172.04 279.762 177.765C273.483 183.305 266.004 187.737 257.325 191.061C248.645 194.2 239.227 195.77 229.071 195.77ZM185.582 110.454H273.114C272.56 102.144 270.159 94.8497 265.912 88.571C261.849 82.1077 256.586 77.1217 250.123 73.613C243.844 69.9197 236.827 68.073 229.071 68.073C221.499 68.073 214.482 69.9197 208.019 73.613C201.74 77.1217 196.569 82.1077 192.507 88.571C188.444 94.8497 186.136 102.144 185.582 110.454ZM458.074 193H427.604V111.839C427.604 98.3583 425.388 88.4787 420.956 82.2C416.709 75.9213 410.338 72.782 401.843 72.782C395.934 72.782 390.024 74.2593 384.115 77.214C378.39 80.1687 373.22 84.2313 368.603 89.402C363.986 94.388 360.662 100.205 358.631 106.853V193H328.161V48.129H355.861V77.214C359.554 70.7507 364.356 65.2107 370.265 60.594C376.359 55.7927 383.192 52.0993 390.763 49.514C398.334 46.9287 406.367 45.636 414.862 45.636C423.541 45.636 430.651 47.2057 436.191 50.345C441.916 53.4843 446.348 57.824 449.487 63.364C452.811 68.7193 455.027 74.998 456.135 82.2C457.428 89.2173 458.074 96.6963 458.074 104.637V193ZM572.966 185.521C570.381 186.814 567.149 188.199 563.271 189.676C559.393 191.153 554.961 192.446 549.975 193.554C545.174 194.662 540.188 195.216 535.017 195.216C528.738 195.216 522.921 194.108 517.566 191.892C512.211 189.676 507.871 186.167 504.547 181.366C501.408 176.38 499.838 170.009 499.838 162.253V71.674H480.725V48.129H499.838V0.484985H530.308V48.129H561.886V71.674H530.308V152.558C530.677 157.544 532.247 161.237 535.017 163.638C537.972 166.039 541.573 167.239 545.82 167.239C550.067 167.239 554.13 166.5 558.008 165.023C561.886 163.546 564.748 162.345 566.595 161.422L572.966 185.521ZM657.826 195.77C646.561 195.77 636.312 193.831 627.079 189.953C618.03 185.89 610.182 180.443 603.534 173.61C596.886 166.593 591.715 158.652 588.022 149.788C584.513 140.739 582.759 131.137 582.759 120.98C582.759 107.315 585.898 94.8497 592.177 83.585C598.455 72.1357 607.227 62.9947 618.492 56.162C629.756 49.1447 642.96 45.636 658.103 45.636C673.245 45.636 686.264 49.1447 697.16 56.162C708.24 62.9947 716.827 72.0433 722.921 83.308C729.015 94.5727 732.062 106.668 732.062 119.595C732.062 121.811 731.969 123.935 731.785 125.966C731.6 127.813 731.415 129.382 731.231 130.675H615.168C615.722 139.17 618.03 146.649 622.093 153.112C626.34 159.391 631.695 164.377 638.159 168.07C644.622 171.579 651.547 173.333 658.934 173.333C667.059 173.333 674.723 171.302 681.925 167.239C689.311 163.176 694.297 157.821 696.883 151.173L722.921 158.652C719.781 165.669 714.98 172.04 708.517 177.765C702.238 183.305 694.759 187.737 686.08 191.061C677.4 194.2 667.982 195.77 657.826 195.77ZM614.337 110.454H701.869C701.315 102.144 698.914 94.8497 694.667 88.571C690.604 82.1077 685.341 77.1217 678.878 73.613C672.599 69.9197 665.582 68.073 657.826 68.073C650.254 68.073 643.237 69.9197 636.774 73.613C630.495 77.1217 625.324 82.1077 621.262 88.571C617.199 94.8497 614.891 102.144 614.337 110.454ZM838.354 74.444C826.535 74.6287 816.009 77.3063 806.776 82.477C797.727 87.6477 791.264 94.942 787.386 104.36V193H756.916V48.129H785.17V80.538C790.156 70.566 796.711 62.6253 804.837 56.716C812.962 50.622 821.549 47.298 830.598 46.744C832.444 46.744 833.922 46.744 835.03 46.744C836.322 46.744 837.43 46.8363 838.354 47.021V74.444Z" fill="#EEF7F5" fill-opacity="0.54"/>
</svg>
