<svg width="1646" height="957" viewBox="0 0 1646 957" fill="none" xmlns="http://www.w3.org/2000/svg">
<path d="M68.4 804V196.95H332.595C359.955 196.95 385.035 202.65 407.835 214.05C430.635 225.45 450.3 240.555 466.83 259.365C483.93 278.175 497.04 299.265 506.16 322.635C515.85 346.005 520.695 369.945 520.695 394.455C520.695 421.245 515.85 446.895 506.16 471.405C496.47 495.915 482.505 517.005 464.265 534.675C446.595 552.345 425.79 565.17 401.85 573.15L544.635 804H436.905L305.235 592.815H164.16V804H68.4ZM164.16 508.17H331.74C349.41 508.17 365.085 503.04 378.765 492.78C392.445 482.52 403.275 468.84 411.255 451.74C419.235 434.07 423.225 414.975 423.225 394.455C423.225 373.365 418.665 354.555 409.545 338.025C400.425 320.925 388.455 307.245 373.635 296.985C359.385 286.725 343.71 281.595 326.61 281.595H164.16V508.17Z" fill="#EEF7F5" fill-opacity="0.54"/>
<path d="M970.54 804L678.985 495.345C654.475 469.125 635.095 446.895 620.845 428.655C606.595 410.415 596.335 393.6 590.065 378.21C583.795 362.82 580.66 346.86 580.66 330.33C580.66 302.4 587.5 277.89 601.18 256.8C615.43 235.71 634.81 219.18 659.32 207.21C683.83 195.24 711.19 189.255 741.4 189.255C769.33 189.255 794.98 194.385 818.35 204.645C841.72 214.335 860.53 228.87 874.78 248.25C889.03 267.06 896.155 290.43 896.155 318.36C896.155 344.58 889.315 368.235 875.635 389.325C861.955 410.415 843.715 429.795 820.915 447.465C798.115 465.135 772.75 482.52 744.82 499.62C723.16 513.87 703.495 528.12 685.825 542.37C668.155 556.05 654.19 570.87 643.93 586.83C634.24 602.22 629.395 619.605 629.395 638.985C629.395 658.365 634.81 675.75 645.64 691.14C656.47 705.96 671.005 717.645 689.245 726.195C707.485 734.175 727.435 738.165 749.095 738.165C775.885 738.165 801.25 731.895 825.19 719.355C849.13 706.815 870.505 689.145 889.315 666.345C908.125 642.975 922.66 615.615 932.92 584.265C943.75 552.915 949.165 518.715 949.165 481.665H1026.12C1026.12 531.825 1018.14 577.14 1002.18 617.61C986.785 658.08 965.695 692.85 938.905 721.92C912.685 750.99 882.19 773.505 847.42 789.465C813.22 804.855 777.025 812.55 738.835 812.55C699.505 812.55 664.735 804.855 634.525 789.465C604.315 773.505 580.66 752.415 563.56 726.195C547.03 699.975 538.765 670.62 538.765 638.13C538.765 606.21 545.89 578.565 560.14 555.195C574.96 531.255 593.77 510.165 616.57 491.925C639.94 473.115 663.31 456.3 686.68 441.48C711.76 425.52 733.42 411.555 751.66 399.585C769.9 387.045 784.15 374.505 794.41 361.965C804.67 348.855 809.8 334.89 809.8 320.07C809.8 301.83 803.245 287.295 790.135 276.465C777.595 265.065 761.35 259.365 741.4 259.365C726.58 259.365 713.47 262.5 702.07 268.77C691.24 275.04 682.69 283.305 676.42 293.565C670.15 303.825 667.015 315.225 667.015 327.765C667.015 336.315 669.295 345.15 673.855 354.27C678.415 362.82 686.965 374.22 699.505 388.47C712.045 402.15 729.43 420.96 751.66 444.9L1094.52 804H970.54Z" fill="#EEF7F5" fill-opacity="0.54"/>
<path d="M1102.4 804V196.95H1317.86C1383.41 196.95 1438.13 210.63 1482.02 237.99C1525.91 264.78 1558.69 301.26 1580.35 347.43C1602.58 393.03 1613.69 443.76 1613.69 499.62C1613.69 561.18 1601.44 614.76 1576.93 660.36C1552.99 705.96 1518.79 741.3 1474.33 766.38C1429.87 791.46 1377.71 804 1317.86 804H1102.4ZM1516.22 499.62C1516.22 456.87 1508.24 419.25 1492.28 386.76C1476.89 353.7 1454.38 328.05 1424.74 309.81C1395.67 291 1360.04 281.595 1317.86 281.595H1198.16V719.355H1317.86C1360.61 719.355 1396.52 709.665 1425.59 690.285C1455.23 670.905 1477.75 644.685 1493.14 611.625C1508.53 578.565 1516.22 541.23 1516.22 499.62Z" fill="#EEF7F5" fill-opacity="0.54"/>
</svg>
