<svg width="249" height="196" viewBox="0 0 249 196" fill="none" xmlns="http://www.w3.org/2000/svg">
<path d="M113.782 68.2604L187.617 142.095" stroke="#31D8B0" stroke-opacity="0.29" stroke-width="7" stroke-linecap="square"/>
<path d="M96.116 29.3004L194.295 127.479" stroke="#31D8B0" stroke-opacity="0.29" stroke-width="10" stroke-linecap="square"/>
<path d="M43.1121 14.8912L199.97 171.749" stroke="#31D8B0" stroke-opacity="0.29" stroke-width="6" stroke-linecap="square"/>
<path d="M8.46826 5.74963L125.562 122.843" stroke="#31D8B0" stroke-opacity="0.29" stroke-width="3" stroke-linecap="square"/>
<path d="M52.1697 73.6525L162.756 184.239" stroke="#31D8B0" stroke-opacity="0.29" stroke-width="5" stroke-linecap="square"/>
<path d="M138.522 38.277L236.713 136.468" stroke="#31D8B0" stroke-opacity="0.29" stroke-width="3" stroke-linecap="square"/>
<rect x="70" y="54" width="112" height="112" rx="11" fill="white" stroke="black" stroke-width="4"/>
<path d="M83.7727 78H80.3636L84.2045 66.3636H88.5227L92.3636 78H88.9545L86.4091 69.5682H86.3182L83.7727 78ZM83.1364 73.4091H89.5455V75.7727H83.1364V73.4091ZM92.8444 78V66.3636H97.8671C98.7307 66.3636 99.4864 66.5208 100.134 66.8352C100.782 67.1496 101.286 67.6023 101.646 68.1932C102.005 68.7841 102.185 69.4924 102.185 70.3182C102.185 71.1515 102 71.8542 101.628 72.4261C101.261 72.9981 100.744 73.4299 100.077 73.7216C99.4145 74.0133 98.6398 74.1591 97.7535 74.1591H94.7535V71.7045H97.1171C97.4883 71.7045 97.8046 71.6591 98.066 71.5682C98.3311 71.4735 98.5338 71.3239 98.6739 71.1193C98.8179 70.9148 98.8898 70.6477 98.8898 70.3182C98.8898 69.9848 98.8179 69.714 98.6739 69.5057C98.5338 69.2936 98.3311 69.1383 98.066 69.0398C97.8046 68.9375 97.4883 68.8864 97.1171 68.8864H96.0035V78H92.8444ZM99.6626 72.6591L102.572 78H99.1398L96.2989 72.6591H99.6626ZM102.892 66.3636H106.824L109.528 72.9545H109.665L112.369 66.3636H116.301V78H113.21V71.2727H113.119L110.528 77.9091H108.665L106.074 71.2273H105.983V78H102.892V66.3636Z" fill="black"/>
<path d="M91.8509 107.5C91.7997 106.861 91.56 106.362 91.1317 106.004C90.7099 105.646 90.0675 105.467 89.2045 105.467C88.6548 105.467 88.2042 105.534 87.8526 105.669C87.5075 105.797 87.2518 105.972 87.0856 106.196C86.9194 106.42 86.8331 106.675 86.8267 106.963C86.8139 107.2 86.8555 107.414 86.9513 107.605C87.0536 107.791 87.2134 107.96 87.4308 108.114C87.6481 108.261 87.9261 108.395 88.2649 108.516C88.6037 108.638 89.0064 108.746 89.473 108.842L91.0838 109.188C92.1705 109.418 93.1005 109.721 93.8739 110.098C94.6474 110.475 95.2802 110.92 95.7724 111.431C96.2646 111.936 96.6257 112.505 96.8558 113.138C97.0923 113.771 97.2138 114.461 97.2202 115.209C97.2138 116.5 96.891 117.593 96.2518 118.488C95.6126 119.383 94.6985 120.064 93.5096 120.53C92.3271 120.997 90.9048 121.23 89.2429 121.23C87.5362 121.23 86.0469 120.978 84.7749 120.473C83.5092 119.968 82.5249 119.191 81.8217 118.143C81.125 117.088 80.7734 115.739 80.767 114.097H85.8295C85.8615 114.697 86.0117 115.202 86.2802 115.612C86.5487 116.021 86.9258 116.331 87.4116 116.542C87.9038 116.752 88.4886 116.858 89.1662 116.858C89.7351 116.858 90.2113 116.788 90.5948 116.647C90.9783 116.506 91.2692 116.311 91.4673 116.062C91.6655 115.813 91.7678 115.528 91.7741 115.209C91.7678 114.908 91.6687 114.646 91.4769 114.423C91.2915 114.192 90.9847 113.988 90.5565 113.809C90.1282 113.624 89.5497 113.451 88.821 113.291L86.8651 112.869C85.1264 112.492 83.7553 111.863 82.7518 110.98C81.7546 110.092 81.2592 108.881 81.2656 107.347C81.2592 106.1 81.5916 105.01 82.2628 104.077C82.9403 103.137 83.8768 102.406 85.0721 101.881C86.2738 101.357 87.6513 101.095 89.2045 101.095C90.7898 101.095 92.1609 101.36 93.3178 101.891C94.4748 102.422 95.3665 103.169 95.9929 104.135C96.6257 105.093 96.9453 106.215 96.9517 107.5H91.8509ZM97.6311 105.659V101.364H114.698V105.659H108.792V121H103.537V105.659H97.6311ZM115.624 101.364H122.259L126.823 112.486H127.053L131.617 101.364H138.252V121H133.036V109.648H132.883L128.511 120.847H125.366L120.993 109.571H120.84V121H115.624V101.364ZM147.225 121.268C145.844 121.268 144.617 121.032 143.543 120.559C142.476 120.086 141.632 119.428 141.012 118.584C140.392 117.74 140.063 116.765 140.024 115.659H143.63C143.662 116.19 143.837 116.653 144.157 117.05C144.477 117.44 144.902 117.743 145.432 117.961C145.963 118.178 146.557 118.287 147.216 118.287C147.919 118.287 148.542 118.165 149.085 117.922C149.629 117.673 150.054 117.328 150.36 116.887C150.667 116.446 150.817 115.937 150.811 115.362C150.817 114.768 150.664 114.244 150.351 113.79C150.038 113.336 149.584 112.981 148.989 112.725C148.401 112.47 147.692 112.342 146.861 112.342H145.125V109.6H146.861C147.545 109.6 148.142 109.482 148.654 109.245C149.171 109.009 149.577 108.676 149.871 108.248C150.165 107.813 150.309 107.311 150.303 106.743C150.309 106.186 150.185 105.704 149.929 105.295C149.68 104.879 149.325 104.556 148.865 104.326C148.411 104.096 147.877 103.981 147.263 103.981C146.663 103.981 146.107 104.09 145.595 104.307C145.084 104.525 144.671 104.835 144.358 105.237C144.045 105.634 143.879 106.107 143.86 106.656H140.437C140.462 105.557 140.779 104.592 141.386 103.761C142 102.923 142.818 102.271 143.841 101.805C144.863 101.332 146.011 101.095 147.283 101.095C148.593 101.095 149.731 101.341 150.696 101.833C151.668 102.319 152.419 102.974 152.949 103.799C153.48 104.624 153.745 105.534 153.745 106.532C153.751 107.637 153.425 108.564 152.767 109.312C152.115 110.06 151.258 110.549 150.197 110.779V110.933C151.578 111.124 152.636 111.636 153.371 112.467C154.113 113.291 154.48 114.317 154.474 115.544C154.474 116.644 154.16 117.628 153.534 118.498C152.914 119.36 152.057 120.038 150.964 120.53C149.878 121.022 148.631 121.268 147.225 121.268ZM156.685 121V118.43L163.502 111.748C164.154 111.089 164.697 110.504 165.132 109.993C165.567 109.482 165.893 108.986 166.11 108.507C166.327 108.027 166.436 107.516 166.436 106.973C166.436 106.353 166.295 105.822 166.014 105.381C165.733 104.934 165.346 104.588 164.854 104.346C164.362 104.103 163.802 103.981 163.176 103.981C162.53 103.981 161.965 104.115 161.479 104.384C160.993 104.646 160.616 105.02 160.347 105.506C160.085 105.991 159.954 106.57 159.954 107.241H156.57C156.57 105.995 156.854 104.911 157.423 103.991C157.992 103.07 158.775 102.358 159.772 101.853C160.776 101.348 161.926 101.095 163.224 101.095C164.541 101.095 165.698 101.341 166.695 101.833C167.692 102.326 168.465 103 169.015 103.857C169.571 104.713 169.849 105.691 169.849 106.79C169.849 107.526 169.709 108.248 169.427 108.957C169.146 109.667 168.651 110.453 167.941 111.316C167.238 112.179 166.25 113.224 164.978 114.451L161.594 117.893V118.028H170.146V121H156.685Z" fill="black"/>
<path d="M82 177.574C82 177.847 82.1084 178.108 82.3015 178.301L83.7101 179.71C83.8966 179.897 84.0064 180.146 84.0178 180.41L84.4348 190.001C84.4713 190.839 85.1612 191.5 86 191.5C86.8388 191.5 87.5287 190.839 87.5652 190.001L87.9822 180.41C87.9936 180.146 88.1034 179.897 88.2899 179.71L89.6985 178.301C89.8916 178.108 90 177.847 90 177.574V165H82V177.574Z" fill="black"/>
<path d="M98 177.574C98 177.847 98.1084 178.108 98.3015 178.301L99.7101 179.71C99.8966 179.897 100.006 180.146 100.018 180.41L100.435 190.001C100.471 190.839 101.161 191.5 102 191.5C102.839 191.5 103.529 190.839 103.565 190.001L103.982 180.41C103.994 180.146 104.103 179.897 104.29 179.71L105.699 178.301C105.892 178.108 106 177.847 106 177.574V165H98V177.574Z" fill="black"/>
<path d="M114 177.574C114 177.847 114.108 178.108 114.301 178.301L115.71 179.71C115.897 179.897 116.006 180.146 116.018 180.41L116.435 190.001C116.471 190.839 117.161 191.5 118 191.5C118.839 191.5 119.529 190.839 119.565 190.001L119.982 180.41C119.994 180.146 120.103 179.897 120.29 179.71L121.699 178.301C121.892 178.108 122 177.847 122 177.574V165H114V177.574Z" fill="black"/>
<path d="M130 177.574C130 177.847 130.108 178.108 130.301 178.301L131.71 179.71C131.897 179.897 132.006 180.146 132.018 180.41L132.435 190.001C132.471 190.839 133.161 191.5 134 191.5C134.839 191.5 135.529 190.839 135.565 190.001L135.982 180.41C135.994 180.146 136.103 179.897 136.29 179.71L137.699 178.301C137.892 178.108 138 177.847 138 177.574V165H130V177.574Z" fill="black"/>
<path d="M146 177.574C146 177.847 146.108 178.108 146.301 178.301L147.71 179.71C147.897 179.897 148.006 180.146 148.018 180.41L148.435 190.001C148.471 190.839 149.161 191.5 150 191.5C150.839 191.5 151.529 190.839 151.565 190.001L151.982 180.41C151.994 180.146 152.103 179.897 152.29 179.71L153.699 178.301C153.892 178.108 154 177.847 154 177.574V165H146V177.574Z" fill="black"/>
<path d="M162 177.574C162 177.847 162.108 178.108 162.301 178.301L163.71 179.71C163.897 179.897 164.006 180.146 164.018 180.41L164.435 190.001C164.471 190.839 165.161 191.5 166 191.5C166.839 191.5 167.529 190.839 167.565 190.001L167.982 180.41C167.994 180.146 168.103 179.897 168.29 179.71L169.699 178.301C169.892 178.108 170 177.847 170 177.574V165H162V177.574Z" fill="black"/>
<path d="M193.574 154C193.847 154 194.108 153.892 194.301 153.699L195.71 152.29C195.897 152.103 196.146 151.994 196.41 151.982L206.001 151.565C206.839 151.529 207.5 150.839 207.5 150C207.5 149.161 206.839 148.471 206.001 148.435L196.41 148.018C196.146 148.006 195.897 147.897 195.71 147.71L194.301 146.301C194.108 146.108 193.847 146 193.574 146L181 146L181 154L193.574 154Z" fill="black"/>
<path d="M193.574 138C193.847 138 194.108 137.892 194.301 137.699L195.71 136.29C195.897 136.103 196.146 135.994 196.41 135.982L206.001 135.565C206.839 135.529 207.5 134.839 207.5 134C207.5 133.161 206.839 132.471 206.001 132.435L196.41 132.018C196.146 132.006 195.897 131.897 195.71 131.71L194.301 130.301C194.108 130.108 193.847 130 193.574 130L181 130L181 138L193.574 138Z" fill="black"/>
<path d="M193.574 122C193.847 122 194.108 121.892 194.301 121.699L195.71 120.29C195.897 120.103 196.146 119.994 196.41 119.982L206.001 119.565C206.839 119.529 207.5 118.839 207.5 118C207.5 117.161 206.839 116.471 206.001 116.435L196.41 116.018C196.146 116.006 195.897 115.897 195.71 115.71L194.301 114.301C194.108 114.108 193.847 114 193.574 114L181 114L181 122L193.574 122Z" fill="black"/>
<path d="M193.574 106C193.847 106 194.108 105.892 194.301 105.699L195.71 104.29C195.897 104.103 196.146 103.994 196.41 103.982L206.001 103.565C206.839 103.529 207.5 102.839 207.5 102C207.5 101.161 206.839 100.471 206.001 100.435L196.41 100.018C196.146 100.006 195.897 99.8966 195.71 99.7101L194.301 98.3015C194.108 98.1084 193.847 98 193.574 98L181 98L181 106L193.574 106Z" fill="black"/>
<path d="M193.574 90C193.847 90 194.108 89.8916 194.301 89.6985L195.71 88.2899C195.897 88.1034 196.146 87.9936 196.41 87.9822L206.001 87.5652C206.839 87.5287 207.5 86.8388 207.5 86C207.5 85.1612 206.839 84.4713 206.001 84.4348L196.41 84.0178C196.146 84.0064 195.897 83.8966 195.71 83.7101L194.301 82.3015C194.108 82.1084 193.847 82 193.574 82L181 82L181 90L193.574 90Z" fill="black"/>
<path d="M193.574 74C193.847 74 194.108 73.8916 194.301 73.6985L195.71 72.2899C195.897 72.1034 196.146 71.9936 196.41 71.9822L206.001 71.5652C206.839 71.5287 207.5 70.8388 207.5 70C207.5 69.1612 206.839 68.4713 206.001 68.4348L196.41 68.0178C196.146 68.0064 195.897 67.8966 195.71 67.7101L194.301 66.3015C194.108 66.1084 193.847 66 193.574 66L181 66L181 74L193.574 74Z" fill="black"/>
<path d="M57.9263 151C57.6534 151 57.3916 150.892 57.1985 150.699L55.7899 149.29C55.6034 149.103 55.3539 148.994 55.0904 148.982L45.4986 148.565C44.6606 148.529 44 147.839 44 147C44 146.161 44.6606 145.471 45.4986 145.435L55.0904 145.018C55.3539 145.006 55.6034 144.897 55.7899 144.71L57.1985 143.301C57.3916 143.108 57.6534 143 57.9263 143L70.5 143L70.5 151L57.9263 151Z" fill="black"/>
<path d="M57.9263 135C57.6534 135 57.3916 134.892 57.1985 134.699L55.7899 133.29C55.6034 133.103 55.3539 132.994 55.0904 132.982L45.4986 132.565C44.6606 132.529 44 131.839 44 131C44 130.161 44.6606 129.471 45.4986 129.435L55.0904 129.018C55.3539 129.006 55.6034 128.897 55.7899 128.71L57.1985 127.301C57.3916 127.108 57.6534 127 57.9263 127L70.5 127L70.5 135L57.9263 135Z" fill="black"/>
<path d="M57.9263 119C57.6534 119 57.3916 118.892 57.1985 118.699L55.7899 117.29C55.6034 117.103 55.3539 116.994 55.0904 116.982L45.4986 116.565C44.6606 116.529 44 115.839 44 115C44 114.161 44.6606 113.471 45.4986 113.435L55.0904 113.018C55.3539 113.006 55.6034 112.897 55.7899 112.71L57.1985 111.301C57.3916 111.108 57.6534 111 57.9263 111L70.5 111L70.5 119L57.9263 119Z" fill="black"/>
<path d="M57.9263 103C57.6534 103 57.3916 102.892 57.1985 102.699L55.7899 101.29C55.6034 101.103 55.3539 100.994 55.0904 100.982L45.4986 100.565C44.6606 100.529 44 99.8388 44 99C44 98.1612 44.6606 97.4713 45.4986 97.4348L55.0904 97.0178C55.3539 97.0064 55.6034 96.8966 55.7899 96.7101L57.1985 95.3015C57.3916 95.1084 57.6534 95 57.9263 95L70.5 95L70.5 103L57.9263 103Z" fill="black"/>
<path d="M57.9263 87C57.6534 87 57.3916 86.8916 57.1985 86.6985L55.7899 85.2899C55.6034 85.1034 55.3539 84.9936 55.0904 84.9822L45.4986 84.5652C44.6606 84.5287 44 83.8388 44 83C44 82.1612 44.6606 81.4713 45.4986 81.4348L55.0904 81.0178C55.3539 81.0064 55.6034 80.8966 55.7899 80.7101L57.1985 79.3015C57.3916 79.1084 57.6534 79 57.9263 79L70.5 79L70.5 87L57.9263 87Z" fill="black"/>
<path d="M57.9263 71C57.6534 71 57.3916 70.8916 57.1985 70.6985L55.7899 69.2899C55.6034 69.1034 55.3539 68.9936 55.0904 68.9822L45.4986 68.5652C44.6606 68.5287 44 67.8388 44 67C44 66.1612 44.6606 65.4713 45.4986 65.4348L55.0904 65.0178C55.3539 65.0064 55.6034 64.8966 55.7899 64.7101L57.1985 63.3015C57.3916 63.1084 57.6534 63 57.9263 63L70.5 63L70.5 71L57.9263 71Z" fill="black"/>
<path d="M82 42.9263C82 42.6534 82.1084 42.3916 82.3015 42.1985L83.7101 40.7899C83.8966 40.6034 84.0064 40.3539 84.0178 40.0904L84.4348 30.4986C84.4713 29.6606 85.1612 29 86 29C86.8388 29 87.5287 29.6606 87.5652 30.4986L87.9822 40.0904C87.9936 40.3539 88.1034 40.6034 88.2899 40.7899L89.6985 42.1985C89.8916 42.3916 90 42.6534 90 42.9263V55.5H82V42.9263Z" fill="black"/>
<path d="M98 42.9263C98 42.6534 98.1084 42.3916 98.3015 42.1985L99.7101 40.7899C99.8966 40.6034 100.006 40.3539 100.018 40.0904L100.435 30.4986C100.471 29.6606 101.161 29 102 29C102.839 29 103.529 29.6606 103.565 30.4986L103.982 40.0904C103.994 40.3539 104.103 40.6034 104.29 40.7899L105.699 42.1985C105.892 42.3916 106 42.6534 106 42.9263V55.5H98V42.9263Z" fill="black"/>
<path d="M114 42.9263C114 42.6534 114.108 42.3916 114.301 42.1985L115.71 40.7899C115.897 40.6034 116.006 40.3539 116.018 40.0904L116.435 30.4986C116.471 29.6606 117.161 29 118 29C118.839 29 119.529 29.6606 119.565 30.4986L119.982 40.0904C119.994 40.3539 120.103 40.6034 120.29 40.7899L121.699 42.1985C121.892 42.3916 122 42.6534 122 42.9263V55.5H114V42.9263Z" fill="black"/>
<path d="M130 42.9263C130 42.6534 130.108 42.3916 130.301 42.1985L131.71 40.7899C131.897 40.6034 132.006 40.3539 132.018 40.0904L132.435 30.4986C132.471 29.6606 133.161 29 134 29C134.839 29 135.529 29.6606 135.565 30.4986L135.982 40.0904C135.994 40.3539 136.103 40.6034 136.29 40.7899L137.699 42.1985C137.892 42.3916 138 42.6534 138 42.9263V55.5H130V42.9263Z" fill="black"/>
<path d="M146 42.9263C146 42.6534 146.108 42.3916 146.301 42.1985L147.71 40.7899C147.897 40.6034 148.006 40.3539 148.018 40.0904L148.435 30.4986C148.471 29.6606 149.161 29 150 29C150.839 29 151.529 29.6606 151.565 30.4986L151.982 40.0904C151.994 40.3539 152.103 40.6034 152.29 40.7899L153.699 42.1985C153.892 42.3916 154 42.6534 154 42.9263V55.5H146V42.9263Z" fill="black"/>
<path d="M162 42.9263C162 42.6534 162.108 42.3916 162.301 42.1985L163.71 40.7899C163.897 40.6034 164.006 40.3539 164.018 40.0904L164.435 30.4986C164.471 29.6606 165.161 29 166 29C166.839 29 167.529 29.6606 167.565 30.4986L167.982 40.0904C167.994 40.3539 168.103 40.6034 168.29 40.7899L169.699 42.1985C169.892 42.3916 170 42.6534 170 42.9263V55.5H162V42.9263Z" fill="black"/>
</svg>
